<svg width="47" height="47" viewBox="0 0 47 47" fill="none" xmlns="http://www.w3.org/2000/svg">
<rect x="0.985596" y="0.809235" width="45.7803" height="45.7803" rx="22.8902" fill="#F1F0FF"/>
<path d="M30.1186 13.2948C29.2955 13.2948 28.4908 13.5389 27.8064 13.9962C27.122 14.4535 26.5885 15.1035 26.2735 15.864C25.9585 16.6245 25.8761 17.4613 26.0367 18.2686C26.1973 19.0759 26.5937 19.8175 27.1757 20.3995C27.7578 20.9816 28.4993 21.3779 29.3067 21.5385C30.114 21.6991 30.9508 21.6167 31.7113 21.3017C32.4717 20.9867 33.1217 20.4533 33.579 19.7688C34.0364 19.0844 34.2804 18.2798 34.2804 17.4566C34.2804 16.3529 33.842 15.2943 33.0615 14.5138C32.281 13.7333 31.2224 13.2948 30.1186 13.2948ZM30.1186 19.5376C29.707 19.5376 29.3047 19.4155 28.9625 19.1869C28.6203 18.9582 28.3536 18.6332 28.1961 18.253C28.0386 17.8727 27.9974 17.4543 28.0776 17.0507C28.1579 16.647 28.3561 16.2762 28.6472 15.9852C28.9382 15.6942 29.309 15.496 29.7126 15.4157C30.1163 15.3354 30.5347 15.3766 30.9149 15.5341C31.2952 15.6916 31.6202 15.9583 31.8488 16.3005C32.0775 16.6428 32.1995 17.0451 32.1995 17.4566C32.1995 18.0085 31.9803 18.5378 31.59 18.9281C31.1998 19.3183 30.6705 19.5376 30.1186 19.5376ZM26.9972 32.0231H24.9163V29.9422C24.9163 29.6663 24.8067 29.4016 24.6115 29.2065C24.4164 29.0114 24.1518 28.9017 23.8758 28.9017C23.5999 28.9017 23.3352 29.0114 23.1401 29.2065C22.945 29.4016 22.8354 29.6663 22.8354 29.9422V32.0231H20.7544V28.5064L24.344 26.7064C24.5156 26.6199 24.6599 26.4876 24.7609 26.3242C24.8619 26.1607 24.9157 25.9725 24.9163 25.7803V21.6185C24.9163 21.3426 24.8067 21.0779 24.6115 20.8828C24.4164 20.6877 24.1518 20.578 23.8758 20.578C23.5999 20.578 23.3352 20.6877 23.1401 20.8828C22.945 21.0779 22.8354 21.3426 22.8354 21.6185V25.1353L20.7544 26.1757V19.5376C20.7544 19.2616 20.6448 18.997 20.4497 18.8019C20.2546 18.6067 19.9899 18.4971 19.714 18.4971C19.438 18.4971 19.1734 18.6067 18.9782 18.8019C18.7831 18.997 18.6735 19.2616 18.6735 19.5376V28.2566L16.5926 27.2162V24.7399C16.5926 24.4639 16.483 24.1993 16.2878 24.0042C16.0927 23.809 15.8281 23.6994 15.5521 23.6994C15.2762 23.6994 15.0115 23.809 14.8164 24.0042C14.6213 24.1993 14.5117 24.4639 14.5117 24.7399V27.8613C14.5122 28.0534 14.566 28.2416 14.667 28.4051C14.768 28.5685 14.9123 28.7008 15.0839 28.7873L18.6735 30.5873V32.0231H14.5117C14.2357 32.0231 13.9711 32.1327 13.7759 32.3279C13.5808 32.523 13.4712 32.7876 13.4712 33.0636C13.4712 33.3395 13.5808 33.6042 13.7759 33.7993C13.9711 33.9944 14.2357 34.104 14.5117 34.104H26.9972C27.2732 34.104 27.5378 33.9944 27.7329 33.7993C27.928 33.6042 28.0377 33.3395 28.0377 33.0636C28.0377 32.7876 27.928 32.523 27.7329 32.3279C27.5378 32.1327 27.2732 32.0231 26.9972 32.0231Z" fill="#8C8CA1"/>
</svg>
