<svg width="15" height="17" viewBox="0 0 15 17" fill="none" xmlns="http://www.w3.org/2000/svg">
<path d="M3.33333 3.33333V0.833333C3.33333 0.61232 3.42113 0.400358 3.57741 0.244078C3.73369 0.0877973 3.94565 0 4.16667 0H14.1667C14.3877 0 14.5996 0.0877973 14.7559 0.244078C14.9122 0.400358 15 0.61232 15 0.833333V12.5C15 12.721 14.9122 12.933 14.7559 13.0893C14.5996 13.2455 14.3877 13.3333 14.1667 13.3333H11.6667V15.8333C11.6667 16.2933 11.2917 16.6667 10.8275 16.6667H0.839167C0.729272 16.6673 0.620331 16.6463 0.518602 16.6047C0.416873 16.5631 0.324361 16.5019 0.246382 16.4244C0.168403 16.347 0.106494 16.2549 0.0642119 16.1535C0.0219297 16.052 0.000107812 15.9432 0 15.8333L0.00250002 4.16667C0.00250002 3.70667 0.3775 3.33333 0.840833 3.33333H3.33333ZM1.66833 5L1.66667 15H10V5H1.66833ZM5 3.33333H11.6667V11.6667H13.3333V1.66667H5V3.33333ZM3.33333 7.5H8.33333V9.16667H3.33333V7.5ZM3.33333 10.8333H8.33333V12.5H3.33333V10.8333Z" fill="#AFAFC1"/>
</svg>
