<svg width="13" height="12" viewBox="0 0 13 12" fill="none" xmlns="http://www.w3.org/2000/svg">
<g clip-path="url(#clip0_1_2)">
<path fill-rule="evenodd" clip-rule="evenodd" d="M5.09312 0.421188C4.44649 0.421656 3.92317 0.93489 3.92364 1.56732C3.92317 2.19975 4.44697 2.71298 5.09359 2.71345H6.26354V1.56779C6.26402 0.935357 5.74022 0.422123 5.09312 0.421188C5.09359 0.421188 5.09359 0.421188 5.09312 0.421188V0.421188ZM5.09312 3.47816H1.97421C1.32758 3.47862 0.803779 3.99186 0.804257 4.62429C0.803301 5.25672 1.3271 5.76995 1.97373 5.77088H5.09312C5.73974 5.77042 6.26354 5.25718 6.26307 4.62475C6.26354 3.99186 5.73974 3.47862 5.09312 3.47816V3.47816Z" fill="#36C5F0"/>
<path fill-rule="evenodd" clip-rule="evenodd" d="M12.502 4.62429C12.5025 3.99186 11.9787 3.47862 11.332 3.47816C10.6854 3.47862 10.1616 3.99186 10.1621 4.62429V5.77088H11.332C11.9787 5.77042 12.5025 5.25718 12.502 4.62429ZM9.3826 4.62429V1.56732C9.38308 0.935357 8.85975 0.422123 8.21312 0.421188C7.56649 0.421656 7.04269 0.93489 7.04317 1.56732V4.62429C7.04221 5.25672 7.56602 5.76995 8.21264 5.77088C8.85927 5.77042 9.38308 5.25718 9.3826 4.62429Z" fill="#2EB67D"/>
<path fill-rule="evenodd" clip-rule="evenodd" d="M8.21255 11.8848C8.85918 11.8843 9.38298 11.3711 9.3825 10.7387C9.38298 10.1062 8.85918 9.593 8.21255 9.59253H7.04261V10.7387C7.04213 11.3706 7.56593 11.8839 8.21255 11.8848ZM8.21255 8.82735H11.3319C11.9786 8.82689 12.5024 8.31365 12.5019 7.68122C12.5028 7.0488 11.979 6.53556 11.3324 6.53463H8.21303C7.56641 6.53509 7.04261 7.04833 7.04308 7.68076C7.04261 8.31365 7.56593 8.82689 8.21255 8.82735V8.82735Z" fill="#ECB22E"/>
<path fill-rule="evenodd" clip-rule="evenodd" d="M0.804291 7.68129C0.803813 8.31372 1.32761 8.82696 1.97424 8.82743C2.62087 8.82696 3.14467 8.31372 3.14419 7.68129V6.53516H1.97424C1.32761 6.53563 0.803813 7.04886 0.804291 7.68129ZM3.92368 7.68129V10.7383C3.92272 11.3707 4.44652 11.8839 5.09315 11.8849C5.73978 11.8844 6.26358 11.3712 6.2631 10.7387V7.68223C6.26406 7.0498 5.74026 6.53656 5.09363 6.53563C4.44652 6.53563 3.9232 7.04886 3.92368 7.68129C3.92368 7.68176 3.92368 7.68129 3.92368 7.68129Z" fill="#E01E5A"/>
</g>
<defs>
<clipPath id="clip0_1_2">
<rect width="11.8776" height="11.64" fill="white" transform="translate(0.714279 0.333008)"/>
</clipPath>
</defs>
</svg>
