<svg width="2742" height="2585" viewBox="0 0 2742 2585" fill="none" xmlns="http://www.w3.org/2000/svg">
<path d="M12 587V511L20 466L56 405L118 360L187 324L285 302L291 264L307 183L358 104L471 55L656 40L1089 23L1585 14H2010L2217 35L2356 75L2440 159L2476 289L2607 327L2692 397L2733 506L2720 650L2665 725L2577 763L2341 772L1658 753L1636 813L1566 926L1467 1023L1360 1094L1326 1103V1086L1423 981L1480 904L1528 799V753H1360H1064L740 763L474 783L250 793L154 783L96 753L56 701L28 645L12 587Z" fill="white"/>
<mask id="mask0_1102_256" style="mask-type:alpha" maskUnits="userSpaceOnUse" x="94" y="1009" width="1380" height="1572">
<path d="M1101.78 1184.58L989.979 1095.17L882.839 1045.8L757.065 1010.41H586.573L396.516 1066.29L242.793 1174.33L131.926 1305.66L94.66 1531.06L154.286 1761.12L292.171 1904.56L442.167 1981.87L492.476 2018.19L409.559 2034.02L335.958 2086.18L308.94 2196.09L296.829 2382.37L254.904 2494.14L265.153 2545.37L308.94 2564.93L378.814 2534.19L426.329 2459.68L458.936 2365.6L484.091 2265.01L498.998 2341.39L533.469 2459.68L608.933 2551.89L709.551 2573.31L802.716 2551.89L831.598 2494.14L808.306 2441.98L768.245 2392.62L698.371 2329.28L655.515 2233.35L664.832 2145.79L719.799 2233.35L758.929 2323.69L785.015 2392.62L839.983 2466.2L844.641 2539.78L921.968 2579.83L1001.16 2559.34L1035.63 2494.14L1001.16 2407.52L921.968 2282.71L873.522 2145.79L947.123 2178.39L1060.78 2156.04L1155.81 2138.34L1289.04 2196.09L1416.68 2216.58L1466.05 2184.91L1472.58 2105.74L1391.52 2018.19L1247.12 1966.96L1078.49 1981.87L963.893 1998.63L980.662 1974.41L1060.78 1918.53L1155.81 1801.17L1226.62 1659.6L1247.12 1525.48L1226.62 1391.35L1176.31 1283.31L1101.78 1184.58Z" fill="url(#paint0_linear_1102_256)" stroke="black"/>
</mask>
<g mask="url(#mask0_1102_256)">
<path d="M1101.78 1184.58L989.979 1095.17L882.839 1045.8L757.065 1010.41H586.573L396.516 1066.29L242.793 1174.33L131.926 1305.66L94.66 1531.06L154.286 1761.12L292.171 1904.56L442.167 1981.87L492.476 2018.19L409.559 2034.02L335.958 2086.18L308.94 2196.09L296.829 2382.37L254.904 2494.14L265.153 2545.37L308.94 2564.93L378.814 2534.19L426.329 2459.68L458.936 2365.6L484.091 2265.01L498.998 2341.39L533.469 2459.68L608.933 2551.89L709.551 2573.31L802.716 2551.89L831.598 2494.14L808.306 2441.98L768.245 2392.62L698.371 2329.28L655.515 2233.35L664.832 2145.79L719.799 2233.35L758.929 2323.69L785.015 2392.62L839.983 2466.2L844.641 2539.78L921.968 2579.83L1001.16 2559.34L1035.63 2494.14L1001.16 2407.52L921.968 2282.71L873.522 2145.79L947.123 2178.39L1060.78 2156.04L1155.81 2138.34L1289.04 2196.09L1416.68 2216.58L1466.05 2184.91L1472.58 2105.74L1391.52 2018.19L1247.12 1966.96L1078.49 1981.87L963.893 1998.63L980.662 1974.41L1060.78 1918.53L1155.81 1801.17L1226.62 1659.6L1247.12 1525.48L1226.62 1391.35L1176.31 1283.31L1101.78 1184.58Z" fill="url(#paint1_linear_1102_256)" stroke="black"/>
<g filter="url(#filter0_f_1102_256)">
<ellipse cx="181.207" cy="132.726" rx="181.207" ry="132.726" transform="matrix(-1 0 0 1 1160.47 1429.54)" fill="#D3A2FF"/>
</g>
<g filter="url(#filter1_f_1102_256)">
<ellipse cx="181.207" cy="132.726" rx="181.207" ry="132.726" transform="matrix(-1 0 0 1 576.324 1376.45)" fill="#D3A2FF"/>
</g>
</g>
<path d="M1055.2 1349.44L1017 1299.14L966.688 1265.61L915.447 1248.85L856.753 1259.09L822.282 1293.55L796.195 1341.99L780.357 1418.36L800.854 1518.96L856.753 1571.11L915.447 1584.15L980.663 1571.11L1029.11 1541.31L1064.51 1477.97L1073.83 1418.36L1055.2 1349.44Z" fill="#FFF0B4"/>
<path d="M704.892 1285.17L642.471 1233.01L589.367 1218.11L515.767 1225.56L461.731 1255.37L422.601 1285.17L389.062 1350.37L376.95 1425.81L401.173 1498.46L454.277 1545.03L523.22 1560.87L589.367 1552.49L647.13 1521.75L693.712 1478.9L730.047 1410.91V1341.06L704.892 1285.17Z" fill="#FFF0B4"/>
<path d="M758.929 1746.22L836.256 1705.24V1686.61H803.648L728.184 1693.13L673.217 1686.61L627.566 1670.78L574.461 1650.28L530.674 1641.9V1670.78L569.803 1732.25L647.13 1758.33L758.929 1746.22Z" fill="white"/>
<ellipse cx="49.9586" cy="33.7723" rx="49.9586" ry="33.7723" transform="matrix(-0.97088 -0.239568 -0.239687 0.97085 1421.45 2175.32)" fill="#9A76AC"/>
<ellipse cx="56.944" cy="29.5514" rx="56.944" ry="29.5514" transform="matrix(-0.97088 -0.239568 -0.239687 0.97085 1271.34 2120.37)" fill="#9A76AC"/>
<ellipse cx="53.1943" cy="28.107" rx="53.1943" ry="28.107" transform="matrix(-0.983325 0.181856 0.181949 0.983308 1064.53 2108.58)" fill="#9A76AC"/>
<ellipse cx="41.3724" cy="28.113" rx="41.3724" ry="28.113" transform="matrix(-0.400207 0.916425 0.916502 0.40003 428.834 2268.74)" fill="#9A76AC"/>
<ellipse cx="57.2856" cy="29.8237" rx="57.2856" ry="29.8237" transform="matrix(-0.400207 0.916425 0.916502 0.40003 385.342 2398.45)" fill="#9A76AC"/>
<ellipse cx="51.238" cy="70.7914" rx="51.238" ry="70.7914" transform="matrix(-0.886426 -0.462871 -0.463062 0.886326 954.584 1303.72)" fill="white"/>
<ellipse cx="56.7921" cy="75.8585" rx="56.7921" ry="75.8585" transform="matrix(-0.76549 -0.643448 -0.643647 0.765323 593.092 1305.17)" fill="white"/>
<path fill-rule="evenodd" clip-rule="evenodd" d="M726.174 991.074C721.479 990.693 717.293 990.037 716.874 989.617C716.455 989.196 715.06 989.144 713.773 989.5C712.486 989.856 709.758 990.053 707.71 989.937C704.276 989.744 700.771 989.732 683.965 989.855C680.636 989.88 673.722 989.881 668.601 989.857C663.479 989.834 656.147 989.856 652.306 989.909C648.465 989.96 643.646 989.96 641.597 989.909C639.549 989.858 633.473 990.263 628.096 990.81C622.718 991.356 612.242 992.182 604.817 992.644C597.391 993.107 589.22 993.973 586.659 994.569C584.098 995.165 578.861 996.008 575.019 996.442C571.178 996.876 565.522 997.703 562.449 998.279C559.376 998.855 554.348 999.695 551.275 1000.14C548.202 1000.6 543.802 1001.43 541.498 1002.01C539.193 1002.59 535.632 1003.37 533.583 1003.76C531.534 1004.14 527.398 1005.59 524.392 1006.97C520.266 1008.86 517.462 1009.48 512.958 1009.48C508.833 1009.48 504.375 1010.34 498.515 1012.27C493.852 1013.81 489.389 1015.06 488.598 1015.06C486.98 1015.06 484.532 1015.81 474.455 1019.37C470.614 1020.73 465.795 1022.18 463.746 1022.59C454.46 1024.47 452.183 1025.14 447.079 1027.47C444.087 1028.85 441.041 1029.97 440.31 1029.97C439.579 1029.97 437.43 1030.76 435.534 1031.72C433.638 1032.69 429.573 1034.77 426.5 1036.35C423.427 1037.93 420.23 1039.23 419.397 1039.25C417.171 1039.29 411.266 1041.87 406.48 1044.88C404.175 1046.33 397.261 1049.47 391.116 1051.85C370.91 1059.69 358.671 1066.28 341.074 1078.83C338.645 1080.56 332.628 1083.54 327.701 1085.45C321.428 1087.88 316.515 1090.62 311.3 1094.6C307.205 1097.73 301.7 1101.55 299.065 1103.09C290.161 1108.3 281.254 1114.53 278.446 1117.51C276.909 1119.15 274.407 1121.13 272.886 1121.92C271.364 1122.72 267.803 1125.56 264.971 1128.25C262.139 1130.93 258.094 1133.99 255.982 1135.06C253.871 1136.12 250.938 1138.31 249.464 1139.91C247.991 1141.51 243.644 1145.39 239.803 1148.54C235.962 1151.69 231.143 1156.16 229.094 1158.48C225.026 1163.07 215.251 1172.86 209.473 1178.14C207.461 1179.98 203.092 1184.54 199.763 1188.28C196.434 1192.01 191.294 1197.56 188.339 1200.61C185.386 1203.65 182.153 1207.74 181.154 1209.7C180.155 1211.66 178.778 1213.83 178.093 1214.52C177.408 1215.22 175.005 1218.51 172.755 1221.84C170.504 1225.17 166.735 1229.78 164.379 1232.08C162.023 1234.39 158.252 1239 155.998 1242.33C153.745 1245.66 150.931 1249.43 149.746 1250.71C148.56 1251.99 145.86 1256.39 143.746 1260.49C141.632 1264.59 138.548 1269.83 136.893 1272.13C133.579 1276.75 129.926 1283.59 129.926 1285.19C129.926 1285.75 128.311 1288.59 126.336 1291.51C124.362 1294.43 122.215 1298.49 121.564 1300.54C119.729 1306.32 117.023 1312.75 112.16 1322.89C107.062 1333.53 103.854 1341.45 103.854 1343.4C103.854 1344.13 102.597 1347.48 101.06 1350.84C99.4128 1354.43 98.2666 1358.49 98.2666 1360.73C98.2666 1362.87 97.5292 1365.59 96.5701 1366.99C92.7439 1372.57 88.9875 1382.85 88.969 1387.81C88.955 1391.21 87.386 1397.98 85.1279 1404.39C84.4966 1406.19 83.7043 1412.47 83.3663 1418.36C82.8766 1426.91 82.2648 1430.21 80.3409 1434.66C78.2579 1439.49 77.7887 1442.47 76.892 1456.55C76.3212 1465.52 75.4495 1475.18 74.9551 1478.03C72.6085 1491.55 74.4281 1554.85 77.4152 1563.62C78.2672 1566.12 79.0708 1572.82 79.3762 1579.96C79.6611 1586.62 80.2645 1592.79 80.719 1593.67C81.5626 1595.32 83.9855 1609.06 85.1969 1619.08C85.5684 1622.16 86.9856 1627.51 88.3451 1630.98C89.7046 1634.45 90.8174 1638.57 90.8174 1640.13C90.8174 1641.69 91.877 1646.13 93.1713 1649.98C94.4666 1653.84 95.8884 1659.37 96.3308 1662.26C97.5646 1670.31 99.8198 1677.67 102.976 1683.92C104.554 1687.05 106.836 1692.54 108.048 1696.12C109.261 1699.7 111.246 1704.16 112.46 1706.03C115.811 1711.18 118.752 1717.98 118.752 1720.57C118.752 1724.76 126.344 1742.58 130.867 1749.01C131.768 1750.29 134.506 1755.11 136.953 1759.72C139.4 1764.33 142.108 1769.15 142.973 1770.44C143.838 1771.72 146.421 1776.75 148.712 1781.61C151.927 1788.44 154.099 1791.63 158.223 1795.58C161.957 1799.16 164.804 1803.14 167.671 1808.78C170.622 1814.59 173.613 1818.72 178.334 1823.51C181.943 1827.17 185.95 1832.25 187.239 1834.8C188.528 1837.34 191.776 1841.61 194.456 1844.28C197.136 1846.95 200.547 1851.08 202.035 1853.44C203.692 1856.08 206.571 1858.86 209.468 1860.61C215.071 1864.01 218.227 1866.76 220.908 1870.56C224.654 1875.87 238.532 1889.38 243.58 1892.63C246.368 1894.42 250.632 1897.77 253.057 1900.07C255.481 1902.37 259.107 1904.79 261.114 1905.46C263.293 1906.17 267.198 1909.02 270.806 1912.53C276.314 1917.88 284.597 1923.19 287.436 1923.19C288.061 1923.19 290.904 1925.02 293.752 1927.25C296.6 1929.49 301.445 1932.59 304.518 1934.14C307.591 1935.69 311.572 1938.26 313.364 1939.84C315.157 1941.43 319.556 1943.97 323.141 1945.49C326.726 1947.01 337.202 1951.98 346.42 1956.53C355.639 1961.08 365.486 1965.55 368.302 1966.45C371.119 1967.36 375.181 1969.11 377.329 1970.34C382.048 1973.03 404.269 1982.8 405.689 1982.8C406.245 1982.8 410.374 1984.45 414.866 1986.47C419.357 1988.5 426.502 1991.28 430.742 1992.65C434.983 1994.02 440.698 1996.14 443.444 1997.35C446.189 1998.57 449.399 1999.56 450.576 1999.56C452.846 1999.56 463.877 2003.75 465.841 2005.36C469.283 2008.17 467.255 2008.95 452.107 2010.63C448.266 2011.06 443.237 2012.09 440.933 2012.92C438.628 2013.76 435.667 2014.44 434.353 2014.45C431.604 2014.47 414.218 2019.96 408.119 2022.74C405.855 2023.77 401.836 2025.47 399.19 2026.51C391.942 2029.37 383.805 2033.64 380.779 2036.17C379.295 2037.41 376.404 2039.26 374.355 2040.28C366.814 2044.01 357.435 2050.29 351.542 2055.55C348.213 2058.52 340.903 2064.84 335.298 2069.61C324.734 2078.58 316.435 2088.31 313.292 2095.42C312.29 2097.68 309.682 2101.45 307.495 2103.8C305.308 2106.15 302.936 2109.54 302.226 2111.33C301.515 2113.12 300.216 2115.64 299.339 2116.92C298.462 2118.2 296.409 2123.44 294.776 2128.56C293.144 2133.68 291.155 2139.76 290.357 2142.07C289.56 2144.37 288.545 2148.35 288.103 2150.92C287.661 2153.48 286.855 2158.09 286.311 2161.16C283.52 2176.95 283.089 2207.67 285.599 2212.13C286.347 2213.46 286.871 2218.42 287 2225.43C287.317 2242.48 288.82 2262.2 290.16 2266.88C291.372 2271.1 291.534 2275.29 291.893 2311.44C292.008 2322.91 292.116 2327.86 291.256 2332.64C290.514 2336.76 289.052 2340.75 286.252 2348.69C285.288 2351.42 284.498 2355.66 284.498 2358.11C284.498 2361.06 283.558 2364.63 281.705 2368.72C280.168 2372.11 278.911 2375.44 278.911 2376.13C278.911 2376.82 276.398 2382.8 273.327 2389.42C270.255 2396.05 267.741 2401.98 267.74 2402.61C267.735 2404.79 260.027 2422.91 257.524 2426.61C256.142 2428.66 254.072 2432.85 252.925 2435.93C251.777 2439 249.438 2444.27 247.726 2447.63C243.368 2456.19 236.824 2475.74 235.9 2482.96C235.474 2486.29 234.733 2492.79 234.255 2497.4C233.776 2502.01 233.1 2507.41 232.753 2509.4C232.17 2512.73 233.819 2519.92 237.111 2528.41C237.567 2529.59 237.94 2531.83 237.94 2533.39C237.94 2536.75 245.127 2550.98 249.166 2555.61C256.041 2563.5 260.404 2567.55 266.594 2571.79C272.853 2576.08 275.408 2577.04 285.429 2578.83C287.734 2579.25 291.453 2580.27 293.694 2581.1C298.099 2582.75 310.543 2583.19 313.193 2581.8C319.002 2578.75 331.981 2573.55 335.618 2578.83C347.997 2571.42 370.969 2557.88 397.772 2544.18C398.545 2542.98 399.369 2541.82 400.243 2540.71C403.036 2537.17 405.309 2533.41 407.536 2529.72C410.88 2524.19 414.123 2518.82 418.876 2514.63C423.842 2510.25 428.441 2498.54 432.444 2488.36C434.825 2482.3 436.995 2476.77 438.906 2473.65C443.812 2465.62 446.156 2449.91 447.573 2440.42C447.636 2439.99 447.698 2439.58 447.757 2439.19C448.995 2430.94 457.903 2408.08 463.808 2392.93C464.571 2390.98 465.284 2389.15 465.924 2387.49C469.179 2379.09 471.803 2367.52 474.162 2357.12C475.854 2349.66 477.411 2342.8 478.968 2338.13C481.949 2329.19 483.626 2296.84 484.092 2281.78V2300.41C484.092 2303.22 487.039 2316.7 489.776 2329.21C492.024 2339.49 494.13 2349.11 494.34 2351.63C494.676 2355.67 499.134 2373.03 501.941 2383.96C503.025 2388.19 503.863 2391.45 504.122 2392.62C505.054 2396.81 512.973 2421.95 516.234 2428.94C517.438 2431.52 519.087 2435.69 520.993 2440.51C524.248 2448.73 528.252 2458.85 532.072 2466.2C534.819 2471.48 536.416 2476.19 537.906 2480.58C539.701 2485.87 541.341 2490.7 544.649 2495.54C548.022 2500.47 558.669 2512.45 567.969 2522.64C614.76 2561.1 657.772 2585.71 752.763 2581.8C776.153 2577.28 785.994 2566.23 794.533 2556.64C804.901 2544.99 813.35 2535.5 841.796 2542.48C848.831 2546.41 855.228 2550.06 861.114 2553.41C909.577 2581 923.367 2588.86 973.238 2578.83C1043.89 2547.45 1046.55 2532.4 1051.61 2497.4C1041.37 2495.89 1042.93 2487.08 1044.42 2478.59C1045.11 2474.7 1045.79 2470.88 1045.31 2467.86C1044.63 2463.61 1043.09 2457.66 1041.88 2454.63C1040.66 2451.59 1039.67 2448.4 1039.67 2447.52C1039.67 2445.05 1037.32 2440.05 1034.03 2435.53C1032.39 2433.27 1030.02 2429.08 1028.77 2426.22C1027.52 2423.36 1024.71 2419.14 1022.52 2416.83C1020.33 2414.53 1017.78 2410.56 1016.85 2408.01C1015.91 2405.46 1013.38 2401.48 1011.23 2399.16C1009.07 2396.84 1006.24 2392.85 1004.94 2390.29C1003.63 2387.73 999.349 2381.65 995.416 2376.78C991.483 2371.92 987.215 2365.84 985.933 2363.28C984.65 2360.72 982.042 2356.73 980.136 2354.43C978.23 2352.12 975.615 2347.93 974.324 2345.11C973.035 2342.3 970.476 2338.03 968.638 2335.64C964.841 2330.69 963.222 2327.64 961.53 2322.26C960.88 2320.18 958.709 2316.2 956.704 2313.41C954.698 2310.61 952.601 2307.28 952.043 2305.99C950.371 2302.16 946.7 2294.63 944.326 2290.16C938.926 2280 936.407 2274.51 935.354 2270.6C933.884 2265.15 929.596 2254.4 925.042 2244.74C923.044 2240.51 921.41 2236.4 921.41 2235.6C921.41 2234.81 919.734 2230.65 917.686 2226.36C915.637 2222.07 913.961 2218.09 913.961 2217.53C913.961 2216.97 913.157 2214.93 912.176 2213.01C911.194 2211.08 909.315 2205.75 908.002 2201.17C906.687 2196.58 904.138 2189.98 902.337 2186.5C898.113 2178.33 898.716 2172.83 903.332 2177.45C904.871 2178.99 921.637 2186.02 925.6 2186.79C927.649 2187.18 931.755 2188.18 934.725 2189.01C937.694 2189.83 942.049 2190.5 944.401 2190.5C946.754 2190.5 951.638 2191.38 955.255 2192.46C960.249 2193.95 963.187 2194.28 967.461 2193.86C978.105 2192.8 987.996 2191.5 992.178 2190.62C994.483 2190.14 998.714 2189.32 1001.58 2188.8C1004.45 2188.28 1008.37 2187.19 1010.31 2186.38C1012.24 2185.57 1015.85 2184.91 1018.34 2184.91C1021.11 2184.91 1024.74 2184.05 1027.77 2182.68C1036.96 2178.5 1039.89 2177.46 1042.46 2177.46C1045.97 2177.46 1051.95 2175.24 1056.16 2172.39C1058.69 2170.67 1060.87 2170.01 1064.05 2170.01C1067.1 2170.01 1071.82 2168.67 1079.43 2165.66C1086.57 2162.83 1092.7 2161.06 1096.93 2160.59C1100.52 2160.2 1105.55 2159.45 1108.11 2158.93C1128.4 2154.78 1130.85 2154.67 1156.06 2156.82C1165.86 2157.65 1168.74 2158.24 1176.55 2161.03C1178.85 2161.86 1181.91 2162.54 1183.34 2162.54C1184.78 2162.55 1189 2164.23 1192.73 2166.28C1196.47 2168.33 1200.24 2170.01 1201.13 2170.01C1202.02 2170.01 1205.96 2171.52 1209.9 2173.36C1213.83 2175.2 1219.57 2177.35 1222.64 2178.13C1225.71 2178.92 1230.17 2180.98 1232.55 2182.71C1234.93 2184.44 1238.62 2186.47 1240.76 2187.23C1242.9 2187.98 1245.77 2189.39 1247.14 2190.36C1251.17 2193.2 1261.08 2197.95 1262.99 2197.95C1263.95 2197.95 1266.58 2199.34 1268.83 2201.03C1277.03 2207.2 1290.98 2213.61 1308.77 2219.37C1311.59 2220.28 1315.36 2221.65 1317.15 2222.42C1323.6 2225.17 1327.18 2225.89 1334.28 2225.89C1340.44 2225.89 1342.12 2226.26 1345.79 2228.41C1348.15 2229.8 1352 2231.22 1354.34 2231.58C1356.68 2231.94 1359.43 2232.51 1360.45 2232.84C1363.59 2233.85 1366.56 2230.95 1364.23 2229.15C1363.24 2228.39 1361.62 2227.76 1360.65 2227.76C1349.04 2227.76 1322.16 2201.01 1320.04 2187.35L1319.48 2183.73L1309.24 2179.85C1303.6 2177.72 1298.09 2175.47 1296.98 2174.86C1295.05 2173.8 1286.76 2171.3 1281.77 2170.28C1280.49 2170.01 1277.97 2168.66 1276.18 2167.26C1267.3 2160.34 1257.4 2158.51 1248.71 2162.16C1237.06 2167.05 1235.26 2167.44 1226.4 2166.97C1216.66 2166.46 1210.19 2164.51 1198.14 2158.46C1193.46 2156.1 1188.88 2154.17 1187.97 2154.16C1182.99 2154.12 1172.45 2148.95 1167.7 2144.22C1163.69 2140.23 1158.86 2130.47 1158.86 2126.37C1158.86 2121.76 1157.86 2121.55 1140.63 2122.48C1116.24 2123.79 1096.54 2127.16 1087.89 2131.49C1085.47 2132.7 1081.86 2133.68 1079.86 2133.68C1077.86 2133.68 1073.6 2134.52 1070.4 2135.55C1067.19 2136.57 1063.76 2137.41 1062.79 2137.41C1060.49 2137.41 1052.36 2145.01 1050.52 2148.87C1048.38 2153.38 1043.46 2157.95 1038.27 2160.28C1035.71 2161.43 1029.63 2164.18 1024.77 2166.4L1015.92 2170.43L1004.75 2170.45C993.929 2170.46 993.311 2170.35 985.227 2166.98C975.99 2163.12 968.022 2162.42 957.459 2164.54C949.236 2166.19 935.47 2163.63 920.945 2157.75C918.384 2156.72 914.24 2155.3 911.737 2154.61C909.233 2153.91 906.09 2152.3 904.753 2151.03C903.416 2149.75 900.436 2147.89 898.131 2146.89C895.827 2145.9 892.684 2143.95 891.148 2142.57C889.611 2141.19 886.244 2138.47 883.665 2136.52C878.894 2132.93 875.811 2129.23 869.251 2119.25C863.548 2110.57 855.45 2099.09 852.492 2095.5C851.017 2093.7 848.007 2089.53 845.803 2086.23C839.742 2077.15 837.049 2077.74 841.796 2087.11C844.706 2092.86 844.706 2094 841.796 2095.33C838.033 2097.04 838.751 2104.49 843.609 2114.12C847.71 2122.26 854.379 2134.02 855.752 2135.53C857.38 2137.33 862.629 2151.12 863.736 2156.5C865.883 2166.95 867.782 2174.28 869.524 2178.86C873.273 2188.7 874.729 2193.09 875.234 2196.09C875.536 2197.88 877.075 2202.07 878.653 2205.4C880.232 2208.73 882.905 2215.44 884.593 2220.31C886.282 2225.17 888.102 2230.41 888.637 2231.95C890.912 2238.48 895.586 2252.76 896.719 2256.63C897.393 2258.94 899.243 2263.55 900.831 2266.88C902.418 2270.21 903.717 2273.37 903.717 2273.92C903.718 2274.46 905.087 2277.18 906.759 2279.97C908.432 2282.76 910.393 2286.92 911.117 2289.23C911.842 2291.53 913.348 2295.31 914.466 2297.61C915.583 2299.92 917.191 2303.92 918.039 2306.52C918.887 2309.11 921.019 2313.47 922.778 2316.2C924.537 2318.93 926.257 2322.46 926.602 2324.06C927.498 2328.21 931.195 2335.21 934.44 2338.91C935.975 2340.66 939.151 2345.81 941.496 2350.35C943.843 2354.9 947.149 2360.09 948.845 2361.88C950.541 2363.67 952.75 2367.03 953.755 2369.33C954.76 2371.64 957.453 2375.83 959.739 2378.64C964.467 2384.47 969.831 2392.17 969.831 2393.13C969.831 2394.19 977.711 2404.89 981.715 2409.26C983.766 2411.5 986.308 2415.07 987.364 2417.18C988.42 2419.3 990.82 2422.49 992.697 2424.29C994.574 2426.08 996.9 2429.36 997.868 2431.58C998.834 2433.8 1001.1 2437.41 1002.9 2439.61C1004.7 2441.81 1006.84 2445.86 1007.65 2448.61C1008.45 2451.37 1009.88 2454.88 1010.82 2456.42C1016.39 2465.58 1018.4 2489.11 1014.51 2499.53C1013.49 2502.24 1012.66 2505.85 1012.66 2507.55C1012.66 2509.37 1011.65 2512.14 1010.19 2514.27C1008.83 2516.26 1006.49 2519.96 1004.99 2522.49C1000.49 2530.08 993.176 2538.4 986.616 2543.38C984.838 2544.73 981.972 2547.15 980.246 2548.76C978.522 2550.36 975.368 2552.39 973.238 2553.25C971.108 2554.12 968.118 2555.46 966.595 2556.23C959.786 2559.67 950.299 2562.21 948.285 2561.13C946.841 2560.36 945.715 2560.35 944.062 2561.1C940.276 2562.83 928.062 2562.36 922.341 2560.27C919.54 2559.24 915.454 2558.41 913.262 2558.41C910.555 2558.41 907.69 2557.51 904.327 2555.61C901.605 2554.08 898.777 2552.82 898.043 2552.82C896.729 2552.82 886.8 2545.23 882.363 2540.83C881.116 2539.6 878.183 2537.38 875.845 2535.9C873.08 2534.16 869.965 2530.81 866.938 2526.32C864.377 2522.54 860.297 2516.74 857.871 2513.44L853.46 2507.44L854.427 2499.63C855.668 2489.6 855.666 2488.12 854.4 2482.5C853.824 2479.94 853.144 2476.58 852.89 2475.05C852.434 2472.29 851.466 2468.34 849.461 2461.07C848.895 2459.03 847.673 2456.24 846.745 2454.88C845.815 2453.52 845.055 2451.83 845.055 2451.14C845.055 2449.16 838.864 2440.33 832.1 2432.67C828.709 2428.82 824.172 2423.3 822.019 2420.4C819.866 2417.49 815.473 2413.1 812.258 2410.63C809.043 2408.16 805.574 2405.44 804.55 2404.58C803.526 2403.72 800.802 2401.61 798.497 2399.88C793.604 2396.22 789.065 2389.84 786.879 2383.56C786.028 2381.11 782.779 2373.87 779.658 2367.47C776.538 2361.06 772.839 2352.68 771.439 2348.84C770.039 2345 768.051 2339.76 767.021 2337.2C765.992 2334.64 764.627 2331.07 763.988 2329.28C760.36 2319.09 755.103 2305.72 752.763 2300.74C751.286 2297.59 750.077 2293.71 750.077 2292.11C750.077 2290.47 748.036 2285.13 745.421 2279.92C742.861 2274.81 740.766 2269.72 740.766 2268.6C740.766 2267.48 739.509 2264.33 737.972 2261.61C736.436 2258.89 735.179 2255.42 735.179 2253.9C735.179 2252.39 734.817 2250.93 734.375 2250.66C733.44 2250.08 725.867 2234.95 725.867 2233.66C725.867 2233.18 724.191 2229.37 722.142 2225.19C720.094 2221.01 718.416 2217.05 718.414 2216.39C718.411 2215.72 717.156 2213.3 715.624 2210.99C714.093 2208.69 712.837 2206.42 712.835 2205.95C712.833 2205.48 710.428 2201.08 707.49 2196.17C704.553 2191.26 701.514 2186.1 700.739 2184.72C698.34 2180.42 693.88 2173.81 690.777 2169.95C689.146 2167.92 686.672 2163.92 685.278 2161.07C683.884 2158.22 681.804 2155.27 680.655 2154.52C679.506 2153.77 678.068 2151.95 677.459 2150.48C676.85 2149.01 674.875 2146.46 673.07 2144.82C669.978 2142 669.822 2141.58 670.363 2137.51C671.181 2131.33 669.193 2128.6 664.529 2129.5C662.671 2129.85 658.873 2130.11 656.087 2130.06C647.082 2129.93 645.46 2133.72 651 2141.95C653.444 2145.58 654.222 2147.59 653.876 2149.38C653.272 2152.53 650.739 2162.21 648.477 2170.04C647.51 2173.38 646.719 2177.15 646.719 2178.42C646.719 2179.68 646.006 2183.66 645.137 2187.24C643.957 2192.1 643.474 2199.05 643.24 2214.51L642.926 2235.25L645.753 2243.49C647.309 2248.02 648.581 2253.49 648.581 2255.64C648.581 2259.77 652.009 2271.06 655.099 2277.12C656.105 2279.09 658.024 2283.99 659.365 2287.99C660.706 2292 662.188 2295.76 662.66 2296.33C663.132 2296.91 665.018 2300.47 666.851 2304.23C668.684 2308 671.371 2312.44 672.823 2314.09C674.273 2315.74 676.194 2318.69 677.09 2320.63C677.986 2322.57 679.807 2325.83 681.138 2327.88C682.468 2329.93 684.172 2332.86 684.925 2334.38C685.677 2335.9 689.046 2340.1 692.412 2343.69C695.778 2347.29 699.238 2351.28 700.102 2352.57C703.579 2357.72 728.628 2381.91 734.946 2386.21C738.658 2388.74 741.697 2391.15 741.697 2391.57C741.697 2393.1 750.66 2401.24 755.199 2403.84C757.759 2405.3 761.386 2408.17 763.259 2410.21C765.131 2412.24 768.483 2414.82 770.708 2415.93C774.643 2417.9 784.771 2427.78 791.775 2436.49C793.68 2438.86 796.851 2441.96 798.823 2443.38C803.91 2447.04 810.529 2456.53 815.295 2467C816.313 2469.24 817.978 2472.24 818.996 2473.67C821.748 2477.53 821.74 2498.98 818.983 2504.38C817.959 2506.39 817.121 2508.54 817.121 2509.15C817.121 2512.04 805.133 2525.76 798.497 2530.46C796.705 2531.73 794.11 2533.82 792.731 2535.11C786.256 2541.15 752.698 2556.54 746.007 2556.54C740.718 2556.54 739.006 2556.88 730.756 2559.53C722.086 2562.31 688.053 2561.37 680.825 2558.15C678.842 2557.27 675.478 2556.54 673.35 2556.54C671.222 2556.54 668.61 2555.93 667.547 2555.19C664.604 2553.13 657.814 2550.98 654.168 2550.97C651.941 2550.96 649.917 2550.1 647.776 2548.27C646.054 2546.8 642.911 2545.08 640.793 2544.45C638.674 2543.82 635.979 2542.93 634.803 2542.48C633.627 2542.02 631.85 2541.64 630.855 2541.64C629.86 2541.64 626.759 2539.65 623.964 2537.22C618.346 2532.33 609.524 2526.01 605.423 2523.94C601.517 2521.97 582.155 2502.73 579.178 2497.86C577.767 2495.56 575.188 2492.08 573.446 2490.13C571.704 2488.18 569.784 2485.46 569.182 2484.08C568.579 2482.69 566.526 2479.68 564.62 2477.37C562.715 2475.07 559.717 2470.04 557.959 2466.2C556.2 2462.35 553.243 2456.97 551.388 2454.23C549.534 2451.49 548.016 2448.63 548.016 2447.89C548.016 2446.46 538.994 2425.61 535.852 2419.78C534.84 2417.9 533.563 2414.69 533.015 2412.64C532.467 2410.59 530.734 2405.98 529.165 2402.4C527.596 2398.81 525.981 2394.62 525.577 2393.08C525.173 2391.54 524.371 2388.61 523.797 2386.56C523.221 2384.51 522.408 2381.37 521.989 2379.58C521.024 2375.45 518.719 2368.81 515.357 2360.48C513.799 2356.62 512.547 2351.49 512.289 2347.91C511.745 2340.33 510.459 2333.37 508.932 2329.75C505.816 2322.34 505.031 2316.66 501.47 2275.72C500.979 2270.09 500.138 2261.5 499.598 2256.63C499.058 2251.76 498.606 2246.21 498.593 2244.29C498.579 2242.37 498.562 2240.06 498.555 2239.17C498.318 2209.86 499.216 2190.4 501.392 2177.69C501.94 2174.49 502.713 2169.46 503.109 2166.52C503.505 2163.57 504.149 2160.65 504.541 2160.03C504.934 2159.4 504.403 2157.23 503.356 2155.18C500.697 2149.96 501.289 2145.33 505.416 2139.03C507.29 2136.17 507.531 2133.16 505.964 2132.2C503.503 2130.67 490.573 2148.89 485.403 2161.16C483.461 2165.77 480.831 2171.75 479.56 2174.45C478.288 2177.16 477.248 2180.35 477.248 2181.56C477.248 2182.77 476.552 2185.38 475.702 2187.36C474.852 2189.34 473.786 2192.85 473.331 2195.16C472.878 2197.46 472.083 2201.44 471.565 2204.01C470.577 2208.9 469.455 2216.39 468.079 2227.29C467.626 2230.88 466.716 2235.28 466.054 2237.07C465.392 2238.86 464.528 2244.1 464.133 2248.71C463.737 2253.32 462.756 2260.87 461.953 2265.48C461.149 2270.09 460.103 2276.38 459.63 2279.45C459.156 2282.52 458.471 2286.41 458.108 2288.1C457.579 2290.55 458.069 2292.38 460.572 2297.31C466.76 2309.51 462.74 2330.24 452.307 2339.92C447.37 2344.51 446.502 2346.45 445.626 2354.91C445.172 2359.28 443.523 2365 440.628 2372.24C435.727 2384.49 430.69 2399.47 430.69 2401.79C430.69 2402.65 429.826 2404.97 428.77 2406.94C423.673 2416.45 422.046 2423.26 421.738 2436.39C421.424 2449.78 420.024 2456.9 416.819 2461.4C415.742 2462.92 414.86 2464.36 414.86 2464.62C414.86 2465.02 409.337 2477.34 406.213 2483.89C401.873 2493 381.948 2508.11 374.269 2508.11C371.663 2508.11 370.875 2508.73 368.445 2512.68C366.899 2515.19 363.825 2518.51 361.614 2520.05C359.403 2521.59 355.709 2524.8 353.404 2527.2C351.099 2529.59 347.119 2532.62 344.558 2533.92C341.997 2535.23 338.855 2537 337.574 2537.88C336.294 2538.75 332.851 2540.41 329.925 2541.58C326.998 2542.74 322.682 2544.91 320.335 2546.4C316.764 2548.67 315.743 2548.94 314.09 2548.05C312.825 2547.37 308.99 2547.16 303.451 2547.45C277.95 2548.78 264.792 2519.44 276.813 2488.04C277.803 2485.45 278.901 2481.54 279.252 2479.34C279.604 2477.14 280.698 2473.76 281.684 2471.83C282.67 2469.89 283.976 2466.26 284.585 2463.76C285.194 2461.26 287.106 2456.64 288.837 2453.5C290.566 2450.37 292.64 2445.55 293.448 2442.79C294.255 2440.04 296.237 2435.48 297.854 2432.67C304.243 2421.54 307.267 2415.64 312.551 2404.01C313.545 2401.82 314.726 2398.26 315.175 2396.09C315.625 2393.92 317.067 2389.64 318.381 2386.56C319.694 2383.49 320.779 2379.46 320.791 2377.61C320.803 2375.75 321.563 2373.24 322.48 2372.02C326.182 2367.08 326.52 2365.53 329.356 2340.46C331.943 2317.59 332.62 2285.09 330.633 2279.11C329.702 2276.31 329.016 2270.08 328.766 2262.16C328.509 2254.04 327.813 2247.84 326.787 2244.52C325.916 2241.7 325.145 2236.47 325.073 2232.88C324.989 2228.66 324.178 2224.26 322.772 2220.41C320.834 2215.1 320.728 2214.07 321.784 2210.87C322.619 2208.34 322.822 2203.53 322.474 2194.47C321.328 2164.71 323.303 2153.75 335.618 2121.59C336.694 2118.78 337.574 2115.79 337.574 2114.95C337.574 2114.11 338.264 2112.85 339.107 2112.15C339.951 2111.45 344.89 2105.22 350.085 2098.3C361.557 2083.02 364.743 2079.43 370.165 2075.71C372.469 2074.13 376.289 2071.12 378.652 2069.03C386.655 2061.95 390.431 2059.25 395.436 2057.03C398.181 2055.82 403.36 2053.03 406.945 2050.83C410.53 2048.64 416.187 2045.7 419.516 2044.3C422.845 2042.9 429.549 2040.08 434.415 2038.03C445.693 2033.28 456.298 2030.23 465.097 2029.21C468.913 2028.77 473.6 2027.99 475.511 2027.47C477.521 2026.93 484.854 2026.73 492.892 2027.01C505.708 2027.45 512.409 2028.43 529.071 2032.31C537.648 2034.3 541.908 2028.67 536.144 2022.96C533.816 2020.65 523.671 2016.16 515.425 2013.79C513.633 2013.27 510.281 2012.32 507.976 2011.66C497.965 2008.82 495.136 2007.58 486.669 2002.38C481.744 1999.35 474.278 1995.57 470.081 1993.97C465.882 1992.36 460.854 1989.77 458.907 1988.2C456.959 1986.63 453.123 1984.34 450.38 1983.11C447.638 1981.88 442.924 1979.19 439.905 1977.14C436.886 1975.09 430.749 1971.52 426.267 1969.2C421.786 1966.88 416.234 1963.7 413.929 1962.14C407.285 1957.64 389.465 1947.4 388.28 1947.4C387.686 1947.4 385.919 1946.18 384.351 1944.68C382.784 1943.18 374.192 1937.12 365.259 1931.21C356.327 1925.3 347.614 1919.15 345.898 1917.54C341.823 1913.74 336.016 1909.77 331.966 1908.02C330.186 1907.25 326.843 1904.87 324.538 1902.72C322.233 1900.58 318.881 1898.06 317.089 1897.12C315.296 1896.18 311.316 1892.92 308.243 1889.86C305.17 1886.81 300.277 1882.8 297.37 1880.94C294.463 1879.09 290.397 1875.58 288.337 1873.14C286.277 1870.7 282.37 1867.07 279.656 1865.07C276.942 1863.08 273.045 1859.46 270.996 1857.04C268.948 1854.62 266.057 1851.9 264.572 1850.99C263.087 1850.08 259.66 1847.33 256.955 1844.88C254.25 1842.43 251.169 1839.96 250.11 1839.39C249.05 1838.83 247.013 1836.31 245.581 1833.8C242.913 1829.13 231.634 1816.38 221.576 1806.68C218.466 1803.68 214.773 1798.95 213.372 1796.18C211.969 1793.41 207.705 1787.89 203.895 1783.91C199.24 1779.05 196.969 1775.96 196.969 1774.46C196.969 1771.06 192.019 1762.12 187.266 1756.93C184.917 1754.37 182.734 1751.43 182.412 1750.41C182.091 1749.39 180.058 1745.61 177.894 1742.03C175.729 1738.44 172.604 1732.36 170.948 1728.52C166.64 1718.53 162.87 1711.2 158.636 1704.61C156.38 1701.1 154.284 1696.21 153.247 1692.04C152.313 1688.28 150.459 1682.91 149.126 1680.09C147.795 1677.27 146.701 1673.7 146.696 1672.16C146.688 1669.63 144.233 1662.03 138.273 1646.09C137.124 1643.02 135.856 1639.04 135.455 1637.24C135.054 1635.45 134.08 1632.1 133.29 1629.79C132.501 1627.49 131.366 1622.46 130.77 1618.62C130.173 1614.77 129.054 1609.74 128.281 1607.44C126.336 1601.63 125.24 1596.06 124.432 1587.88C124.053 1584.04 123.001 1578.84 122.092 1576.32C120.891 1573 120.352 1568.18 120.112 1558.63C119.93 1551.41 119.295 1537.75 118.701 1528.27C118.179 1519.97 117.883 1515.51 117.771 1511.05C117.619 1505.04 117.799 1499.02 118.208 1483.56C118.499 1472.55 119.013 1462.91 119.35 1462.14C121.36 1457.55 122.918 1440.53 121.658 1436.92C120.84 1434.57 121.079 1433.03 123.062 1427.85C125.544 1421.38 128.064 1411.07 128.064 1407.39C128.064 1406.22 129.175 1402.66 130.532 1399.47C133.338 1392.89 134.44 1388.64 135.417 1380.64C135.806 1377.45 137.171 1373.1 138.6 1370.49C139.975 1367.98 141.1 1365.17 141.1 1364.23C141.1 1363.3 143.195 1357.44 145.756 1351.21C148.316 1344.98 150.411 1339.18 150.411 1338.32C150.411 1335.34 154.887 1325.35 158.114 1321.12C159.897 1318.78 162.33 1314.46 163.521 1311.5C164.712 1308.55 167.697 1303.04 170.154 1299.26C172.611 1295.48 174.622 1291.71 174.622 1290.88C174.622 1290.05 177.136 1285.74 180.209 1281.3C183.281 1276.86 185.796 1272.75 185.796 1272.18C185.796 1271.6 188.25 1267.48 191.249 1263.02C194.249 1258.55 197.849 1252.64 199.25 1249.87C200.75 1246.91 205.11 1241.5 209.859 1236.71C214.293 1232.24 221.407 1224.14 225.669 1218.71C229.931 1213.27 234.332 1208.09 235.451 1207.18C236.571 1206.28 238.949 1203.65 240.737 1201.35C245.113 1195.7 246.65 1194.25 254.255 1188.53C257.84 1185.83 262.577 1181.53 264.781 1178.97C266.986 1176.41 271.017 1172.89 273.741 1171.15C276.464 1169.4 280.103 1166.22 281.828 1164.07C283.553 1161.93 286.221 1159.53 287.757 1158.75C289.294 1157.97 292.53 1155.49 294.948 1153.24C297.367 1151 300.308 1148.79 301.486 1148.35C302.663 1147.9 308.183 1144.11 313.751 1139.93C323.158 1132.87 326.604 1130.65 336.064 1125.53C338.051 1124.45 342.87 1120.72 346.772 1117.24C353.487 1111.25 359.497 1107.27 361.828 1107.27C362.404 1107.27 369.744 1103.92 378.136 1099.82C386.529 1095.72 393.602 1092.37 393.854 1092.37C394.106 1092.37 396.905 1090.69 400.074 1088.65C403.244 1086.6 406.231 1084.92 406.714 1084.92C407.195 1084.92 408.828 1084.04 410.342 1082.96C413.158 1080.95 421.793 1077.47 423.947 1077.47C424.605 1077.47 428.64 1075.84 432.913 1073.84C437.186 1071.85 442.1 1069.92 443.834 1069.56C445.567 1069.19 449.499 1067.94 452.572 1066.77C455.645 1065.6 460.254 1064.11 462.815 1063.46C465.376 1062.8 470.662 1060.65 474.562 1058.69C478.463 1056.72 482.414 1055.11 483.342 1055.11C485.265 1055.11 489.556 1053.85 496.399 1051.27C498.994 1050.29 504.346 1048.93 508.294 1048.24C512.486 1047.51 517.791 1045.78 521.049 1044.07C524.88 1042.06 527.928 1041.14 530.784 1041.14C534.599 1041.14 544.045 1039.61 554.534 1037.29C558.653 1036.38 563.387 1035.44 582.094 1031.8C587.267 1030.79 593.059 1029.97 594.966 1029.97C596.874 1029.97 601.86 1029.16 606.048 1028.17C610.236 1027.18 618.691 1026.12 624.836 1025.82C630.982 1025.52 638.734 1024.84 642.063 1024.3C645.392 1023.77 655.448 1023 664.411 1022.59C673.373 1022.19 681.636 1021.54 682.772 1021.15C683.941 1020.76 686.166 1020.94 687.893 1021.58C689.722 1022.26 698.052 1022.87 708.641 1023.1C735.916 1023.71 742.425 1024.11 751.474 1025.73C756.083 1026.56 763.835 1027.64 768.7 1028.13C773.566 1028.62 780.27 1029.63 783.599 1030.37C786.928 1031.11 791.956 1031.95 794.773 1032.24C799.588 1032.73 806.402 1034.3 819.448 1037.93C822.521 1038.78 827.13 1039.84 829.691 1040.27C837.339 1041.57 845.518 1043.62 847.701 1044.79C848.827 1045.39 853.06 1046.26 857.105 1046.73C862.529 1047.34 866.186 1048.43 871.03 1050.87C874.643 1052.69 878.139 1054.18 878.8 1054.18C879.461 1054.18 881.587 1055.03 883.526 1056.07C887.766 1058.35 893.536 1060.28 898.597 1061.14C900.645 1061.48 903.927 1063.04 905.888 1064.6C907.85 1066.16 911.411 1067.97 913.803 1068.62C918.06 1069.78 928.433 1074.2 933.981 1077.22C935.517 1078.05 939.917 1080.28 943.758 1082.17C951.422 1085.93 970.136 1097.16 973.09 1099.76C974.114 1100.66 977.768 1102.51 981.209 1103.86C987.671 1106.39 990.969 1108.64 1007.45 1121.76C1010.06 1123.84 1015.52 1127.82 1019.59 1130.61C1023.65 1133.4 1031.38 1139.6 1036.76 1144.4C1042.14 1149.19 1048.66 1154.69 1051.25 1156.62C1053.84 1158.54 1057.87 1162.17 1060.19 1164.67C1062.52 1167.17 1065.98 1170.38 1067.88 1171.81C1069.77 1173.24 1073.09 1176.81 1075.24 1179.73C1077.39 1182.65 1080.21 1185.88 1081.51 1186.91C1084.56 1189.33 1088.65 1193.59 1091.57 1197.39C1092.85 1199.06 1095.92 1201.91 1098.39 1203.72C1100.87 1205.54 1103.83 1208.57 1104.98 1210.47C1108.3 1215.94 1112.53 1221.31 1119.19 1228.47C1122.59 1232.12 1127.59 1238.52 1130.31 1242.68C1133.03 1246.84 1137.02 1252.08 1139.18 1254.32C1141.34 1256.57 1143.93 1260.01 1144.94 1261.98C1145.94 1263.95 1148.22 1267.02 1150 1268.8C1153.79 1272.6 1156.98 1277.56 1156.99 1279.68C1156.99 1280.5 1158.27 1282.51 1159.84 1284.14C1163.94 1288.44 1172.46 1303.18 1174.36 1309.28C1175.26 1312.16 1177.16 1316.38 1178.6 1318.65C1180.03 1320.93 1181.2 1323.4 1181.2 1324.14C1181.2 1324.88 1183.24 1328.89 1185.73 1333.04C1189.91 1340.04 1191.77 1344.22 1196.09 1356.42C1196.99 1358.99 1198.57 1362.55 1199.59 1364.34C1200.61 1366.13 1201.97 1369.7 1202.61 1372.26C1203.25 1374.82 1205.23 1381.32 1207.01 1386.7C1208.78 1392.07 1210.83 1398.7 1211.55 1401.42C1212.28 1404.15 1214.13 1409.33 1215.66 1412.93C1217.45 1417.15 1218.45 1421.08 1218.45 1423.93C1218.45 1426.38 1219.14 1430.21 1219.98 1432.45C1220.82 1434.69 1221.84 1438.62 1222.25 1441.18C1223.08 1446.3 1224.29 1451.97 1225.93 1458.41C1228.19 1467.25 1230.65 1496.61 1230.56 1513.6C1230.48 1527.79 1230.51 1545.14 1230.62 1551.32C1230.67 1554.78 1230.25 1560.54 1229.67 1564.13C1228.12 1573.79 1226.86 1584.45 1226.09 1594.4C1225.58 1600.96 1224.84 1604.33 1223.2 1607.42C1220.95 1611.66 1219.8 1617.28 1218.59 1629.79C1218.13 1634.58 1217.13 1638.31 1215.39 1641.64C1214 1644.31 1212.86 1647.72 1212.86 1649.22C1212.86 1650.73 1211.61 1655.04 1210.07 1658.8C1208.54 1662.57 1207.28 1666.63 1207.28 1667.82C1207.28 1669.02 1206.02 1672.86 1204.48 1676.36C1202.95 1679.86 1201.69 1683.31 1201.69 1684.03C1201.69 1685.98 1198.12 1694.54 1189.33 1713.62C1175.69 1743.26 1172.73 1749.25 1169.01 1754.72C1167.03 1757.65 1164.58 1762.15 1163.56 1764.72C1162.55 1767.29 1158.63 1774.13 1154.86 1779.93C1151.09 1785.72 1146.61 1792.98 1144.91 1796.05C1143.22 1799.12 1140.21 1803.48 1138.24 1805.73C1136.26 1807.98 1134.65 1810.19 1134.65 1810.65C1134.65 1811.91 1125.26 1825.43 1121.9 1829.01C1120.27 1830.75 1117.68 1834.52 1116.14 1837.39C1114.6 1840.27 1111.16 1844.92 1108.5 1847.74C1105.84 1850.56 1102.58 1854.33 1101.26 1856.12C1099.93 1857.92 1095.27 1863.37 1090.89 1868.23C1086.52 1873.1 1080.55 1879.85 1077.63 1883.24C1071.84 1889.96 1057.36 1904.7 1050.72 1910.61C1048.43 1912.66 1045.35 1915.93 1043.89 1917.89C1042.42 1919.84 1039.96 1922.09 1038.4 1922.89C1036.85 1923.69 1033.47 1926.32 1030.88 1928.73C1028.28 1931.14 1022.75 1935.68 1018.59 1938.83C1014.42 1941.97 1010.43 1945.11 1009.73 1945.81C1009.03 1946.51 1005.32 1949.32 1001.48 1952.05C997.645 1954.78 993.878 1957.72 993.109 1958.58C992.341 1959.44 988.151 1962.69 983.798 1965.82C979.445 1968.94 974.207 1972.91 972.158 1974.65C970.11 1976.39 966.758 1979.03 964.709 1980.53C943.784 1995.8 950.016 2013.86 975.61 2012.13C986.136 2011.41 1001.07 2008.45 1009.19 2005.47C1011.36 2004.68 1016.06 2003.67 1019.65 2003.24C1023.23 2002.81 1028.68 2002 1031.75 2001.46C1034.83 2000.91 1039.43 2000.22 1042 1999.94C1046.29 1999.47 1065.82 1995.24 1074.59 1992.89C1076.63 1992.34 1081.74 1991.77 1085.94 1991.63C1090.13 1991.48 1094.95 1990.94 1096.65 1990.42C1098.34 1989.91 1103.5 1989.24 1108.11 1988.93C1116.34 1988.39 1132.95 1986.44 1144.89 1984.62C1148.22 1984.11 1156.18 1983.47 1162.58 1983.2C1168.98 1982.93 1176.73 1982.5 1179.81 1982.24C1198.61 1980.63 1243.55 1983.06 1262.21 1986.69C1265.03 1987.23 1269.85 1988.05 1272.92 1988.49C1289.48 1990.91 1301.5 1994.29 1319.48 2001.62C1322.04 2002.66 1326.02 2004.06 1328.33 2004.73C1334.91 2006.66 1346.87 2012.2 1352.99 2016.17C1356.07 2018.16 1361.42 2021.09 1364.87 2022.67C1368.32 2024.25 1372.51 2026.56 1374.18 2027.81C1375.85 2029.07 1379.33 2031.15 1381.93 2032.45C1384.52 2033.75 1387.23 2035.52 1387.95 2036.39C1388.67 2037.26 1392.23 2039.97 1395.86 2042.42C1399.49 2044.87 1403.52 2048.28 1404.83 2050C1406.15 2051.71 1410.09 2055.84 1413.61 2059.17C1429.82 2074.52 1437.35 2083.13 1441.4 2090.93C1444.88 2097.63 1449.51 2106.28 1451.09 2109.04C1456.94 2119.21 1458.72 2126.95 1459.31 2144.82C1459.61 2154.02 1459.76 2157.58 1458.53 2160.58C1457.72 2162.56 1456.32 2164.3 1453.96 2167.26C1443.65 2180.22 1439.66 2184.17 1434.48 2186.6C1431.66 2187.92 1428.35 2189.65 1427.11 2190.45C1425.88 2191.24 1422.11 2192.96 1418.73 2194.27C1412.63 2196.62 1412.59 2196.66 1412.06 2200.79C1410.72 2211.04 1406.99 2217.95 1400.06 2222.97C1394.14 2227.26 1386.58 2229.62 1378.78 2229.62C1373.16 2229.62 1371.83 2230.35 1374.19 2232.13C1385.79 2240.88 1440.07 2229.12 1456.62 2214.27C1459.04 2212.1 1462.72 2209.46 1464.8 2208.4C1473.24 2204.1 1487.55 2184.76 1487.55 2177.65C1487.55 2176.7 1488.66 2173.23 1490.02 2169.94C1496.11 2155.16 1496.18 2128.26 1490.16 2115.99C1488.78 2113.17 1487.02 2108.98 1486.26 2106.67C1483 2096.77 1471.54 2077.99 1463.81 2069.87C1461.38 2067.31 1458.34 2063.58 1457.06 2061.56C1452.22 2053.97 1431.87 2033.44 1424.66 2028.87C1421.61 2026.94 1417.37 2023.77 1415.25 2021.84C1413.12 2019.9 1407.71 2015.88 1403.23 2012.9C1398.75 2009.92 1392.36 2005.59 1389.03 2003.29C1378.34 1995.9 1372.98 1992.77 1366.97 1990.41C1364.41 1989.41 1359.47 1987.28 1356.01 1985.69C1352.54 1984.1 1349.44 1982.8 1349.14 1982.8C1348.83 1982.8 1346.07 1981.52 1343 1979.96C1337.34 1977.08 1321.24 1971.16 1315.29 1969.76C1313.5 1969.34 1310.56 1968.52 1308.77 1967.94C1305.75 1966.96 1303.25 1966.35 1293.41 1964.17C1288.16 1963 1282.85 1961.67 1278.51 1960.44C1272.09 1958.61 1264.95 1957.86 1225.9 1954.86C1217.16 1954.18 1213.58 1953.9 1210.01 1953.99C1207.34 1954.05 1204.66 1954.33 1199.83 1954.82C1194.45 1955.37 1189.32 1955.77 1188.42 1955.73C1182.54 1955.4 1173.69 1955.73 1164.44 1956.62C1158.55 1957.19 1146.82 1957.86 1138.37 1958.12C1129.92 1958.38 1122.38 1958.87 1121.61 1959.2C1120.84 1959.54 1117.7 1960.13 1114.63 1960.52C1111.55 1960.9 1107.15 1961.71 1104.85 1962.31C1102.54 1962.91 1097.31 1963.74 1093.21 1964.15C1089.11 1964.56 1084.29 1965.41 1082.5 1966.05C1079.16 1967.22 1073.02 1968.29 1061.55 1969.7C1050.18 1971.09 1043.07 1972.35 1038.27 1973.8C1035.71 1974.57 1030.47 1976.08 1026.63 1977.15C1022.79 1978.22 1016.92 1979.91 1013.59 1980.91C1010.27 1981.91 1005.45 1983.19 1002.89 1983.75C1000.33 1984.32 995.003 1985.65 991.059 1986.7C974.998 1991 979.428 1985.12 1001.02 1973.49C1005.12 1971.28 1009.94 1968.35 1011.73 1966.98C1013.53 1965.62 1017.92 1962.55 1021.51 1960.16C1025.09 1957.78 1029.08 1954.86 1030.36 1953.68C1031.64 1952.5 1036.25 1948.84 1040.6 1945.55C1044.95 1942.26 1049.91 1938 1051.61 1936.08C1053.31 1934.16 1056.48 1931.55 1058.65 1930.28C1060.81 1929.01 1064.26 1926.16 1066.3 1923.95C1068.34 1921.74 1071.87 1918.46 1074.16 1916.67C1078.2 1913.49 1087.48 1904.39 1093.3 1897.89C1094.89 1896.12 1097.21 1893.85 1098.45 1892.86C1099.69 1891.86 1101.73 1889.59 1102.97 1887.79C1104.22 1886 1106.31 1883.49 1107.62 1882.2C1108.93 1880.92 1111.46 1877.99 1113.23 1875.68C1115.01 1873.38 1117.96 1870.03 1119.79 1868.23C1121.61 1866.44 1124.91 1862.31 1127.12 1859.05C1129.32 1855.8 1133.2 1851.01 1135.74 1848.42C1138.28 1845.82 1141.13 1842.2 1142.07 1840.37C1143.02 1838.53 1144.62 1836.16 1145.63 1835.09C1146.63 1834.03 1148.51 1831.52 1149.79 1829.51C1151.07 1827.5 1153.24 1824.6 1154.61 1823.06C1155.98 1821.52 1157.98 1818.59 1159.04 1816.54C1161.06 1812.65 1166.21 1804.77 1167.25 1803.97C1168.38 1803.1 1174.62 1792.86 1177.5 1787.16C1179.07 1784.05 1181.76 1779.54 1183.47 1777.13C1190.3 1767.56 1213.52 1720.13 1217.53 1707.57C1218.19 1705.52 1220.38 1700.07 1222.41 1695.46C1224.44 1690.85 1227.04 1684.35 1228.19 1681.02C1229.33 1677.69 1230.94 1673.08 1231.75 1670.77C1232.57 1668.47 1233.73 1664.7 1234.33 1662.39C1234.94 1660.09 1236.09 1656.52 1236.89 1654.48C1237.69 1652.43 1238.63 1647.82 1238.97 1644.23C1239.31 1640.64 1240.54 1635.2 1241.69 1632.12C1245.08 1623.11 1246.38 1617.08 1246.38 1610.41C1246.38 1606.47 1247.08 1602.26 1248.25 1599.06C1249.31 1596.14 1250.11 1591.64 1250.11 1588.53C1250.11 1585.54 1250.52 1582.33 1251.02 1581.39C1251.53 1580.45 1252.15 1573.46 1252.41 1565.85C1252.67 1558.24 1253.39 1550.34 1254.01 1548.29C1255.7 1542.73 1254.99 1488.74 1253.17 1484.49C1252.53 1483.01 1251.62 1474.86 1250.15 1457.48C1249.65 1451.59 1248.78 1444.68 1248.22 1442.11C1247.66 1439.55 1246.84 1434.52 1246.4 1430.94C1245.96 1427.35 1244.52 1421.57 1243.2 1418.09C1241.88 1414.61 1240.8 1410.05 1240.8 1407.95C1240.8 1405.86 1240.35 1402.42 1239.8 1400.31C1236.02 1385.85 1231.15 1371.53 1226.7 1361.76C1225.24 1358.54 1224.04 1354.93 1224.04 1353.73C1224.04 1352.52 1221.37 1346.13 1218.11 1339.52C1214.85 1332.91 1211.52 1325.21 1210.7 1322.41C1209.88 1319.6 1207.94 1315.3 1206.38 1312.84C1204.82 1310.39 1202.45 1306.2 1201.12 1303.53C1199.78 1300.86 1197.13 1296.58 1195.21 1294.02C1193.3 1291.46 1190.86 1287.48 1189.79 1285.17C1188.71 1282.87 1187.21 1279.93 1186.46 1278.65C1185.7 1277.37 1184.59 1274.98 1183.98 1273.33C1183.37 1271.69 1181.65 1269.06 1180.15 1267.49C1176.93 1264.12 1173.76 1259.12 1173.76 1257.4C1173.75 1256.23 1168.54 1247.96 1167.18 1246.98C1166.83 1246.73 1163.94 1242.16 1160.76 1236.83C1157.59 1231.5 1153.42 1225.63 1151.51 1223.79C1149.6 1221.95 1145.37 1216.47 1142.11 1211.62C1138.85 1206.77 1133.42 1200.06 1130.04 1196.72C1126.66 1193.37 1122.89 1189.17 1121.67 1187.37C1120.44 1185.58 1116.26 1180.75 1112.37 1176.63C1108.49 1172.52 1103.85 1167.48 1102.05 1165.44C1100.26 1163.4 1096.87 1160.28 1094.51 1158.51C1092.15 1156.74 1089.01 1153.66 1087.53 1151.68C1086.04 1149.69 1082.75 1146.33 1080.2 1144.2C1077.66 1142.08 1072.8 1137.61 1069.42 1134.28C1066.04 1130.95 1059.78 1125.51 1055.53 1122.18C1051.27 1118.85 1043.52 1112.55 1038.3 1108.19C1033.09 1103.83 1026.33 1098.67 1023.3 1096.72C1020.27 1094.77 1014.43 1091.04 1010.34 1088.43C1006.24 1085.81 1000.52 1081.5 997.631 1078.85C994.741 1076.2 989.503 1072.54 985.992 1070.73C970.338 1062.67 962.873 1058.66 960.619 1057.12C955.662 1053.72 921.711 1037.55 917.22 1036.45C914.659 1035.81 910.679 1034.15 908.374 1032.74C906.069 1031.33 902.508 1029.65 900.459 1029.01C898.411 1028.37 894.64 1027.11 892.079 1026.22C889.518 1025.33 885.642 1024.13 883.466 1023.56C873.104 1020.83 871.268 1020.19 866.719 1017.72C864.038 1016.26 860.825 1015.06 859.58 1015.06C858.334 1015.06 855.359 1014.23 852.97 1013.2C850.581 1012.18 847.747 1011.34 846.674 1011.34C844.675 1011.34 840.937 1010.27 834.347 1007.83C828.154 1005.53 824.415 1004.64 817.586 1003.87C809.939 1003.01 804.24 1001.78 798.472 999.776C796.182 998.979 791.793 998.314 788.72 998.299C785.647 998.284 781.248 997.577 778.943 996.727C776.638 995.878 770.353 994.841 764.976 994.422C759.598 994.004 750.589 993.236 744.956 992.714C739.322 992.192 730.871 991.455 726.174 991.074ZM610.404 1213.43C601.742 1212.29 595.589 1211.05 594.839 1210.3C593.903 1209.37 558.906 1210.28 551.741 1211.43C542.338 1212.94 537.663 1213.99 533.117 1215.64C530.813 1216.47 527.88 1217.16 526.599 1217.16C523.966 1217.17 512.157 1221.51 503.786 1225.54C500.713 1227.02 497.151 1228.46 495.871 1228.72C494.591 1228.99 491.083 1230.7 488.076 1232.51C485.07 1234.32 482.113 1235.81 481.508 1235.81C480.902 1235.81 478.404 1237.08 475.957 1238.63C473.511 1240.18 467.998 1243.16 463.705 1245.25C459.413 1247.34 454.621 1250.27 453.057 1251.76C451.492 1253.26 448.858 1255.31 447.202 1256.31C433.022 1264.93 399.236 1302.67 394.456 1315.23C394.021 1316.37 391.591 1320.32 389.055 1324C385.915 1328.55 383.642 1333.3 381.924 1338.9C380.537 1343.41 378.969 1348.37 378.441 1349.9C377.912 1351.44 376.402 1355.84 375.086 1359.68C373.769 1363.53 372.124 1368.05 371.429 1369.73C370.734 1371.41 370.165 1373.93 370.165 1375.34C370.165 1376.74 369.318 1380.94 368.283 1384.68C367.248 1388.41 366.648 1391.87 366.95 1392.35C367.251 1392.84 367.068 1395.44 366.542 1398.12C364.918 1406.4 367.403 1442.72 370.158 1450.96C370.757 1452.76 372.015 1456.95 372.952 1460.28C377.614 1476.84 386.797 1496.81 393.162 1504.23C395.11 1506.5 398.159 1510.22 399.938 1512.49C406.143 1520.42 424.408 1537.53 429.611 1540.29C430.972 1541.02 434.182 1543.17 436.743 1545.08C442.072 1549.06 454.083 1555.28 456.44 1555.28C459.062 1555.28 464.494 1557.38 467.53 1559.57C471.418 1562.38 476.943 1564.59 480.041 1564.59C481.453 1564.59 484.23 1565.28 486.213 1566.12C488.197 1566.96 491.285 1568.07 493.078 1568.58C500.824 1570.77 530.446 1572.15 538.026 1570.66C540.208 1570.23 542.565 1570.4 544.244 1571.09C546.523 1572.04 547.811 1571.91 552.433 1570.27C555.449 1569.2 560.139 1568.32 562.854 1568.32C565.569 1568.32 570.361 1567.52 573.501 1566.53C576.641 1565.55 583.258 1563.46 588.207 1561.88C593.156 1560.3 597.974 1559 598.915 1558.99C599.856 1558.99 602.512 1557.9 604.817 1556.58C607.121 1555.26 610.892 1553.54 613.197 1552.76C615.502 1551.97 618.435 1550.61 619.715 1549.74C620.995 1548.86 623.745 1547.47 625.825 1546.66C627.906 1545.85 633.562 1542.49 638.396 1539.19C643.23 1535.89 649.489 1532.03 652.306 1530.62C655.122 1529.2 659.575 1526.1 662.2 1523.73C664.826 1521.36 670.273 1516.49 674.305 1512.91C678.338 1509.32 683.313 1504.56 685.362 1502.33C687.41 1500.1 691.391 1495.87 694.208 1492.95C699.665 1487.28 707.244 1477.63 707.244 1476.35C707.244 1475.93 709.414 1472.45 712.067 1468.63C717.138 1461.32 722.906 1450.26 724.923 1443.98C725.581 1441.93 727.673 1436.9 729.571 1432.8C731.47 1428.7 733.489 1423.46 734.058 1421.16C734.626 1418.85 735.781 1414.24 736.626 1410.91C737.47 1407.58 738.252 1402.97 738.363 1400.67C738.475 1398.36 739.35 1394.17 740.309 1391.35C743.163 1382.97 741.825 1349.09 738.305 1340.59C737.243 1338.03 736.114 1333.63 735.794 1330.81C734.815 1322.16 724.116 1297.3 717.552 1288.43C715.656 1285.87 712.179 1280.78 709.824 1277.12C703.885 1267.88 677.731 1242.2 671.734 1239.71C670.112 1239.03 667.486 1237.5 665.899 1236.29C664.312 1235.09 658.824 1232.16 653.702 1229.78C648.581 1227.4 641.039 1223.79 636.942 1221.76C628.313 1217.48 618.999 1214.55 610.404 1213.43ZM516.71 1231.88C524.01 1230.27 529.885 1229.18 536.376 1228.21C543.854 1227.1 580.858 1226.12 581.753 1227.02C582.079 1227.35 584.993 1228.01 588.228 1228.48C598.986 1230.08 603.39 1230.92 606.679 1232.03C608.471 1232.63 611.823 1233.68 614.128 1234.36C616.433 1235.04 620.617 1236.48 623.427 1237.57C626.236 1238.65 629.492 1239.53 630.664 1239.53C633.325 1239.53 644.235 1244.43 648.051 1247.33C649.623 1248.53 652.646 1250.4 654.769 1251.48C656.892 1252.56 659.197 1254.01 659.891 1254.7C660.585 1255.39 662.866 1257.2 664.961 1258.71C672.673 1264.29 683.268 1273.79 687.352 1278.79C700.241 1294.55 708.372 1307.85 711.738 1318.7C712.294 1320.5 713.869 1325.32 715.237 1329.41C716.606 1333.51 718.061 1339.8 718.473 1343.39C718.884 1346.97 719.712 1352.42 720.312 1355.49C722.358 1365.98 721.213 1391.65 718.346 1399.54C717.361 1402.25 716.555 1405.5 716.555 1406.78C716.555 1408.05 715.34 1412.12 713.855 1415.82C712.37 1419.53 710.617 1425.01 709.959 1428C709.303 1431 708.017 1434.4 707.101 1435.56C706.186 1436.73 703.388 1441.63 700.883 1446.47C695.676 1456.51 690.937 1463.57 685.346 1469.59C683.207 1471.9 680.47 1475.46 679.266 1477.51C675.328 1484.21 659.545 1498.98 646.719 1507.96C644.414 1509.57 640.224 1512.84 637.407 1515.22C634.59 1517.6 629.078 1520.94 625.157 1522.64C621.237 1524.34 616.627 1526.93 614.914 1528.4C613.202 1529.86 611.26 1531.06 610.599 1531.06C609.939 1531.06 607.755 1531.9 605.748 1532.93C603.74 1533.95 600.917 1534.79 599.474 1534.79C598.03 1534.79 593.718 1536.31 589.892 1538.18C583.161 1541.45 580.177 1542.4 571.295 1544.08C568.99 1544.52 565.429 1545.37 563.38 1545.96C549.934 1549.88 514.44 1549.87 501.924 1545.95C499.875 1545.31 495.527 1544.59 492.263 1544.36C488.726 1544.11 485.15 1543.22 483.417 1542.16C481.624 1541.07 478.789 1540.38 476.033 1540.38C472.379 1540.38 470.587 1539.72 466.256 1536.78C463.339 1534.8 458.229 1531.81 454.9 1530.14C441.795 1523.57 417.497 1502.64 413.257 1494.27C412.478 1492.74 409.797 1488.45 407.298 1484.76C404.799 1481.06 402.755 1477.79 402.755 1477.49C402.755 1477.19 401.079 1473.59 399.031 1469.48C396.982 1465.37 395.306 1461.47 395.306 1460.8C395.306 1460.14 394.518 1457.55 393.555 1455.05C391.249 1449.05 388.172 1435.36 387.302 1427.21C386.482 1419.55 386.702 1410.5 388.217 1389.49C388.663 1383.3 390.462 1373.9 392.315 1368.07C392.885 1366.27 394.051 1362.08 394.905 1358.75C395.759 1355.42 398.248 1349.14 400.436 1344.78C402.623 1340.43 405.309 1334.29 406.403 1331.14C408.161 1326.09 415.993 1312.94 419.275 1309.54C419.935 1308.86 421.619 1306.76 423.016 1304.88C424.414 1303.01 425.785 1301.26 426.061 1301.01C426.338 1300.75 427.514 1299.28 428.674 1297.75C430.834 1294.89 443.17 1281.28 447.577 1276.9C453.466 1271.04 458.213 1267.12 462.389 1264.66C464.855 1263.2 468.522 1260.41 470.537 1258.46C472.552 1256.5 476.979 1253.28 480.374 1251.29C483.769 1249.3 487.702 1246.68 489.114 1245.47C490.525 1244.25 492.309 1243.25 493.078 1243.24C494.379 1243.23 496.631 1242.06 508.33 1235.33C510.829 1233.89 514.6 1232.34 516.71 1231.88ZM939.523 1245.12C936.226 1245.12 931.931 1244.1 927.463 1242.24C925.132 1241.28 902.035 1241.87 892.079 1243.15C873.697 1245.51 872.542 1245.81 855.641 1252.35C850.315 1254.41 843.011 1259.13 839.468 1262.8C838.188 1264.13 835.674 1266.23 833.881 1267.47C829.452 1270.52 827.201 1273.18 827.798 1274.64C828.071 1275.31 828.533 1276.44 828.823 1277.16C829.125 1277.9 828.018 1279.8 826.248 1281.59C824.539 1283.3 822.104 1286.17 820.834 1287.97C819.565 1289.76 816.935 1292.87 814.989 1294.87C813.044 1296.88 809.934 1301.28 808.078 1304.65C806.222 1308.03 803.308 1312.73 801.601 1315.1C799.894 1317.48 798.497 1319.94 798.497 1320.57C798.497 1321.21 797.277 1324.08 795.786 1326.97C791.475 1335.3 787.323 1344.45 787.323 1345.62C787.323 1346.22 786.205 1349.31 784.839 1352.49C783.473 1355.68 782.051 1360.17 781.68 1362.48C780.962 1366.94 778.843 1374.98 776.453 1382.32C775.516 1385.2 775.211 1388.14 775.599 1390.56C775.931 1392.64 775.8 1395.66 775.308 1397.27C772.146 1407.64 772.079 1408.14 773.234 1412.65C774.101 1416.03 774.117 1417.74 773.299 1419.82C768.787 1431.32 774.397 1476.06 783.567 1501.72C785.214 1506.33 786.94 1511.36 787.401 1512.9C789.14 1518.7 804.427 1541.6 810.885 1548.07C813.048 1550.24 815.846 1553.49 817.103 1555.28C820.446 1560.05 826.17 1565.35 830.18 1567.4C832.109 1568.38 834.255 1569.76 834.949 1570.45C840.101 1575.59 852.495 1582.34 862.599 1585.51C875.004 1589.4 877.258 1590.16 883.685 1592.62C886.695 1593.77 890.68 1594.4 895.015 1594.4C899.628 1594.4 903.046 1594.98 906.037 1596.26C909.183 1597.61 910.842 1597.87 912.081 1597.2C913.021 1596.7 918.542 1596.35 924.351 1596.41C932.442 1596.51 936.002 1596.14 939.568 1594.85C942.129 1593.93 946.633 1592.82 949.578 1592.39C958.982 1591.01 962.754 1590.51 966.404 1589.55C969.501 1588.73 972.51 1587.57 978.8 1585.26C987.402 1582.09 989.633 1581 993.575 1578.03C995.111 1576.87 1000.25 1573.97 1004.99 1571.59C1009.72 1569.2 1014.12 1566.74 1014.76 1566.12C1015.4 1565.51 1017.39 1563.99 1019.18 1562.75C1020.97 1561.51 1022.65 1560.26 1022.91 1559.98C1023.16 1559.69 1024.96 1558.27 1026.91 1556.82C1028.85 1555.37 1031.36 1552.79 1032.48 1551.08C1033.6 1549.37 1035.72 1547.26 1037.19 1546.39C1041.82 1543.66 1055.11 1527.71 1057.73 1521.74C1058.29 1520.46 1061.17 1515.39 1064.11 1510.48C1067.06 1505.58 1069.46 1501.13 1069.46 1500.61C1069.46 1500.08 1070.72 1496.6 1072.26 1492.88C1073.79 1489.15 1075.05 1485.3 1075.05 1484.32C1075.05 1483.34 1075.75 1481.2 1076.61 1479.56C1078.8 1475.38 1079.8 1469.81 1080.5 1457.95C1080.83 1452.31 1081.46 1447.15 1081.9 1446.47C1084.64 1442.23 1083.48 1409.46 1080.33 1402.18C1079.48 1400.2 1078.78 1396.59 1078.78 1394.15C1078.78 1387.22 1074.74 1373.04 1070.04 1363.42C1067.67 1358.6 1065.74 1353.84 1065.74 1352.84C1065.74 1350.6 1055.59 1332.8 1046.74 1319.51C1045.25 1317.27 1042.22 1312.72 1039.99 1309.39C1031.99 1297.41 1014.42 1280.56 1002.45 1273.42C999.619 1271.72 995.897 1269.08 994.183 1267.54C990.614 1264.34 969.573 1253.53 963.312 1251.68C961.008 1251 955.511 1249.25 951.097 1247.78C946.683 1246.32 941.475 1245.12 939.523 1245.12ZM862.587 1265.87C866.22 1262.34 871.707 1260.77 883.233 1259.96C888.61 1259.58 894.27 1258.98 895.809 1258.64C897.348 1258.3 898.953 1258.36 899.374 1258.79C899.796 1259.21 904.193 1259.86 909.146 1260.22C927.938 1261.61 934.917 1262.88 944.5 1266.64C945.676 1267.1 947.352 1267.48 948.225 1267.47C950.118 1267.47 972.039 1277.3 975.543 1279.73C976.892 1280.66 979.871 1282.22 982.162 1283.21C986.277 1284.97 989.827 1287.79 1003.22 1299.92C1006.98 1303.34 1010.33 1306.34 1010.66 1306.59C1011 1306.85 1013.56 1309.78 1016.37 1313.11C1019.18 1316.44 1023.27 1321.1 1025.47 1323.46C1032.74 1331.25 1047.63 1359.1 1050.06 1369.46C1050.66 1372.03 1052.09 1377.06 1053.24 1380.64C1054.39 1384.23 1055.64 1388.84 1056.02 1390.89C1056.41 1392.94 1057.31 1396.04 1058.04 1397.78C1058.77 1399.52 1059.49 1404.34 1059.65 1408.49C1059.81 1412.64 1060.46 1417.17 1061.11 1418.55C1061.99 1420.46 1062.02 1421.71 1061.24 1423.68C1060.21 1426.27 1060.42 1438.75 1061.61 1445.58C1062.03 1448.01 1061.65 1450.53 1060.35 1453.97C1059.32 1456.67 1057.58 1462.65 1056.48 1467.26C1054.39 1476.04 1049.8 1488.58 1046.94 1493.34C1046.02 1494.88 1045.26 1496.76 1045.26 1497.51C1045.25 1499.84 1038.8 1509.63 1030.82 1519.42C1026.64 1524.54 1022.46 1529.91 1021.53 1531.34C1020.6 1532.78 1018.75 1534.54 1017.41 1535.25C1016.08 1535.96 1013.73 1537.65 1012.2 1539.01C1004.08 1546.18 984.845 1558.23 979.608 1559.43C978.071 1559.78 974.51 1561.04 971.693 1562.22C968.876 1563.41 964.686 1564.89 962.381 1565.51C960.077 1566.14 956.305 1567.4 954.001 1568.32C944.933 1571.94 942.844 1572.16 920.479 1571.78C907.834 1571.56 896.631 1570.93 893.941 1570.27C891.38 1569.65 886.981 1568.84 884.164 1568.47C875.933 1567.4 850.409 1553.94 842.772 1546.64C841.222 1545.15 837.8 1542.65 835.166 1541.08C832.534 1539.5 829.723 1537.1 828.919 1535.74C828.116 1534.38 825.743 1531.41 823.647 1529.14C819.542 1524.69 803.364 1493.91 802.138 1488.22C801.752 1486.43 800.356 1482.11 799.036 1478.63C797.715 1475.15 796.635 1470.66 796.635 1468.66C796.635 1466.66 795.946 1462.59 795.104 1459.62C791.139 1445.63 790.893 1402.98 794.708 1391C795.341 1389.01 795.648 1386.58 795.391 1385.6C795.134 1384.62 795.678 1381.42 796.6 1378.5C799.639 1368.86 803.275 1356.53 805.134 1349.56C806.14 1345.78 807.992 1340.66 809.25 1338.18C810.506 1335.7 811.534 1333.04 811.534 1332.27C811.534 1331.5 812.791 1328.89 814.327 1326.47C815.864 1324.05 817.121 1321.49 817.121 1320.78C817.121 1319.58 822.302 1311.33 823.693 1310.32C824.985 1309.38 828.288 1303.29 828.291 1301.84C828.293 1301.02 832.096 1296.41 836.744 1291.59C841.391 1286.78 845.797 1281.48 846.533 1279.82C847.271 1278.15 848.225 1276.79 848.654 1276.79C849.083 1276.79 850.65 1275.63 852.134 1274.22C853.618 1272.8 856.299 1270.62 858.091 1269.36C859.884 1268.1 861.907 1266.53 862.587 1265.87ZM576.35 1293.49C574.85 1293.45 572.785 1293.06 571.76 1292.62C564.96 1289.7 562.42 1291.78 564.88 1298.26C568.607 1308.07 564.7 1331.91 557.873 1341C556.549 1342.77 555.46 1345.07 555.453 1346.13C555.408 1353.41 536.111 1375.24 524.271 1381.4C522.735 1382.2 519.802 1384.33 517.753 1386.13C509.58 1393.33 488.258 1396.17 471.195 1392.33C463.011 1390.48 462.85 1390.52 462.498 1394.15C461.917 1400.12 466.534 1418.21 471.245 1428.43C491.528 1472.43 542.826 1494.78 588.342 1479.47C664.631 1453.79 677.973 1351.99 610.867 1307.59C600.509 1300.74 583.17 1293.65 576.35 1293.49ZM951.509 1489.98C1021.12 1455.3 1015.19 1354.77 941.953 1327.93C932.681 1324.54 931.662 1324.7 930.023 1329.88C928.543 1334.55 926.812 1339.8 924.562 1346.41C919.925 1360.05 912.522 1371.33 903.003 1379.28C900.26 1381.56 896.261 1384.99 894.116 1386.89C891.972 1388.79 887.912 1391.27 885.095 1392.39C882.278 1393.52 878.717 1395.35 877.18 1396.48C863.625 1406.37 844.392 1404.53 831.401 1392.1C826.356 1387.27 825.294 1390.52 825.253 1410.91C825.197 1438.88 835.921 1462.31 856.229 1478.58C884.655 1501.36 920.144 1505.6 951.509 1489.98ZM346.679 1547.23C348.87 1546.49 352.222 1544.81 354.128 1543.51L357.594 1541.15L353.87 1541.83C351.821 1542.2 347.84 1543.53 345.024 1544.78C342.207 1546.03 336.76 1548.31 332.918 1549.84C321.64 1554.33 306.846 1562 306.846 1563.35C306.846 1565.51 308.103 1565.02 332.918 1553.24C338.296 1550.68 344.488 1547.98 346.679 1547.23ZM398.332 1548.91C400.899 1547.8 402.755 1546.39 402.755 1545.55C402.755 1541.53 350.048 1563.89 329.427 1576.66C315.782 1585.11 336.689 1578.87 355.732 1568.81C359.317 1566.92 364.345 1564.53 366.906 1563.51C369.466 1562.48 376.59 1559.21 382.735 1556.23C388.881 1553.25 395.9 1549.95 398.332 1548.91ZM394.321 1573.83C412.246 1565.36 416.126 1563.3 416.517 1562.03C417.268 1559.61 407.445 1562.31 395.772 1567.73C374.081 1577.81 369.234 1580.56 369.234 1582.77C369.234 1585.44 371.383 1584.68 394.321 1573.83ZM435.943 1572.05C437.225 1572.05 444.657 1568.39 444.657 1567.76C444.657 1567.15 439.455 1568.09 436.743 1569.18C435.718 1569.59 433.204 1570.44 431.156 1571.06C429.107 1571.68 424.288 1573.69 420.447 1575.53C416.606 1577.36 411.25 1579.84 408.545 1581.04C403.909 1583.1 401.767 1585.34 403.13 1586.7C403.463 1587.03 407.391 1585.59 411.858 1583.48C416.326 1581.38 422.705 1578.52 426.034 1577.13C429.363 1575.74 432.748 1574.02 433.557 1573.32C434.365 1572.62 435.439 1572.05 435.943 1572.05ZM1028.87 1590.3C1030.4 1590.89 1033.15 1589.26 1033.15 1587.77C1033.15 1586.42 1029.74 1586.84 1028.5 1588.33C1027.57 1589.46 1027.64 1589.83 1028.87 1590.3ZM1019.83 1593.45C1020.95 1593.46 1022.12 1593.05 1022.44 1592.54C1023.17 1591.35 1021.02 1591.35 1019.18 1592.54C1018.05 1593.27 1018.17 1593.44 1019.83 1593.45ZM1060.25 1602.77C1070.2 1599.49 1075.26 1597.11 1075.8 1595.44C1076.12 1594.47 1075.56 1594.29 1073.54 1594.7C1072.07 1595 1068.98 1595.63 1066.67 1596.09C1062.59 1596.91 1060.52 1597.62 1049.91 1601.82C1047.09 1602.94 1042.07 1604.82 1038.74 1606.01C1031.17 1608.71 1017.76 1614.47 1014.06 1616.62C1012.52 1617.51 1008.64 1619.22 1005.43 1620.41C999.13 1622.75 997.907 1623.79 999.521 1625.4C1000.28 1626.16 1002.61 1625.63 1008.24 1623.41C1012.46 1621.75 1018.23 1619.51 1021.04 1618.43C1023.86 1617.35 1032.03 1613.98 1039.2 1610.94C1046.37 1607.89 1055.84 1604.22 1060.25 1602.77ZM1003.35 1599.16C1003.35 1600.35 1004.17 1600.14 1009.4 1597.68C1011.97 1596.47 1013.34 1595.45 1012.45 1595.41C1010.23 1595.3 1003.35 1598.14 1003.35 1599.16ZM1068.19 1621.84C1077.79 1618.69 1080.64 1617.39 1080.64 1616.16C1080.64 1613.48 1076.17 1614.39 1059.22 1620.5C1053.84 1622.45 1048.4 1624.34 1047.12 1624.7C1039.47 1626.9 1026.63 1634.28 1026.63 1636.47C1026.63 1638.08 1030.23 1637.04 1040.6 1632.47C1046.49 1629.86 1053.27 1627.18 1055.66 1626.51C1058.05 1625.83 1060.83 1624.84 1061.83 1624.3C1062.83 1623.77 1065.7 1622.66 1068.19 1621.84ZM544.479 1637.23C543.096 1637.22 541.335 1636.81 540.567 1636.31C538.16 1634.76 520.219 1636.55 514.307 1638.94C484.681 1650.91 491.388 1700.24 527.149 1733.41C538.343 1743.8 544.853 1749.18 548.481 1751.07C550.53 1752.14 555.139 1754.96 558.724 1757.34C564.445 1761.14 584.227 1771.37 585.861 1771.37C586.192 1771.37 589.513 1772.83 593.24 1774.63C596.966 1776.42 600.625 1777.89 601.371 1777.89C602.117 1777.89 604.349 1778.58 606.333 1779.43C608.316 1780.28 611.718 1781.33 613.895 1781.76C619.14 1782.8 624.827 1784.07 629.958 1785.35C634.27 1786.43 639.568 1787.39 650.909 1789.14C671.965 1792.39 714.473 1791.44 730.988 1787.34C733.037 1786.83 737.646 1785.73 741.231 1784.88C744.816 1784.04 749.036 1782.96 750.609 1782.48C752.182 1782 754.363 1781.61 755.456 1781.61C758.981 1781.61 789.375 1769.27 800.825 1763.19C802.362 1762.38 805.504 1760.73 807.809 1759.54C817.244 1754.65 837.746 1738.9 842.378 1732.99C844.104 1730.79 846.432 1728.05 847.553 1726.91C851.89 1722.49 859.871 1705.91 860.328 1700.38C860.567 1697.5 861.418 1693.87 862.219 1692.32C869.836 1677.58 857.424 1672.43 828.294 1678.22C822.269 1679.42 814.367 1680.74 805.947 1681.96C792.623 1683.88 787.566 1684.7 782.668 1685.69C763.557 1689.59 707.54 1689.61 690.25 1685.74C684.044 1684.35 678.676 1683.2 673.257 1682.11C670.696 1681.6 666.715 1680.54 664.411 1679.77C662.106 1679 656.449 1677.11 651.84 1675.59C638.926 1671.31 628.31 1667.29 620.646 1663.79C598.859 1653.83 570.675 1642.97 561.518 1641.01C559.469 1640.57 555.364 1639.55 552.393 1638.73C549.424 1637.91 545.862 1637.24 544.479 1637.23ZM1067.83 1644.65C1071.28 1644.6 1077.06 1642.01 1077.62 1640.27C1078.22 1638.42 1073.7 1638.88 1069.02 1641.16C1064.05 1643.57 1063.66 1644.71 1067.83 1644.65ZM562.742 1683.02C555.258 1674.8 542.109 1652.41 543.104 1649.59C543.56 1648.29 546.328 1648.21 549.878 1649.39C555.211 1651.16 562.661 1653.34 565.708 1654.02C572.416 1655.53 584.97 1660.36 607.61 1670.15C628.866 1679.34 639.789 1683.82 640.936 1683.81C641.596 1683.81 643.78 1684.65 645.787 1685.68C647.795 1686.7 650.314 1687.54 651.384 1687.54C652.454 1687.54 654.67 1688.24 656.31 1689.1C657.948 1689.96 660.965 1690.99 663.014 1691.38C665.062 1691.77 668.624 1692.56 670.929 1693.14C677.676 1694.81 683.866 1695.85 692.811 1696.81C697.42 1697.31 703.706 1698.19 706.778 1698.77C726.788 1702.53 778.175 1698.69 813.267 1690.82C828.574 1687.39 825.248 1693.26 805.122 1705.22C794.696 1711.41 783.236 1717.35 781.702 1717.35C781.145 1717.35 778.517 1718.34 775.859 1719.56C773.203 1720.77 769.143 1722.4 766.838 1723.17C764.533 1723.95 761.391 1725.02 759.854 1725.56C719.056 1739.91 663.357 1740.99 633.883 1728.01C632.202 1727.27 630.2 1726.66 629.435 1726.66C628.669 1726.66 625.552 1725.4 622.509 1723.87C619.465 1722.33 616.317 1721.07 615.515 1721.07C613.661 1721.07 608.982 1718.56 597.325 1711.29C587.036 1704.88 581.912 1701.22 575.828 1695.92C569.854 1690.73 568.857 1689.74 562.742 1683.02ZM750.543 2359.23C692.399 2309.58 664.323 2248.15 666.443 2175.21C666.798 2163 667.569 2162.31 672.584 2169.72C691.672 2197.93 721.056 2252.24 732.454 2280.38C736.19 2289.6 746.492 2314.11 755.35 2334.84C766.075 2359.94 770.862 2371.05 768.868 2372.45C767.269 2373.56 761.305 2368.42 750.543 2359.23Z" fill="black"/>
<path d="M410.251 2456.84C412.199 2452.96 413.932 2439.89 412.773 2437.82C410.89 2434.46 398.396 2441.51 395.225 2447.73C394.195 2449.74 391.326 2453.91 388.85 2456.99C381.254 2466.42 378.197 2479.09 382.431 2483.6C388.872 2490.46 402.338 2479.82 407.409 2463.87C408.06 2461.82 409.34 2458.66 410.251 2456.84Z" fill="#AC39B0"/>
<path d="M444.607 2325.55C449.868 2325.55 453.403 2318.84 451.198 2313.04C449.93 2309.7 446.996 2309.99 443.167 2313.82C438.325 2318.66 439.171 2325.55 444.607 2325.55Z" fill="#AC39B0"/>
<path d="M1037.81 2146.26C1045.35 2143.5 1044.69 2137.78 1036.67 2136.38C1030.16 2135.24 1013.74 2136.46 1008.01 2138.51C998.343 2141.97 997.674 2142.34 996.325 2144.95C992.099 2153.12 999.674 2159.2 1010.27 2156.14C1015.66 2154.59 1024.31 2151.6 1029.42 2149.53C1032.24 2148.39 1036.01 2146.92 1037.81 2146.26Z" fill="#AC39B0"/>
<path d="M1215.45 2127.11C1214.28 2127.08 1211.86 2126.5 1210.07 2125.83C1189.66 2118.1 1175.66 2132.68 1192.94 2143.67C1206.85 2152.51 1240.8 2154.17 1240.8 2146.01C1240.8 2141.82 1221.26 2127.26 1215.45 2127.11Z" fill="#AC39B0"/>
<path d="M1376.12 2207.27C1391.68 2207.27 1389.49 2194.7 1372.45 2186.34C1363.66 2182.02 1358.51 2181.93 1354.51 2186.02C1345.6 2195.14 1357.93 2207.27 1376.12 2207.27Z" fill="#AC39B0"/>
<path d="M738.433 1753.2C747.75 1756.93 763.433 1760.66 770.109 1762.05C758.619 1766.24 730.794 1775.09 711.415 1776.96C687.192 1779.28 665.298 1780.68 613.126 1767.18C571.388 1756.37 541.389 1733.8 531.606 1723.87H582.381L585.176 1715.95C597.754 1723.09 627.846 1738.67 647.597 1743.89C667.348 1749.11 701.478 1747.62 716.073 1746.22C719.645 1747 729.117 1749.48 738.433 1753.2Z" fill="#A6609A"/>
<path d="M199.923 1433.89C208.774 1400.36 219.488 1384.53 247.903 1343.55C260.015 1328.49 288.244 1295.21 304.268 1282.54C324.299 1266.7 348.522 1234.57 339.671 1215.01C330.821 1195.45 294.02 1199.64 255.822 1231.78C217.625 1263.91 185.948 1310.95 169.645 1368.69C153.341 1426.44 153.806 1526.57 169.645 1528.9C185.483 1531.22 191.073 1467.42 199.923 1433.89Z" fill="#F2E8FF"/>
<path fill-rule="evenodd" clip-rule="evenodd" d="M1610.27 2.14363C1604.09 3.80463 1415.56 8.86243 1191.3 13.389C508.252 27.1858 425.131 36.3511 347.592 106.405C311.74 138.794 287.492 191.789 281.267 251.345L276.681 295.182L232.576 304.968C179.053 316.842 107.132 349.995 68.4743 380.618C52.7629 393.061 31.0886 421.29 20.2926 443.355C-23.0784 531.993 5.73335 676.642 81.3876 750.122C134.791 801.995 207.737 808.766 490.109 788.063C762.208 768.109 942.119 761.742 1233.54 761.742C1563.82 761.742 1537.89 753.684 1499.22 844.283C1471 910.409 1424.41 977.297 1358.47 1046.31C1328.25 1077.94 1303.52 1105.99 1303.52 1108.61C1303.52 1119.15 1337.05 1112.37 1372.12 1094.76C1484.86 1038.13 1615.72 896.38 1647.71 796.226L1657.01 767.122L1938.52 773.78C2381.37 784.263 2516.57 782.841 2584.14 766.979C2686.25 743.007 2729.39 692.616 2739.15 585.916C2748.77 480.712 2728.9 413.158 2673.65 363.238C2630.22 324.01 2593.26 307.901 2499.57 287.363C2482.67 283.66 2479.11 277.959 2474.63 247.432C2468.72 207.074 2449.05 158.479 2424.9 124.556C2387.36 71.8381 2298.06 35.0343 2163.91 16.9729C2091.07 7.17151 1636.86 -4.99415 1610.27 2.14363ZM2145.25 32.3408C2291.02 49.3024 2371.5 80.1879 2410.63 134.208C2437.72 171.61 2463.17 237.586 2463.17 270.409C2463.17 293.753 2464.82 295.122 2502.45 303.105C2683.49 341.503 2752.26 444.051 2716.49 622.233C2705.28 678.041 2667.14 722.776 2614.68 741.638C2555.31 762.984 2421.49 769.164 2175.13 761.929C2051.68 758.3 1883.95 754.253 1802.39 752.928L1654.09 750.519L1632.43 801.187C1604.72 865.973 1574.12 910.177 1517.29 967.496C1450.74 1034.63 1347.24 1107.24 1335.23 1095.24C1332.87 1092.86 1354.45 1066.53 1383.18 1036.7C1440.18 977.522 1470.41 936.221 1500.84 875.969C1519.47 839.068 1545.75 754.589 1540.3 749.127C1538.92 747.758 1452.25 744.541 1347.71 741.997C1141.19 736.962 856.993 746.449 521.689 769.568C177.639 793.293 139.744 789.612 84.7768 727.168C44.5032 681.408 22.3725 622.473 18.3324 550.22C15.437 498.414 17.2999 487.543 35.3831 450.575C67.2324 385.467 165.264 325.731 259.832 313.805L297.24 309.083L301.333 256.59C310.385 140.56 363.049 88.5229 498.578 61.7C649.318 31.862 1942.92 8.80257 2145.25 32.3408ZM645.031 165.056C644.979 170.203 642.839 182.825 640.273 193.113C637.018 206.184 638.021 209.566 643.587 204.336C655.722 192.941 663.256 155.703 653.426 155.703C648.869 155.703 645.091 159.916 645.031 165.056ZM531.123 195.717C503.389 205.167 478.423 215.185 475.632 217.968C465.719 227.882 478.774 230.822 498.833 223.198C510.04 218.941 521.794 217.055 524.966 219.016C528.138 220.976 531.295 245.405 531.984 273.312C533.525 335.846 539.839 372.68 549.019 372.68C555.506 372.68 552.259 290.461 543.498 232.775C540.071 210.269 541.658 208.302 570.05 199.795C586.66 194.819 600.246 187.913 600.246 184.449C600.246 174.722 585.814 177.079 531.123 195.717ZM2247.81 239.337C2239.38 297.225 2240.18 313.857 2250.9 303.143C2257.64 296.402 2267.94 239.09 2268.32 206.207C2268.9 156.923 2257.03 176.084 2247.81 239.337ZM1707.53 229.588C1707.53 264.454 1706.5 266.272 1684.15 270.738C1648.47 277.876 1647.68 277.367 1647.56 247.357C1647.49 231.93 1644.18 214.25 1640.19 208.077C1635.27 200.46 1632.91 223.759 1632.82 280.585C1632.76 328.462 1635.91 366.298 1640.19 368.939C1644.79 371.782 1647.67 359.445 1647.67 336.916C1647.67 304.901 1650.08 299.162 1666.73 291.583C1698.44 277.136 1707.48 280.555 1708.05 307.213C1708.34 320.591 1711.32 338.263 1714.68 346.493C1725.85 373.9 1732.17 325.447 1726.43 256.485C1720.76 188.362 1707.53 169.537 1707.53 229.588ZM434.034 204.703C429.785 208.952 432.179 261.588 440.222 340.882C442.414 362.49 447.838 380.162 452.275 380.162C457.871 380.162 458.776 354.387 455.245 296.125C450.501 218.125 444.875 193.861 434.034 204.703ZM1807.88 207.651C1795.17 210.688 1781.71 215.088 1777.95 217.422C1774.2 219.764 1771.12 254.809 1771.12 295.309C1771.12 368.041 1771.35 368.969 1789.72 371.558C1808.87 374.259 1857.16 352.786 1857.16 341.578C1857.16 332.741 1848.92 334.096 1827.23 346.493C1793.51 365.774 1782.34 361.195 1782.34 328.08C1782.34 299.828 1783.75 298.063 1812.27 290.379C1828.73 285.949 1842.2 278.856 1842.2 274.622C1842.2 270.192 1835.04 268.98 1825.36 271.764C1816.1 274.427 1802.63 278.243 1795.44 280.256C1780.58 284.401 1778.49 271.561 1789.36 242.965C1794.64 229.064 1803.86 223.25 1826.73 219.382C1843.42 216.562 1858.98 211.182 1861.3 207.426C1866.18 199.548 1841.34 199.652 1807.88 207.651ZM1931.54 211.609C1921.02 217.332 1908.66 230.231 1904.08 240.272C1892.17 266.429 1883.11 380.162 1892.94 380.162C1897.23 380.162 1903.01 366.695 1905.79 350.234C1911.67 315.436 1919.95 313.483 1968.33 335.435C1986.27 343.575 2004.14 350.234 2008.05 350.234C2021.16 350.234 2007.27 337.201 1980.73 324.609C1966.26 317.74 1954.5 309.757 1954.59 306.861C1954.68 303.966 1965.63 296.282 1978.91 289.788C1992.19 283.286 2007.74 268.374 2013.46 256.642C2023.21 236.636 2022.61 234.227 2003.69 217.953C1980.86 198.313 1959.44 196.428 1931.54 211.609ZM700.425 226.924C675.803 251.547 678.108 284.139 704.989 291.456C757.944 305.866 767.603 309.824 770.393 318.226C772.062 323.247 764.917 335.876 754.51 346.284C730.659 370.136 692.51 371.446 664.454 349.381C640.58 330.602 629.514 336.318 648.705 357.522C664.274 374.738 703.777 383.963 731.773 376.937C754.076 371.341 787.287 340.762 787.287 325.821C787.287 305.829 766.847 288.351 738.043 283.69C703.523 278.116 695.323 256.553 719.429 234.735C733.756 221.769 735.536 221.724 754.076 233.875C778.967 250.186 785.828 244.028 765.463 223.662C744.724 202.922 723.349 203.999 700.425 226.924ZM915.761 216.913C894.042 221.769 884.608 227.373 887.122 233.927C889.187 239.299 887.429 269.444 883.224 300.913C874.695 364.734 880.306 380.162 912.021 380.162C933.463 380.162 974.328 360.447 974.328 350.1C974.328 346.127 960.868 348.259 944.416 354.843C906.799 369.897 890.242 364.398 893.399 337.889C895.262 322.229 902.122 315.787 925.518 307.722C964.22 294.389 979.348 279.275 948.142 285.126C935.797 287.438 919.809 291.613 912.604 294.396C901.457 298.714 899.511 294.958 899.511 269.085C899.511 240.354 901.03 238.289 927.568 230.919C943.002 226.632 959.836 223.108 964.976 223.086C970.123 223.063 974.328 219.674 974.328 215.559C974.328 206.723 959.858 207.06 915.761 216.913ZM1023.93 224.911C1016.26 253.545 1018.56 395.126 1026.7 395.126C1031.23 395.126 1034.18 362.707 1034.18 312.824C1034.18 267.559 1037.14 230.523 1040.76 230.523C1050.72 230.523 1065.09 270.252 1070.5 312.765C1075.37 351.072 1088.29 366.687 1092.21 339.011C1099.26 289.114 1111.92 238.005 1117.21 238.005C1124.33 238.005 1135.71 278.378 1143.03 329.659C1145.82 349.202 1151.09 365.198 1154.74 365.198C1169.06 365.198 1159.27 291.74 1137.49 235.79C1127.13 209.199 1108.68 212.11 1099.67 241.746C1095.92 254.091 1091.14 269.242 1089.04 275.415C1086.77 282.104 1079.25 270.776 1070.41 247.357C1054.29 204.658 1032.22 193.996 1023.93 224.911ZM1198.13 220.078C1192.31 227.089 1187.92 246.617 1188.36 263.473C1189.54 308.096 1206.06 380.162 1215.1 380.162C1222.37 380.162 1218.75 342.079 1209.09 316.88C1206.79 310.894 1216.49 301.557 1233.78 293.095C1269.62 275.549 1284.76 248.315 1270.59 226.849C1257.38 206.843 1212.59 202.653 1198.13 220.078ZM1320.35 213.554C1284.28 216.801 1276.72 230.523 1311 230.523H1333.45V294.12C1333.45 329.098 1336.42 357.716 1340.05 357.716C1350.65 357.716 1355.1 320.269 1350.5 269.803L1346.25 223.041H1369.33C1382.02 223.041 1394.5 219.674 1397.04 215.559C1401.65 208.1 1385.59 207.68 1320.35 213.554ZM2072.26 213.232C2061.92 215.933 2059.15 224.829 2059.1 255.386C2059.07 276.687 2056.92 311.725 2054.34 333.243C2048.37 382.893 2060.06 389.305 2112.1 364.936C2160.36 342.326 2159.72 331.238 2111.26 350.346C2090.53 358.517 2072.02 365.198 2070.11 365.198C2068.2 365.198 2066.65 351.865 2066.65 335.57C2066.65 307.123 2067.91 305.582 2098.44 296.903C2141.2 284.737 2153.85 272.063 2116.62 278.684C2100.89 281.483 2083.22 285.62 2077.34 287.88C2069.17 291.007 2066.65 284.939 2066.65 262.187C2066.65 234.803 2068.54 232.012 2090.03 227.717C2102.89 225.143 2121.4 223.041 2131.17 223.041C2140.95 223.041 2148.94 219.674 2148.94 215.559C2148.94 208.167 2097.61 206.611 2072.26 213.232ZM1984.84 223.303C2017.78 240.938 1985.46 284.543 1931.44 295.347C1907.34 300.173 1907.22 300.053 1912.15 275.43C1917.9 246.699 1929.03 231.346 1950.42 222.682C1970.52 214.534 1968.37 214.489 1984.84 223.303ZM1257.16 242.756C1259.31 257.81 1228.92 290.379 1212.73 290.379C1204.97 290.379 1203.97 235.304 1211.59 227.687C1223.08 216.195 1254.88 226.707 1257.16 242.756ZM1484.49 260.451C1475.94 281.026 1466.23 297.838 1462.92 297.801C1459.6 297.771 1448.75 283.488 1438.79 266.062C1428.84 248.637 1419.37 238.334 1417.76 243.167C1414.56 252.782 1433.96 294.696 1450.24 313.341C1458.96 323.314 1458.65 329.779 1448.18 356.437C1437.24 384.285 1438.25 405.04 1449.97 393.323C1454.16 389.126 1498.57 273.417 1508.85 239.875C1518.8 207.434 1499.88 223.415 1484.49 260.451ZM2231.24 357.716C2231.24 361.831 2234.61 365.198 2238.72 365.198C2242.84 365.198 2246.2 361.831 2246.2 357.716C2246.2 353.601 2242.84 350.234 2238.72 350.234C2234.61 350.234 2231.24 353.601 2231.24 357.716ZM868.283 443.811C866.196 445.899 867.123 463.571 870.333 483.091C873.543 502.612 876.378 541.301 876.618 569.082C877.111 624.515 883.508 630.419 918.35 607.591C959.342 580.724 976.452 529.15 957.891 488.404C945.531 461.274 882.289 429.805 868.283 443.811ZM1663.18 448.158C1620.25 456.575 1601.63 473.769 1642.06 467.649C1670.12 463.406 1670.12 463.406 1670.19 490.992C1670.3 539.797 1679.46 597.139 1687.16 597.139C1691.95 597.139 1692.74 574.005 1689.37 532.412C1683.74 462.987 1686.83 455.326 1720.62 455.094C1729.88 455.034 1737.45 451.615 1737.45 447.5C1737.45 438.761 1709.82 439.008 1663.18 448.158ZM1814.62 498.003C1820.37 570.982 1827.14 604.621 1836.11 604.621C1842.54 604.621 1839.98 566.8 1829.9 512.967C1824.68 485.119 1835.85 487.004 1852.07 516.708C1868.62 547.01 1906.69 589.657 1917.19 589.657C1928.99 589.657 1923.42 453.336 1911.45 449.37C1904.29 446.998 1903.25 459.433 1906.94 503.008C1910.02 539.505 1909.02 559.729 1904.14 559.729C1895.54 559.729 1867.01 518.601 1843.06 471.651C1818.02 422.562 1809.32 430.635 1814.62 498.003ZM2003.87 456.852C1997.96 466.107 1988.93 487.992 1983.81 505.485C1978.69 522.978 1972.33 537.283 1969.68 537.283C1967.04 537.283 1964.54 549.067 1964.12 563.47C1963.23 594.82 1973.27 598.246 1979.21 568.61C1982.48 552.247 1989.7 545.633 2011.63 538.899C2042.41 529.457 2051.24 534.882 2051.68 563.47C2051.96 581.359 2063.99 602.286 2070.35 595.934C2075.92 590.36 2055.88 501.961 2040.96 466.242C2028.23 435.775 2018.85 433.404 2003.87 456.852ZM2115.28 453.852C2070.39 466.205 2070.39 466.205 2100.22 468.629C2116.62 469.968 2132.56 475.018 2135.64 479.852C2138.72 484.693 2141.33 508.852 2141.46 533.542C2141.59 558.233 2145.28 583.484 2149.65 589.657C2155.42 597.775 2156.54 581.659 2153.75 531.387L2149.88 461.903L2172.01 457.473C2184.18 455.042 2195.96 450.118 2198.17 446.535C2204.29 436.628 2165.4 440.063 2115.28 453.852ZM2432.78 441.888C2427.77 462.217 2427.13 604.621 2432.04 604.621C2440.72 604.621 2448.21 567.488 2448.21 524.504C2448.21 506.158 2451.28 492.264 2455.02 493.641C2458.77 495.01 2477.39 517.321 2496.39 543.216C2529.47 588.288 2548.47 604.112 2558.02 594.565C2560.46 592.133 2556.59 560.575 2549.44 524.429C2532.99 441.342 2532.01 438.207 2523.93 443.198C2520.12 445.554 2521.71 470.716 2527.61 501.662C2533.3 531.537 2537.97 556.826 2537.98 557.859C2537.98 558.891 2534.64 559.729 2530.55 559.729C2526.46 559.729 2505.41 532.869 2483.79 500.046C2450.64 449.729 2435.19 432.117 2432.78 441.888ZM372.056 461.274C359.712 468.105 348.13 474.607 346.312 475.737C341.891 478.49 345.504 612.357 350.449 628.937C355.305 645.203 381.872 645.921 404.055 630.381C428.416 613.322 424.353 602.339 398.616 615.649C366.819 632.095 360.827 630.045 360.894 602.75C360.939 582.018 365.622 575.763 392.631 560.335C410.056 550.377 420.021 540.8 414.777 539.056C409.532 537.306 396.641 541.511 386.129 548.401C362.862 563.65 359.442 560.777 355.642 522.783C352.821 494.569 354.19 492.264 382.433 477.862C398.796 469.512 414.298 459.261 416.879 455.086C423.979 443.602 397.389 447.268 372.056 461.274ZM777.935 459.905C751.846 470.731 740.183 484.91 757.36 484.91C761.573 484.91 764.842 505.949 764.842 533.056C764.842 612.021 783.307 636.816 821.381 608.975C840.182 595.224 830.905 585.804 809.732 597.139C790.003 607.696 789.876 607.584 783.531 573.631C778.638 547.414 779.469 546.037 805.31 537.508C838.506 526.554 841.237 513.281 808.355 522.716C780.524 530.699 782.843 532.106 776.723 503.465C772.413 483.316 774.344 479.949 794.552 472.317C807.016 467.611 817.214 460.107 817.214 455.633C817.214 445.188 812.066 445.749 777.935 459.905ZM2317.44 465.367C2281.85 500.958 2285.32 571.992 2323.3 585.422C2375.31 603.805 2425.55 517.987 2395.58 461.97C2384.14 440.609 2340.29 442.517 2317.44 465.367ZM281.813 505.485C284.574 533.265 288.801 567.421 291.202 581.389C297.936 620.55 281.776 603.82 262.922 552.12C245.43 504.123 229.03 483.264 222.663 500.898C220.636 506.51 218.07 538.031 216.962 570.952L214.942 630.808L202.164 602.586C195.138 587.068 183.355 549.209 175.978 518.459C168.601 487.708 159.616 462.531 156.002 462.509C146.777 462.449 155.71 511.658 177.369 580.222C210.977 686.631 233.325 690.529 233.534 590.031C233.594 559.378 236.407 537.493 239.781 541.398C243.155 545.311 255.321 571.229 266.812 599.009C279.524 629.753 292.108 649.513 298.968 649.513C308.522 649.513 309.48 639.554 305.275 584.045C297.973 487.498 292.684 454.982 284.297 454.982C279.524 454.982 278.618 473.365 281.813 505.485ZM914.624 466.279C956.596 487.992 964.564 536.026 932.513 574.117C901.898 610.502 894.439 604.546 888.7 539.154C885.902 507.258 881.915 475.28 879.835 468.075C875.196 452.004 885.94 451.45 914.624 466.279ZM1097.55 462.823C1090.97 473.462 1056.63 597.146 1056.63 610.18C1056.63 629.072 1070.54 618.934 1075.48 596.443C1079.2 579.526 1087.35 570.473 1105.77 562.774C1142.51 547.421 1152.12 549.613 1157.61 574.611C1165.86 612.17 1179.34 611.631 1173.53 573.967C1163.01 505.784 1114.69 435.095 1097.55 462.823ZM2231.32 492.766C2231.43 546.314 2238.87 589.657 2247.96 589.657C2252.52 589.657 2253.27 566.575 2249.97 527.931C2243.81 455.835 2231.2 432.05 2231.32 492.766ZM2373.89 462.726C2384.52 468.419 2388.36 478.468 2388.36 500.629C2388.36 538.383 2377.91 558.382 2353.33 567.727C2325.93 578.15 2313.54 564.779 2313.54 524.803C2313.54 499.642 2317.94 487.311 2331.91 473.35C2352.77 452.475 2354.1 452.139 2373.89 462.726ZM510.459 475.557C510.444 505.223 543.042 649.513 549.76 649.513C553.8 649.513 555.214 638.739 552.94 625.196C541.179 555.09 539.638 537.336 545.346 537.837C548.795 538.144 565.083 555.554 581.542 576.526C621.217 627.082 630.24 629.296 629.903 588.407C629.641 555.996 612.494 472.22 604.488 464.214C592.794 452.52 592.765 474.008 604.406 521.9C611.506 551.147 614.903 577.491 611.947 580.447C605.461 586.933 571.569 546.643 542.735 498.153C520.574 460.885 510.474 453.807 510.459 475.557ZM1282.68 539.154C1284.73 612.679 1285.53 615.941 1301.97 618.275C1313.93 619.974 1328.08 611.751 1348.73 591.101C1372.31 567.518 1378.34 555.973 1378.34 534.425C1378.34 495.496 1340.21 462.464 1295.29 462.464C1281.45 462.464 1280.68 467.117 1282.68 539.154ZM1425.1 467.746C1409.13 470.821 1408.26 474.45 1408.26 538.039C1408.26 614.789 1412.63 620.266 1457.89 600.221C1478.07 591.281 1482.98 586.47 1474.12 584.315C1467.14 582.616 1454.73 584.809 1446.55 589.186C1425.02 600.708 1423.23 599.563 1423.23 574.311C1423.23 555.292 1427.59 549.658 1449.41 540.545C1463.81 534.522 1475.6 527.587 1475.6 525.125C1475.6 522.664 1463.81 522.865 1449.41 525.566C1424.36 530.265 1423.23 529.539 1423.23 508.71C1423.23 490.588 1427.92 485.014 1451.28 475.43C1474.79 465.786 1476.31 463.968 1460.63 464.207C1450.35 464.372 1434.36 465.958 1425.1 467.746ZM1517.25 476.874C1491.57 505.246 1519.06 536.932 1569.56 537.171C1582.14 537.231 1598.93 542.027 1606.87 547.833C1620.89 558.083 1620.91 558.801 1607.52 573.593C1588.14 595.021 1555.17 600.611 1528.04 587.068C1509.29 577.723 1505.52 577.574 1505.52 586.193C1505.52 591.879 1519.39 600.693 1536.34 605.773C1563.51 613.913 1570.37 613.285 1594.32 600.461C1613.14 590.39 1622.18 579.968 1623.74 566.568C1626.61 541.81 1613.58 531.365 1569.54 523.135C1526.45 515.084 1514.28 505.148 1527.71 488.965C1538.35 476.141 1584.33 473.215 1591.56 484.91C1594.11 489.025 1599.87 492.391 1604.39 492.391C1608.9 492.391 1606.49 485.658 1599.04 477.428C1581.01 457.503 1535.05 457.196 1517.25 476.874ZM676.297 477.899C659.441 484.655 658.999 486.96 663.795 542.887C666.526 574.783 670.409 606.768 672.422 613.973C676.851 629.865 703.223 630.755 723.147 615.687C741.514 601.785 733.793 593.211 712.957 604.359C692.076 615.537 682.544 608.504 682.544 581.928C682.544 564.892 687.871 557.35 706.859 547.489C720.229 540.553 727.15 533.512 722.234 531.851C717.319 530.19 706.605 532.412 698.413 536.797C676.634 548.454 675.062 547.272 675.062 519.312C675.062 497.756 678.497 492.653 697.507 486.032C709.852 481.73 719.952 476.35 719.952 474.076C719.952 467.881 696.078 469.968 676.297 477.899ZM1755.1 498.003C1757.65 513.438 1759.77 542.057 1759.82 561.6C1759.86 581.142 1763.27 597.139 1767.38 597.139C1775.71 597.139 1777.21 541.286 1770.06 498.003C1767.51 482.575 1762.05 469.946 1757.94 469.946C1753.46 469.946 1752.32 481.191 1755.1 498.003ZM2032.18 481.782C2041.88 507.071 2036.82 520.554 2016.14 524.526C2004.83 526.704 1994.53 527.459 1993.26 526.21C1988.63 521.646 2013.72 469.946 2020.57 469.946C2024.46 469.946 2029.68 475.273 2032.18 481.782ZM1134.68 508.291C1141.47 525.26 1146.05 539.969 1144.85 540.964C1143.64 541.967 1129.93 545.079 1114.37 547.9C1086.37 552.965 1086.13 552.801 1091.15 532.053C1106.44 468.928 1116.7 463.332 1134.68 508.291ZM1326.58 484.91C1340.6 484.91 1363.37 515.473 1363.37 534.29C1363.37 553.938 1320.78 604.621 1304.27 604.621C1298.92 604.621 1296.04 582.07 1296.04 540.224C1296.04 484.573 1297.65 476.44 1307.87 480.368C1314.38 482.867 1322.8 484.91 1326.58 484.91ZM2612.8 597.139C2612.8 601.254 2616.17 604.621 2620.29 604.621C2624.4 604.621 2627.77 601.254 2627.77 597.139C2627.77 593.024 2624.4 589.657 2620.29 589.657C2616.17 589.657 2612.8 593.024 2612.8 597.139Z" fill="black"/>
<defs>
<filter id="filter0_f_1102_256" x="598.059" y="1229.54" width="762.413" height="665.451" filterUnits="userSpaceOnUse" color-interpolation-filters="sRGB">
<feFlood flood-opacity="0" result="BackgroundImageFix"/>
<feBlend mode="normal" in="SourceGraphic" in2="BackgroundImageFix" result="shape"/>
<feGaussianBlur stdDeviation="100" result="effect1_foregroundBlur_1102_256"/>
</filter>
<filter id="filter1_f_1102_256" x="13.9102" y="1176.45" width="762.414" height="665.451" filterUnits="userSpaceOnUse" color-interpolation-filters="sRGB">
<feFlood flood-opacity="0" result="BackgroundImageFix"/>
<feBlend mode="normal" in="SourceGraphic" in2="BackgroundImageFix" result="shape"/>
<feGaussianBlur stdDeviation="100" result="effect1_foregroundBlur_1102_256"/>
</filter>
<linearGradient id="paint0_linear_1102_256" x1="783.618" y1="1010.41" x2="783.618" y2="2579.83" gradientUnits="userSpaceOnUse">
<stop stop-color="#BB89FF"/>
<stop offset="1" stop-color="#887AFF"/>
</linearGradient>
<linearGradient id="paint1_linear_1102_256" x1="783.618" y1="1010.41" x2="783.618" y2="2579.83" gradientUnits="userSpaceOnUse">
<stop stop-color="#BB89FF"/>
<stop offset="1" stop-color="#887AFF"/>
</linearGradient>
</defs>
</svg>
