<svg width="2204" height="3816" viewBox="0 0 2204 3816" fill="none" xmlns="http://www.w3.org/2000/svg">
<path d="M11 2974L29 2868L61 2815L152 2770L303 2746L761 2734H1199H1640L1908 2751L2024 2768L2031 2734L2037 2627L2024 2503L1979 2379L1956 2318H1979L2037 2359L2102 2454L2147 2554L2169 2686L2141 2768L2121 2812L2193 2922V3020L2169 3132L2121 3214L2037 3278L1939 3316L1927 3372V3526L1875 3630L1761 3720L1613 3764L1457 3798H1243H945H651L489 3782L373 3754L289 3704L223 3630L191 3498V3326V3266L97 3230L43 3172L11 3082V2974Z" fill="white"/>
<path d="M602 450L583 340V268L602 198L684 104L828 42L1030 15L1253 7L1455 26L1655 72L1767 134L1833 230L1864 335V450L1828 549L1767 590L1630 628L1455 634L1423 687L1336 826L1316 839L1307 820L1316 740L1336 623L1302 618L1149 628L945 634L814 628L707 599L639 538L602 450Z" fill="white"/>
<path d="M324.288 1107L491.288 907L593.288 847L778.288 785L1002.29 802L1172.29 867L1332.29 976L1445.29 1127L1477.29 1266L1513.29 1460L1551.29 1491L1671.29 1544L1789.29 1634L1856.29 1766L1843.29 1884L1779.29 1968L1678.29 1984L1607.29 1942L1578.29 1900L1513.29 1832V1872L1518.29 2038V2198L1437.29 2350L1335.29 2421L1266.29 2437L1225.29 2421L1233.29 2312L1279.29 2155V2071L1204.29 2221L1091.29 2350L978.288 2399H879.288L839.288 2357L870.288 2285L978.288 2166L1060.29 2066L1080.29 1977L1050.29 2010L978.288 2094L934.288 2142L839.288 2187L727.288 2231H691.288L638.288 2212L547.288 2155L535.288 2101L588.288 2048L763.288 1984L879.288 1931L915.288 1862L906.288 1794L763.288 1819L580.288 1799L436.288 1760L317.288 1629C304.621 1577.33 277.688 1473.8 271.288 1473C264.888 1472.2 268.621 1365.33 271.288 1312L324.288 1107Z" fill="url(#paint0_linear_1102_225)" stroke="black"/>
<path d="M869.288 1172H938.288L992.288 1183L1030.29 1221L1065.29 1246V1221L1085.29 1140L1130.29 1095L1194.29 1075L1264.29 1089L1320.29 1123L1355.29 1172L1369.29 1246L1347.29 1302L1306.29 1341L1249.29 1367L1171.29 1360L1113.29 1317L1076.29 1272L1093.29 1347L1065.29 1426L992.288 1474L928.288 1496L829.288 1490L769.288 1457L729.288 1382V1302L789.288 1221L869.288 1172Z" fill="#FFF0B4"/>
<path d="M420.726 1237.67C430.226 1201.67 441.726 1184.67 472.226 1140.67C485.226 1124.51 515.526 1088.77 532.726 1075.17C554.226 1058.17 580.226 1023.67 570.726 1002.67C561.226 981.672 521.726 986.172 480.726 1020.67C439.726 1055.17 405.726 1105.67 388.226 1167.67C370.726 1229.67 371.226 1337.17 388.226 1339.67C405.226 1342.17 411.226 1273.67 420.726 1237.67Z" fill="#F2E8FF"/>
<path fill-rule="evenodd" clip-rule="evenodd" d="M815.863 766.817C775.155 770.561 703.796 785.141 678.717 794.841C671.801 797.517 661.1 801.24 654.939 803.116C636.701 808.671 578.95 837.923 557.61 852.417C546.72 859.813 533.685 868.011 528.644 870.633C523.602 873.255 514.894 879.083 509.292 883.582C503.69 888.08 495.489 894.326 491.067 897.458C483.679 902.695 476.26 909.291 445.674 937.821C420.857 960.97 406.704 975.694 388.837 996.957C378.469 1009.29 368.231 1021.22 366.084 1023.47C363.937 1025.71 360.71 1030.42 358.913 1033.93C357.115 1037.44 353.092 1043.33 349.969 1047.01C343.579 1054.57 339.639 1060.81 325.61 1085.66C320.226 1095.19 314.246 1105.75 312.319 1109.11C302.757 1125.81 282.165 1169.58 282.165 1173.21C282.165 1175.49 279.482 1183.1 276.202 1190.13C269.427 1204.65 261.795 1227.74 261.795 1233.71C261.795 1235.92 259.925 1243.04 257.639 1249.55C255.356 1256.06 254.052 1263.17 254.745 1265.36C255.484 1267.69 254.303 1272.21 251.885 1276.31C235.387 1304.3 227.62 1446.69 240.314 1488.39C242.021 1494 243.427 1501.74 243.439 1505.59C243.451 1509.44 245.171 1516.33 247.261 1520.89C249.349 1525.45 252.604 1536.06 254.492 1544.47C256.38 1552.88 260.025 1564.35 262.589 1569.96C275.995 1599.27 287.288 1621.64 291.596 1627.43C294.25 1631 296.424 1634.68 296.424 1635.62C296.424 1638.68 311.056 1659.45 322.724 1672.94C329.028 1680.23 336.563 1689.88 339.468 1694.39C342.371 1698.9 350.472 1707.61 357.469 1713.76C364.466 1719.91 375.823 1730.31 382.706 1736.87C389.587 1743.43 399.344 1751.6 404.386 1755.01C409.427 1758.43 415.844 1763.23 418.645 1765.68C433.603 1778.79 508.428 1817.98 525.739 1821.78C531.257 1822.99 541.731 1826.13 549.014 1828.77C573.02 1837.43 584.399 1840.3 607.069 1843.39C647.448 1848.89 671.53 1850.39 687.531 1848.43C695.933 1847.4 706.933 1846.7 711.975 1846.88C738.016 1847.79 839.299 1823.13 867.807 1808.93C878.768 1803.47 895.858 1797.33 900.093 1797.33C903.992 1797.33 906.82 1822.47 905.316 1843.76C902.385 1885.26 875.356 1918.92 824.011 1945.01C799.051 1957.68 797.487 1958.39 780.355 1964.8C771.315 1968.18 758.519 1973.63 751.921 1976.92C745.321 1980.2 737.228 1982.89 733.934 1982.89C730.642 1982.89 722.29 1985.03 715.379 1987.63C694.789 1995.41 689.061 1997.37 678.364 2000.32C672.762 2001.86 664.054 2004.85 659.013 2006.96C653.971 2009.07 642.971 2013.15 634.568 2016.03C608.751 2024.87 598.365 2029.18 592.093 2033.66C588.78 2036.02 584.678 2037.95 582.975 2037.95C581.274 2037.95 575.915 2040.93 571.069 2044.58C566.22 2048.22 559.592 2052.58 556.337 2054.26C553.082 2055.94 548.04 2060.41 545.133 2064.2C542.226 2067.98 536.973 2074.04 533.459 2077.66C514.653 2097.05 516.666 2140.1 537.511 2164.34C542.157 2169.75 549.01 2177.96 552.741 2182.59C562.044 2194.12 579.015 2206.57 590.991 2210.63C596.472 2212.48 603.249 2215.64 606.05 2217.63C613.239 2222.75 640.286 2230.76 663.205 2234.56C708.011 2241.99 762.562 2235.79 808.733 2218.03C813.215 2216.31 820.548 2213.59 825.029 2211.98C836.822 2207.75 878.652 2187 880.096 2184.66C880.772 2183.57 884.7 2180.8 888.825 2178.51C904.567 2169.78 917.192 2160.19 945.855 2135.15C976.968 2107.98 993.488 2091.93 1004.6 2078.09C1011.06 2070.03 1020.51 2058.76 1025.6 2053.04C1030.68 2047.32 1037.54 2038.14 1040.85 2032.65C1064.44 1993.42 1070.68 1984.7 1072.13 1988.89C1073.5 1992.86 1057.87 2040.37 1053.31 2046.11C1051.97 2047.79 1045.44 2058.19 1038.79 2069.22C1032.13 2080.25 1024.86 2092.25 1022.62 2095.88C1016.46 2105.86 991.453 2132.91 957.653 2166.15C940.966 2182.56 926.063 2197.36 924.531 2199.04C923.002 2200.72 913.393 2210.82 903.179 2221.47C880.628 2245 853.466 2278.39 846.913 2290.64C844.261 2295.6 840.773 2301.54 839.162 2303.84C837.551 2306.14 836.233 2309.71 836.233 2311.76C836.233 2313.82 834.426 2319.47 832.218 2324.32C826.072 2337.82 826.679 2367.59 833.369 2380.79C848.019 2409.71 899.731 2431.76 938.236 2425.51C945.435 2424.34 956.197 2423.37 962.153 2423.37C968.107 2423.36 974.982 2422.26 977.431 2420.94C979.877 2419.61 985.546 2417.88 990.028 2417.11C997.507 2415.82 1003.92 2413.8 1026.69 2405.56C1046.87 2398.26 1087.65 2376.19 1096.46 2367.81C1099.54 2364.87 1106.15 2360.15 1111.15 2357.32C1122.44 2350.94 1167.62 2308.35 1169.47 2302.35C1170.21 2299.92 1174.6 2293.73 1179.22 2288.59C1191.9 2274.47 1205.23 2256.42 1212.2 2243.9C1241.71 2190.94 1250.76 2171.92 1259.24 2145C1262.06 2136.03 1265.4 2126.4 1266.65 2123.59L1268.92 2118.5L1269.7 2124.55C1270.13 2127.88 1269.1 2135.22 1267.43 2140.86C1263.05 2155.61 1255.84 2187.18 1255.85 2191.56C1255.86 2193.62 1253.68 2201.88 1251.02 2209.91C1248.36 2217.95 1240.97 2241.05 1234.61 2261.24C1228.24 2281.42 1221.67 2302.07 1220.02 2307.12C1218.36 2312.16 1215.15 2322.72 1212.88 2330.57C1210.6 2338.42 1207.24 2349.43 1205.41 2355.04C1200.82 2369.07 1200.92 2405.17 1205.57 2415.55C1211.69 2429.19 1222.88 2439.31 1241.06 2447.65C1247.56 2450.63 1278.64 2451.08 1296.6 2448.45C1318.19 2445.29 1345.91 2435.31 1351.37 2428.73C1352.89 2426.89 1355.62 2425.39 1357.45 2425.38C1361.77 2425.38 1391.47 2407.46 1407.38 2395.27C1424.92 2381.81 1459.05 2347.09 1468.73 2332.85C1473.21 2326.26 1479.8 2317.29 1483.37 2312.92C1486.95 2308.56 1490.5 2302.94 1491.26 2300.44C1492.03 2297.95 1493.62 2294.69 1494.8 2293.21C1502.99 2282.99 1526.31 2222.75 1532.92 2194.76C1534.35 2188.7 1536.85 2179.16 1538.48 2173.55C1550.95 2130.58 1553.53 2016.78 1543.18 1966.58C1542.13 1961.53 1539.84 1949.14 1538.07 1939.05C1534.71 1919.89 1530.04 1901.54 1521.37 1873.47C1518.54 1864.31 1516.54 1855.32 1516.92 1853.47C1517.74 1849.5 1546.52 1881.37 1555.9 1896.65C1563.02 1908.24 1614.99 1960.48 1629.89 1971.04C1660.62 1992.79 1704.81 2006.46 1728.56 2001.55C1734.79 2000.26 1743.05 1999.19 1746.9 1999.16C1756.38 1999.1 1780.02 1990.54 1790.08 1983.52C1794.58 1980.37 1801.8 1975.96 1806.12 1973.71C1816 1968.58 1839.29 1944.12 1845.88 1931.96C1848.63 1926.89 1854.46 1916.85 1858.83 1909.65C1863.2 1902.45 1867.69 1892.82 1868.81 1888.24C1869.93 1883.66 1872.33 1874.87 1874.16 1868.7C1882.41 1840.78 1876.61 1762.65 1864.79 1742.6C1862.51 1738.74 1859.4 1730.79 1857.88 1724.93C1854.78 1713.03 1849.34 1701.58 1839.18 1685.64C1835.41 1679.73 1832.33 1674.32 1832.33 1673.62C1832.33 1671.02 1817.52 1650.11 1807.82 1639.02C1799.27 1629.23 1780.29 1611.27 1750.85 1585.12C1739.64 1575.16 1714.39 1557.4 1704 1552.17C1701.2 1550.76 1695.8 1547.53 1692 1545C1688.21 1542.47 1683.77 1540.39 1682.13 1540.39C1680.5 1540.39 1676.73 1538.72 1673.76 1536.67C1667.76 1532.55 1638.89 1519.25 1618.45 1511.2C1572.12 1492.96 1547.62 1480.85 1537.98 1471.46C1521.18 1455.07 1516.87 1448.82 1515.49 1438.88C1514.76 1433.59 1512.93 1422.84 1511.42 1414.98C1509.92 1407.13 1508.09 1395.2 1507.37 1388.48C1506.65 1381.75 1504.39 1365.69 1502.35 1352.79C1500.31 1339.89 1497.13 1318.33 1495.27 1304.87C1491.83 1280.01 1485.76 1249.11 1481.03 1232.48C1479.6 1227.43 1477.27 1218.35 1475.86 1212.3C1471.99 1195.72 1460.02 1159.38 1454.64 1147.85C1452.01 1142.25 1448.85 1135.36 1447.6 1132.56C1446.35 1129.76 1444.46 1126.09 1443.4 1124.4C1442.34 1122.72 1439.04 1115.84 1436.08 1109.11C1433.11 1102.38 1427.88 1091.37 1424.46 1084.64C1418.64 1073.19 1414.89 1067.25 1395.55 1038.76C1384.5 1022.49 1339.71 971.775 1324.72 958.568C1292.73 930.378 1274.17 915.549 1255.06 902.927C1211.96 874.456 1196.18 865.097 1171.32 853.257C1112.71 825.345 1102.22 820.569 1099.52 820.569C1097.49 820.569 1083.12 814.937 1065.21 807.121C1061.75 805.61 1053.72 803.018 1047.37 801.363C1041.01 799.705 1034.84 797.749 1033.66 797.015C1032.47 796.281 1024.92 793.979 1016.88 791.899C1008.83 789.817 997.208 786.77 991.046 785.127C980.751 782.38 957.229 777.653 923.853 771.619C916.585 770.306 897.793 768.86 882.094 768.406C866.393 767.951 846.673 767.262 838.27 766.87C829.867 766.481 819.784 766.456 815.863 766.817ZM902.436 800.298C914.76 801.475 929.426 803.247 935.028 804.238C940.63 805.227 950.713 806.999 957.435 808.175C999.477 815.529 1051.37 830.194 1087.8 845.017C1095.65 848.208 1108.48 853.243 1116.32 856.204C1158.96 872.305 1227.94 910.837 1267.79 940.819C1276.04 947.02 1284.96 953.543 1287.62 955.311C1299.26 963.046 1348.6 1012.07 1359.99 1027.23C1366.87 1036.37 1373.53 1044.78 1374.8 1045.9C1376.07 1047.02 1383.51 1057.85 1391.34 1069.97C1399.17 1082.09 1407.8 1095.4 1410.51 1099.54C1420.1 1114.21 1429 1130.96 1429 1134.34C1429 1136.23 1430.25 1139.58 1431.77 1141.79C1433.29 1144 1439.81 1160.96 1446.26 1179.46C1452.7 1197.97 1459.16 1216.32 1460.6 1220.24C1462.05 1224.17 1464.71 1234.72 1466.52 1243.7C1468.33 1252.67 1471.68 1269.18 1473.96 1280.4C1477.72 1298.94 1480.03 1311.84 1489.09 1365.03C1490.71 1374.56 1493 1386.49 1494.17 1391.53C1495.34 1396.58 1497.12 1405.3 1498.12 1410.91C1501.16 1427.82 1512.56 1467.22 1516.85 1475.63C1520.01 1481.84 1521.7 1483.24 1524.84 1482.25C1527.03 1481.55 1528.82 1481.86 1528.82 1482.93C1528.82 1488.49 1573.06 1518.57 1587.89 1523.1C1590.69 1523.96 1604.24 1530.03 1618 1536.6C1631.76 1543.17 1643.8 1548.55 1644.74 1548.55C1645.69 1548.55 1647.6 1549.92 1648.99 1551.6C1650.38 1553.28 1655.18 1555.74 1659.64 1557.08C1664.11 1558.42 1668.25 1560.81 1668.86 1562.39C1669.47 1563.97 1673.72 1567 1678.32 1569.13C1682.92 1571.25 1690.81 1576.21 1695.85 1580.14C1700.89 1584.06 1706.85 1588.13 1709.09 1589.17C1711.33 1590.21 1717.06 1594.8 1721.83 1599.37C1726.59 1603.95 1731.31 1607.69 1732.31 1607.69C1734.42 1607.69 1760.77 1633.97 1771.22 1646.5C1778.23 1654.91 1786.25 1666 1796.96 1682.11C1799.95 1686.6 1803.07 1690.73 1803.9 1691.29C1805.61 1692.44 1819.22 1719.93 1821.25 1726.32C1821.97 1728.6 1824.76 1733.7 1827.44 1737.67C1830.13 1741.63 1832.33 1747.75 1832.33 1751.26C1832.33 1754.77 1834.26 1764.51 1836.61 1772.9C1844.67 1801.68 1842.53 1853.98 1832.3 1877.87C1830.38 1882.36 1827.24 1890.37 1825.33 1895.68C1822.05 1904.73 1807.62 1924.4 1798.89 1931.7C1796.74 1933.5 1791.24 1938.24 1786.67 1942.23C1762.39 1963.44 1722.71 1971.85 1691.19 1962.48C1683.24 1960.11 1680.68 1960.05 1677.3 1962.17C1671.04 1966.08 1647.29 1963.17 1637.51 1957.3C1633.18 1954.7 1626.58 1951 1622.83 1949.06C1614.99 1945 1598.12 1925.54 1594.16 1915.98C1591.39 1909.29 1594.07 1897.25 1598.32 1897.25C1602.35 1897.25 1599.33 1892.79 1583.64 1875.57C1574.59 1865.62 1565.07 1854.27 1562.51 1850.35C1559.94 1846.42 1554.54 1840 1550.51 1836.07C1546.48 1832.15 1542.01 1827.7 1540.58 1826.2C1529.25 1814.25 1515.18 1801.49 1513.31 1801.45C1512.06 1801.43 1508.73 1799.59 1505.91 1797.37C1501.07 1793.56 1500.16 1793.51 1489.24 1796.35C1474.53 1800.19 1471.21 1800.1 1457.36 1795.46C1423.06 1783.96 1404.74 1766.91 1404.6 1746.35C1404.56 1739.54 1403.82 1738.81 1388.31 1730.43C1379.38 1725.61 1371.5 1720.73 1370.8 1719.6C1370.11 1718.47 1367.56 1716.65 1365.15 1715.56C1348.04 1707.8 1323.45 1682.82 1313.53 1663.15C1306.23 1648.67 1305.71 1618.36 1312.51 1602.99C1326.42 1571.5 1355.66 1546.32 1390.3 1535.98C1394.22 1534.81 1398.35 1533.13 1399.47 1532.25C1406.55 1526.7 1473.39 1525.72 1483.63 1531.03C1487.09 1532.81 1491.76 1534.28 1494.01 1534.28C1502.87 1534.28 1552.64 1557.47 1566.51 1568.07C1570.08 1570.79 1573.65 1573.02 1574.45 1573.02C1580.12 1573.02 1631.15 1621.69 1654.63 1649.49C1663.15 1659.58 1671.13 1668.46 1672.36 1669.23C1673.6 1669.99 1678.21 1675.95 1682.61 1682.48C1687 1689.01 1696.19 1701.23 1703.02 1709.64C1709.85 1718.05 1719.27 1730.62 1723.97 1737.56C1733.36 1751.45 1735.66 1753.6 1737.65 1750.37C1738.38 1749.18 1735.32 1742.03 1730.85 1734.48C1726.37 1726.94 1720.33 1715.74 1717.42 1709.6C1712.07 1698.29 1708.72 1692.57 1695.83 1672.73C1691.9 1666.68 1687.46 1659.33 1685.96 1656.39C1679.67 1644.08 1650.05 1607.19 1630.41 1587.21C1599.02 1555.28 1564.71 1531.05 1531.87 1517.61C1518.36 1512.08 1494.02 1505.04 1487.06 1504.64C1482.58 1504.38 1472.49 1502.67 1464.65 1500.85C1436.22 1494.22 1381.81 1504.71 1349.56 1523.03C1346.76 1524.62 1340.89 1527.89 1336.51 1530.3C1327.33 1535.36 1300.76 1562.02 1296.54 1570.41C1294.97 1573.53 1292.18 1578.37 1290.34 1581.18C1286.28 1587.35 1281.31 1602.71 1278.46 1617.88C1275.47 1633.78 1283.17 1671.92 1292.65 1688.23C1300.13 1701.11 1314.2 1718.89 1319.81 1722.57C1322.63 1724.42 1329.23 1730.11 1334.48 1735.21C1339.72 1740.32 1346.59 1745.83 1349.74 1747.46C1352.89 1749.09 1359.69 1753.28 1364.87 1756.78C1370.04 1760.27 1394.15 1773.15 1418.44 1785.39C1470.51 1811.63 1481.82 1818.18 1492.68 1828.42C1497.14 1832.63 1501.7 1836.07 1502.82 1836.07C1503.94 1836.07 1504.36 1837.95 1503.76 1840.26C1503.16 1842.56 1503.9 1849.67 1505.41 1856.06C1506.92 1862.45 1509.26 1884.65 1510.6 1905.4C1511.95 1926.15 1513.37 1946.8 1513.76 1951.28C1518.38 2004.46 1515.99 2111.83 1509.5 2141.95C1507.93 2149.24 1506.05 2159.33 1505.32 2164.38C1503.68 2175.75 1495.55 2204.76 1489.85 2219.56C1487.51 2225.66 1483.97 2235.24 1481.99 2240.84C1478.56 2250.6 1474.07 2259.49 1464.22 2276.08C1461.74 2280.25 1457.26 2288.26 1454.27 2293.86C1443.63 2313.8 1404.23 2355.68 1380.33 2372.45C1343.24 2398.47 1339.95 2400.18 1305.76 2411.21C1299.04 2413.38 1291.95 2416.08 1290.01 2417.21C1281.83 2421.97 1252.2 2418.84 1241.48 2412.09C1226.3 2402.54 1231.44 2356.09 1254.9 2290.8C1263.15 2267.85 1267.24 2253.81 1276.02 2218.32C1279.08 2205.93 1282.19 2194.81 1282.94 2193.6C1284.5 2191.08 1290.61 2155.1 1291.53 2142.97C1291.88 2138.48 1293.58 2129.5 1295.3 2123.01C1297.04 2116.52 1297.95 2109.9 1297.34 2108.31C1296.73 2106.72 1297.2 2102.39 1298.39 2098.7C1302.42 2086.16 1304.06 2038.86 1302.11 1991.05C1301.36 1972.54 1300.21 1943.64 1299.56 1926.81C1298.21 1891.54 1297.55 1887.05 1293.72 1887.05C1288.39 1887.05 1285.83 1902.75 1283.26 1951.28C1282.26 1970.17 1280.61 1978.38 1272.8 2003.28C1262.51 2036.14 1256.53 2053.5 1253.68 2058.82C1252.64 2060.77 1251.78 2064.71 1251.78 2067.58C1251.78 2070.45 1248.71 2079.41 1244.96 2087.49C1241.21 2095.57 1237.48 2104.88 1236.68 2108.17C1235.45 2113.21 1217.49 2152.62 1210.72 2165.15C1209.58 2167.26 1203.61 2178.71 1197.47 2190.61C1191.32 2202.5 1182.46 2217.54 1177.79 2224.03C1173.11 2230.52 1164.24 2243.26 1158.08 2252.35C1142.6 2275.18 1086.09 2331.44 1070.49 2339.55C1066.57 2341.59 1055.64 2347.51 1046.2 2352.72C1036.76 2357.92 1028.24 2362.17 1027.25 2362.17C1026.27 2362.17 1021.62 2364.17 1016.91 2366.6C1001.8 2374.43 1000.56 2374.93 989.095 2377.89C964.164 2384.32 954.135 2385.51 924.843 2385.52C889.146 2385.54 879.137 2382.28 867.55 2366.9C861.455 2358.8 861.178 2357.65 862.166 2344.47C862.794 2336.12 864.739 2328.03 867.037 2324.21C869.141 2320.71 870.878 2316.58 870.899 2315.03C870.919 2313.48 873.441 2308.35 876.501 2303.62C879.562 2298.89 884.787 2290.64 888.114 2285.27C897.975 2269.36 920.028 2242.38 940.121 2221.66C964.062 2196.96 986.514 2172.86 999.194 2158.23C1006.48 2149.84 1013.13 2142.66 1013.99 2142.28C1014.84 2141.9 1019.84 2135.48 1025.1 2128C1030.36 2120.53 1037.57 2110.75 1041.13 2106.26C1058.31 2084.63 1076.93 2040.63 1086.02 2000.22C1090.47 1980.41 1091.51 1919.59 1087.41 1918.2C1085.96 1917.71 1084.59 1920.1 1084.01 1924.13C1083.47 1927.85 1081.92 1938.23 1080.55 1947.21C1079.19 1956.18 1077.65 1966.93 1077.13 1971.1C1076.36 1977.31 1075.42 1978.61 1071.96 1978.24C1068.87 1977.91 1065.4 1981.09 1059.08 1990.03C1049.53 2003.54 1007.6 2046.88 981.291 2070.45C971.197 2079.49 964.83 2086.68 965.459 2088.32C971.281 2103.51 947.539 2134.06 922.989 2142.97C907.826 2148.48 901.047 2148.07 896.368 2141.39C893.923 2137.9 892.935 2137.65 890.279 2139.85C886.215 2143.23 876.814 2148.5 862.804 2155.26C856.693 2158.21 849.166 2162.42 846.078 2164.62C842.99 2166.82 835.477 2170.34 829.384 2172.44C823.29 2174.54 816.15 2177.64 813.518 2179.34C810.886 2181.04 805.199 2183.07 800.878 2183.86C794.327 2185.06 792.523 2186.53 789.999 2192.68C783.248 2209.15 770.313 2218.16 741.336 2226.56C708.777 2236.01 685.494 2227.55 685.494 2206.28C685.494 2201.5 684.777 2201.08 676.561 2201.08C671.648 2201.08 663.168 2199.77 657.719 2198.16C652.268 2196.55 640.934 2193.29 632.531 2190.9C624.129 2188.52 615.333 2185.47 612.984 2184.14C601.891 2177.83 588.487 2168.86 581.152 2162.85C576.707 2159.2 572.207 2156.22 571.148 2156.22C567.247 2156.22 555.125 2127.06 555.125 2117.67C555.125 2106.11 561.741 2092.31 570.068 2086.49C573.613 2084.02 577.253 2080.79 578.155 2079.32C579.06 2077.85 584.101 2074.32 589.359 2071.47C594.618 2068.63 601.212 2065.06 604.013 2063.53C611.815 2059.28 630.16 2051.14 643.735 2045.91C650.457 2043.31 656.874 2040.55 657.994 2039.77C659.114 2038.99 664.156 2037.3 669.198 2036.01C674.239 2034.72 682.948 2032.02 688.549 2030C707.589 2023.14 712.983 2021.37 724.085 2018.36C730.184 2016.71 739.809 2012.76 745.474 2009.58C751.137 2006.4 759.851 2003.18 764.836 2002.43C769.822 2001.68 774.864 2000.31 776.039 1999.39C779.17 1996.93 812.575 1982.89 815.28 1982.89C816.549 1982.89 820.179 1980.72 823.345 1978.07C826.512 1975.42 831.354 1972.55 834.104 1971.68C841.478 1969.37 868.9 1951.38 875.955 1944.22C879.316 1940.82 882.982 1938.03 884.103 1938.03C891.574 1938.03 918.604 1895.7 921.757 1879.05C922.869 1873.19 924.246 1867.63 924.817 1866.7C929.636 1858.89 923.59 1814.17 915.727 1799.46C913.908 1796.06 913.933 1794.33 915.825 1792.05C920.211 1786.76 916.033 1786.4 900.929 1790.77C884.581 1795.49 869.838 1798.04 839.288 1801.4C828.085 1802.63 811.361 1804.61 802.123 1805.79C771.649 1809.69 688.737 1805.92 659.493 1799.3C654.715 1798.21 647.561 1797.33 643.594 1797.33C639.63 1797.33 628.415 1795.16 618.672 1792.5C608.928 1789.85 592.249 1785.64 581.606 1783.13C570.963 1780.63 555.379 1775.54 546.977 1771.83C538.574 1768.11 520.699 1760.34 507.255 1754.56C493.811 1748.78 477.769 1740.89 471.607 1737.03C465.445 1733.17 457.743 1728.41 454.49 1726.45C451.237 1724.5 443.904 1719.22 438.194 1714.72C432.484 1710.22 425.253 1704.9 422.124 1702.89C411 1695.75 365.399 1647.73 355.208 1632.42C349.511 1623.86 343.253 1615.03 341.301 1612.78C335.954 1606.63 310.683 1556.7 310.683 1552.28C310.683 1551.15 307.355 1542.74 303.289 1533.59C299.221 1524.43 295.548 1513.73 295.124 1509.81C294.701 1505.88 293.065 1499 291.49 1494.51C289.916 1490.03 288.158 1481.77 287.585 1476.16C287.011 1470.55 285.33 1457.25 283.851 1446.59C282.311 1435.51 281.264 1411.07 281.403 1389.5C281.633 1353.94 282.971 1337.88 288.115 1308.95C289.311 1302.22 290.295 1292.07 290.301 1286.4C290.309 1280.5 291.594 1274.39 293.303 1272.12C294.949 1269.95 296.324 1266.02 296.359 1263.4C296.395 1260.78 301.007 1246.32 306.609 1231.26C312.211 1216.21 316.794 1202.98 316.794 1201.86C316.794 1200.75 320.919 1191.18 325.961 1180.59C331.002 1170 335.127 1160.3 335.127 1159.03C335.127 1155.6 358.608 1111.31 369.801 1093.62C371.508 1090.92 373.989 1086.88 375.315 1084.64C385.847 1066.85 389.461 1061.37 394.52 1055.51C397.706 1051.83 400.312 1047.47 400.312 1045.83C400.312 1044.18 401.143 1042.84 402.157 1042.84C403.174 1042.84 407.437 1038.02 411.633 1032.13C454.39 972.138 532.398 901.96 589.634 871.999C599.224 866.981 608.444 861.718 610.124 860.302C611.805 858.887 617.763 855.661 623.365 853.131C671.756 831.275 682.813 826.758 697.854 822.698C707.302 820.147 719.325 816.369 724.572 814.301C737.731 809.113 791.046 800.42 822.992 798.255C850.706 796.375 865.279 796.75 902.436 800.298ZM1158.74 977.903C1151.75 979.803 1144.1 987.872 1121.33 1017.33C1105.93 1037.25 1105.68 1037.76 1110.25 1039.51C1114.9 1041.3 1124.63 1034.46 1134.86 1022.2C1139.89 1016.17 1145.64 1009.4 1147.63 1007.15C1154.69 999.196 1168.24 977.807 1166.73 976.983C1165.9 976.522 1162.3 976.936 1158.74 977.903ZM1181.51 1071.75C1178.15 1072.76 1168.98 1075.5 1161.14 1077.82C1099.17 1096.22 1061.19 1147.37 1061.84 1211.58C1061.98 1225.32 1061.38 1236.56 1060.5 1236.56C1059.63 1236.56 1056.66 1233.38 1053.89 1229.49C1046.28 1218.78 1022.77 1198.95 1000.21 1184.21C989.213 1177.02 965.616 1167.21 954.38 1165.15C949.338 1164.23 941.547 1162.65 937.065 1161.63C925.513 1159.02 881.715 1163.92 858.64 1170.42C843.721 1174.62 808.212 1192.47 793.818 1203.01C774.432 1217.2 743.557 1255.68 734.987 1276.32C715.821 1322.49 712.509 1357.62 723.358 1399.62C732.899 1436.54 762.778 1472.73 799.237 1491.52C806.338 1495.18 812.632 1499.44 813.227 1500.99C813.879 1502.69 815.83 1503.33 818.134 1502.6C820.236 1501.93 825.398 1502.49 829.604 1503.84C833.811 1505.2 838.539 1506.66 840.109 1507.09C842.313 1507.7 842.081 1508.55 839.091 1510.82C836.96 1512.43 836.306 1513.78 837.64 1513.82C838.975 1513.86 840.696 1512.86 841.466 1511.62C842.391 1510.12 847.086 1509.79 855.336 1510.64C891.196 1514.33 916.324 1514.41 931.779 1510.87C957.822 1504.92 982.867 1497.64 990.512 1493.79C992.486 1492.8 998.605 1489.8 1004.11 1487.13C1020.33 1479.27 1024.37 1476.91 1029.75 1472.19C1032.55 1469.74 1037.59 1466.04 1040.95 1463.99C1049.53 1458.73 1058.87 1449.64 1070.51 1435.19C1092.65 1407.7 1103.44 1374.59 1101.94 1338.74L1101.13 1319.6L1113.82 1331.77C1168.96 1384.66 1247.98 1390.89 1315.95 1347.71C1337.64 1333.93 1361.19 1304.96 1369.83 1281.42C1371.27 1277.49 1373.84 1271.13 1375.54 1267.27C1380.56 1255.89 1380.81 1220.78 1375.98 1205.35C1373.8 1198.4 1372.01 1191.63 1371.99 1190.31C1371.88 1180.13 1353.26 1149.54 1335.3 1130.01C1316.46 1109.53 1274.41 1081.58 1262.43 1081.58C1260.07 1081.58 1257.65 1080.79 1257.06 1079.83C1255.94 1078.02 1231.47 1071.93 1224.28 1071.68C1222.04 1071.6 1212.88 1071.17 1203.91 1070.73C1194.95 1070.28 1184.87 1070.74 1181.51 1071.75ZM798.13 1085.56C777.514 1086.79 771.073 1089.81 778.058 1094.97C782.922 1098.57 881.269 1099.23 893.779 1095.75C902.585 1093.3 903.546 1090.45 896.472 1087.76C890.493 1085.48 824.235 1084 798.13 1085.56ZM1223.27 1088.88C1223.27 1089.52 1220.64 1092.68 1217.43 1095.89C1200.41 1112.93 1212.52 1139.04 1241.06 1146.87C1259.46 1151.91 1263.36 1151.91 1271.67 1146.84C1281.33 1140.94 1285.77 1130.56 1283.03 1120.27C1281.84 1115.81 1281.68 1112.17 1282.66 1112.17C1287.49 1112.17 1318.97 1136.84 1323.73 1144.35C1324.65 1145.8 1328.09 1149.74 1331.37 1153.1C1334.65 1156.46 1337.34 1160.18 1337.34 1161.37C1337.34 1162.57 1339.38 1166.4 1341.87 1169.9C1364.96 1202.37 1367.19 1250.3 1347.33 1287.59C1336.62 1307.7 1292.83 1344.63 1279.69 1344.63C1278.06 1344.63 1273.59 1345.95 1269.75 1347.55C1239.02 1360.4 1185.98 1356.91 1158.4 1340.22C1145.04 1332.14 1119.72 1311.83 1114.76 1305.21C1108.71 1297.14 1092.44 1267.86 1090.22 1261.03C1082.06 1235.96 1079.24 1218.42 1080.08 1197.81C1080.55 1186.04 1081.8 1175.53 1082.84 1174.47C1083.89 1173.4 1084.75 1170.86 1084.75 1168.81C1084.75 1162.23 1100.46 1133.91 1110.23 1122.87C1128.3 1102.44 1145.12 1091.9 1164.19 1089.02C1172.69 1087.74 1223.27 1087.62 1223.27 1088.88ZM926.88 1178.29C945.934 1181.15 966.944 1187.57 967.983 1190.83C968.315 1191.87 965.357 1194.81 961.414 1197.37C946.592 1206.98 940.935 1230.9 949.976 1245.73C967.455 1274.42 1022.22 1272.32 1028.72 1242.72C1029.46 1239.33 1030.82 1236.56 1031.74 1236.56C1034.6 1236.56 1045.21 1250.13 1059.46 1271.99C1071.54 1290.54 1081.1 1324.54 1081.04 1348.71C1080.86 1410.27 1026.69 1463.08 941.139 1485.1C926.815 1488.79 881.438 1490.19 864.751 1487.46C777.766 1473.24 729.972 1408.79 743.398 1323.81C745.396 1311.15 748.203 1299.42 749.633 1297.73C751.061 1296.05 756.158 1285.5 760.955 1274.28C769.423 1254.49 770.421 1253.16 794.945 1228.91C808.839 1215.17 821.124 1203.93 822.245 1203.93C823.365 1203.93 827.201 1201.76 830.768 1199.1C839.734 1192.42 858.141 1183.54 863.016 1183.54C865.238 1183.54 868.884 1182.56 871.117 1181.36C874.749 1179.42 893.705 1176.21 904.473 1175.71C906.714 1175.61 916.797 1176.77 926.88 1178.29ZM784.289 1516.6C757.203 1531.09 735.321 1544.59 723.531 1554.1C713.932 1561.84 721.873 1559.3 734.732 1550.51C751.025 1539.38 769.512 1528.13 786.487 1519.03C794.242 1514.87 801.457 1510.63 802.52 1509.62C806.686 1505.64 800.005 1508.2 784.289 1516.6ZM801.461 1527.65C780.341 1538.2 747.236 1560.06 749.279 1562.1C749.723 1562.55 755.49 1559.3 762.094 1554.89C777.282 1544.74 796.692 1533.57 814.335 1524.83C826.964 1518.57 830.584 1515.92 826.51 1515.92C825.644 1515.92 814.372 1521.2 801.461 1527.65ZM853.427 1525.03C851.254 1526.68 850.443 1528.06 851.631 1528.09C852.816 1528.13 855.566 1526.81 857.742 1525.16C859.915 1523.52 860.726 1522.14 859.538 1522.11C858.353 1522.07 855.603 1523.39 853.427 1525.03ZM820.261 1541.76C807.759 1549.24 797.53 1556.11 797.53 1557.03C797.53 1557.95 803.26 1555.23 810.261 1550.98C817.264 1546.73 828.034 1540.68 834.196 1537.53C847.164 1530.91 850.663 1528.16 846.131 1528.16C844.405 1528.16 832.764 1534.28 820.261 1541.76ZM708.579 1566.22C709.327 1566.97 710.549 1566.97 711.297 1566.22C712.042 1565.47 711.431 1564.86 709.938 1564.86C708.445 1564.86 707.834 1565.47 708.579 1566.22ZM981.219 1587.75C977.245 1591.73 978.463 1597.38 985.962 1609.74C1012.03 1652.69 1075.3 1665.97 1125.35 1638.99C1141.58 1630.24 1147.22 1624.48 1143.34 1620.61C1140.61 1617.86 1139.31 1618.02 1131.48 1622.02C1087.53 1644.46 1038.15 1641.89 1008.7 1615.62C1002.27 1609.88 995.273 1601.79 993.156 1597.63C988.06 1587.63 984.381 1584.59 981.219 1587.75Z" fill="black"/>
<ellipse cx="849.288" cy="1275" rx="40" ry="34" fill="white"/>
<ellipse cx="1165.29" cy="1165" rx="40" ry="34" transform="rotate(-25.7802 1165.29 1165)" fill="white"/>
<path fill-rule="evenodd" clip-rule="evenodd" d="M1982.13 2313.06C2014.14 2330.11 2070.14 2387.72 2099.19 2433.49C2123.7 2472.09 2125.74 2475.8 2136.81 2501.88C2181.24 2606.5 2182.6 2711.8 2140.51 2787.19L2129.98 2806.05L2147.95 2825.26C2210.73 2892.37 2221.63 3011.76 2175.73 3129.49C2154.72 3183.37 2136.77 3211.17 2102.45 3242.94C2089.17 3255.24 2070.19 3270.05 2060.28 3275.86C2043.54 3285.67 1984.23 3309.65 1956.56 3317.8L1944.56 3321.33L1944.09 3406.41C1943.7 3479.38 1942.4 3496.32 1935 3525.48C1907.17 3635.1 1836.78 3705.67 1712.32 3748.77C1617.36 3781.65 1495.19 3803.34 1356.56 3811.94C1259.37 3817.96 785.473 3815.13 660.561 3807.78C584.754 3803.31 508.17 3795.6 478.562 3789.46C388.342 3770.74 347.559 3756.04 301.403 3725.57C240.611 3685.44 207.791 3633.15 185.867 3541.48C182.091 3525.69 180.599 3483.43 180.583 3391.69L180.563 3263.89L156.564 3259.13C121.284 3252.14 108.012 3247.25 86.0199 3233.14C41.3281 3204.46 17.4162 3157.25 4.48422 3072.2C-2.98374 3023.08 -0.775835 2927.55 8.52412 2897.49C34.272 2814.24 90.5919 2770.84 202.623 2747.95C248.559 2738.56 350.787 2729.29 450.562 2725.47C546.058 2721.81 1709.04 2723.26 1756.56 2727.1C1771.96 2728.34 1798.96 2730.23 1816.56 2731.29C1871.7 2734.62 1926.96 2741.44 1971.55 2750.43C2000.12 2756.19 2015.88 2757.76 2018.54 2755.11C2020.73 2752.92 2025.38 2732.3 2028.88 2709.3C2044.19 2608.72 2019.59 2472.54 1965.13 2356.4C1942.23 2307.56 1947.34 2294.52 1982.13 2313.06ZM1967.82 2330.49C1968.99 2333.24 1979.15 2356.61 1990.39 2382.42C2039.83 2495.94 2059.54 2639.02 2039.21 2736.84C2034.94 2757.39 2029.66 2775.98 2027.48 2778.16C2024.86 2780.79 2010.81 2779.41 1986.04 2774.1C1856.82 2746.43 1765.68 2743.47 1044.56 2743.54C369.631 2743.6 274.699 2747.48 164.651 2779.52C84.9438 2802.73 47.0359 2838.97 27.592 2910.55C22.5121 2929.25 20.8881 2950.99 21.1001 2997.49C21.7681 3145.54 60.6279 3217.64 152.564 3241.39C163.563 3244.23 178.311 3250.33 185.339 3254.94L198.111 3263.33L198.183 3369.41C198.279 3514.71 206.111 3567.15 236.167 3623.77C254.523 3658.35 268.623 3674.9 300.375 3699.13C339.395 3728.92 415.754 3758.98 474.562 3767.7C601.166 3786.48 679.349 3790.02 1008.56 3791.8C1336.62 3793.58 1392.4 3791.56 1509.81 3773.62C1590.03 3761.36 1676.88 3740.63 1716.3 3724.34C1811.97 3684.8 1862.74 3642.69 1894.04 3576.88C1915.04 3532.72 1926.42 3465.9 1926.5 3386.22C1926.53 3351.77 1928.37 3321.57 1930.7 3317.22C1933.48 3312.01 1939.08 3309.49 1947.81 3309.49C1954.94 3309.49 1964.55 3306.84 1969.17 3303.61C1973.78 3300.37 1986.11 3294.83 1996.55 3291.28C2027.01 3280.94 2069.77 3253.41 2096.55 3226.92C2144.87 3179.09 2180.83 3087.83 2185.36 3001.49C2189.05 2931.21 2169.95 2876.14 2127.35 2834.28L2105.76 2813.06L2116.09 2798.15C2128.73 2779.92 2144.25 2736.44 2150.59 2701.49C2171.13 2588.34 2094.36 2415.26 1988.96 2337.06C1972.39 2324.77 1964.33 2322.27 1967.82 2330.49ZM1612.36 2885.26C1610.27 2887.33 1590.56 2894.21 1568.56 2900.54L1528.56 2912.06L1528.67 2929.77C1528.73 2939.52 1530.1 2968.55 1531.72 2994.29C1535.07 3047.47 1532.04 3085.49 1524.44 3085.49C1517.72 3085.49 1515.45 3073.69 1514.85 3035.49C1514.17 2993.05 1510.29 2919.89 1508.63 2918.23C1507.9 2917.5 1492.65 2921.54 1474.73 2927.2C1437.06 2939.09 1434.56 2939.39 1434.56 2931.98C1434.56 2922.89 1496.07 2900.56 1550.56 2889.88C1562.66 2887.51 1576.16 2884.86 1580.56 2883.99C1597.12 2880.73 1616.16 2881.49 1612.36 2885.26ZM465.906 2910.49C471.386 2928.45 478.026 2976.89 484.374 3045.23C489.558 3101.05 489.226 3113.49 482.562 3113.49C477.47 3113.49 475.322 3104.42 470.082 3060.78C467.358 3038.07 464.902 3019.09 464.626 3018.6C464.35 3018.12 450.726 3022.95 434.346 3029.33L404.562 3040.95L406.03 3079.21C407.058 3106.09 406.138 3117.49 402.93 3117.49C394.694 3117.49 391.326 3099.81 382.667 3011.09C377.963 2962.91 373.37 2921.24 372.462 2918.49C369.97 2910.93 374.707 2901.49 380.991 2901.49C384.055 2901.49 386.686 2901.94 386.838 2902.49C386.986 2903.04 390.422 2929.27 394.47 2960.79C398.518 2992.3 402.65 3018.91 403.658 3019.91C405.426 3021.68 457.282 3004.1 460.866 3000.52C462.79 2998.59 456.026 2926.31 452.254 2908.49C448.822 2892.28 460.89 2894.04 465.906 2910.49ZM927.064 2907.02C978.692 2925.47 1011.84 2994.75 991.396 3041.49C977.076 3074.23 936.056 3105.53 905.644 3106.91C884.66 3107.87 882.68 3098.95 882.672 3003.49C882.672 2957.29 883.756 2915.44 885.08 2910.49C887.912 2899.92 903.576 2898.63 927.064 2907.02ZM158.563 2906.52C158.563 2907.08 164.035 2933.63 170.719 2965.51C177.407 2997.4 185.615 3036.99 188.963 3053.49C196.595 3091.1 207.107 3125.49 210.975 3125.49C216.251 3125.49 220.895 3091.67 226.371 3013.34C230.735 2950.92 232.387 2944.6 243.903 2946.28C250.427 2947.23 255.459 2956.03 267.199 2987.03C286.471 3037.94 315.487 3096.06 320.339 3093.49C322.419 3092.39 323.779 3085.19 323.363 3077.49C322.951 3069.79 320.687 3030.39 318.335 2989.94C314.195 2918.84 315.503 2904.65 325.619 2910.9C331.175 2914.34 341.395 3097.66 337.007 3115.15C333.303 3129.89 322.435 3127.98 310.087 3110.4C297.315 3092.22 265.859 3027.2 255.939 2998.49C251.951 2986.94 247.479 2977.49 246.011 2977.49C244.539 2977.49 242.135 2996.84 240.667 3020.49C237.147 3077.3 231.223 3127.23 226.543 3139.54C223.955 3146.35 219.711 3149.49 213.103 3149.49C195.615 3149.49 186.675 3120.17 154.727 2958.05C144.967 2908.52 144.844 2905.49 152.564 2905.49C155.864 2905.49 158.563 2905.95 158.563 2906.52ZM1799.6 2920.49C1809.94 2937.44 1813 2946 1830.46 3006.65C1844.09 3053.99 1850.55 3101.49 1843.37 3101.49C1836.6 3101.49 1833.82 3094.72 1824.59 3055.76C1818.22 3028.87 1814.51 3019.89 1810.27 3021.05C1807.13 3021.91 1793.32 3025.4 1779.58 3028.81C1764.09 3032.65 1754 3037.37 1753.01 3041.25C1742.26 3083.16 1741.26 3085.49 1734.04 3085.49C1724.78 3085.49 1724.59 3088.85 1736.7 3038.05C1765.81 2915.9 1769.42 2905.49 1782.61 2905.49C1787.38 2905.49 1794.04 2911.36 1799.6 2920.49ZM1982.56 2909C1982.56 2917.53 1973.77 2920.84 1933.94 2927.33L1919.32 2929.71L1921.52 3000.89C1923.86 3076.69 1921.67 3101.49 1912.64 3101.49C1903.82 3101.49 1902.8 3091.99 1903.11 3012.11C1903.27 2970.65 1901.86 2935.24 1899.98 2933.43C1898.1 2931.61 1887 2932.04 1875.33 2934.38C1859.42 2937.57 1852.92 2937.45 1849.36 2933.9C1842.5 2927.03 1851.84 2922.36 1878.52 2919.29C1890.64 2917.9 1914.96 2914.44 1932.56 2911.61C1972.97 2905.11 1982.56 2904.61 1982.56 2909ZM1329.29 2923.33C1346.49 2938.06 1356.97 2957.42 1353.14 2967.41C1349.39 2977.18 1343.68 2974.46 1338.85 2960.6C1327.99 2929.47 1295.62 2914 1285.91 2935.31C1278.07 2952.52 1287.91 2966.93 1324.43 2991.75C1367.63 3021.09 1377.76 3039.96 1364.29 3066C1355.89 3082.25 1334.77 3091.03 1316.33 3085.93C1293.38 3079.6 1254.56 3048.05 1254.56 3035.75C1254.56 3030.18 1270.02 3034.26 1276.63 3041.57C1288.74 3054.94 1319.3 3073.49 1329.24 3073.49C1341.95 3073.49 1354.56 3059.89 1354.56 3046.18C1354.56 3032.91 1345.5 3023.55 1310.07 3000.21C1277.29 2978.62 1265.13 2961.11 1267.96 2939.53C1272.18 2907.36 1301.56 2899.6 1329.29 2923.33ZM898.316 2918.22C896.664 2953.65 899.808 3088.32 902.344 3090.86C906.608 3095.13 937.276 3081.01 950.9 3068.5C971.308 3049.76 982.564 3028.74 982.472 3009.56C982.312 2976.59 960.08 2940.65 930.56 2925.64C908.624 2914.48 898.596 2912.17 898.316 2918.22ZM1680.03 2922.49C1684.71 2940.02 1695.1 3058.75 1692.77 3068.05C1688.93 3083.35 1683.23 3078.89 1680.54 3058.49C1675.12 3017.3 1674.76 3016.48 1663.15 3019.11C1657.32 3020.44 1643.52 3022.63 1632.49 3023.97L1612.42 3026.41L1612.49 3051.61C1612.55 3075.22 1609.55 3085.81 1604.28 3080.55C1601.6 3077.86 1595.36 3019.53 1591.87 2964.49C1589.79 2931.73 1590.33 2925.49 1595.27 2925.49C1599.77 2925.49 1602.38 2935.86 1606.4 2969.68L1611.66 3013.88L1624.11 3011.49C1630.95 3010.18 1645.06 3007.22 1655.44 3004.92L1674.33 3000.74L1671.83 2957.11C1670.17 2928.08 1670.72 2913.49 1673.48 2913.49C1675.76 2913.49 1678.7 2917.54 1680.03 2922.49ZM581.874 2922.66C588.386 2930.5 646.561 3107.15 646.561 3119.07C646.561 3142.35 638.329 3128.98 614.322 3066.73C611.13 3058.45 610.121 3058.27 595.753 3063.34C587.398 3066.29 572.91 3070.97 563.562 3073.74L546.562 3078.77V3109.89C546.562 3139.95 541.598 3152.87 534.474 3141.34C525.77 3127.26 547.514 2942.6 560.314 2921.89C564.022 2915.89 576.63 2916.34 581.874 2922.66ZM762.561 2923.16C762.561 2928.52 751.889 2931.84 709.517 2939.63C701.241 2941.15 693.753 2943.55 692.877 2944.97C692.001 2946.4 694.493 2970.04 698.413 2997.52C702.337 3025 706.629 3065.03 707.945 3086.49C709.949 3119.04 709.385 3125.49 704.529 3125.49C697.209 3125.49 696.093 3119.68 690.677 3053.49C688.249 3023.79 684.345 2988.24 682.001 2974.5L677.745 2949.51L649.609 2952.12C609.738 2955.83 614.706 2946.32 658.869 2934.39C718.101 2918.4 762.561 2913.58 762.561 2923.16ZM1230.56 2923C1230.56 2928.77 1216.95 2935.46 1196.56 2939.72C1169.39 2945.4 1170.56 2943.86 1170.56 2974.22C1170.56 3001.49 1170.86 3002.34 1179.56 3000.08C1213.51 2991.27 1230.76 2988.36 1233.39 2990.99C1238.27 2995.87 1219.05 3007.99 1193.68 3016.05C1176.83 3021.39 1169.79 3025.73 1168.65 3031.49C1165.39 3047.83 1162.42 3093.49 1164.61 3093.49C1165.86 3093.49 1173.55 3090.09 1181.72 3085.93C1201.67 3075.77 1238.56 3065.06 1238.56 3069.43C1238.56 3079.06 1178.43 3110.49 1163.37 3108.72C1149.8 3107.13 1146.79 3093.55 1151.09 3053.31C1152.85 3036.91 1154.94 3003.24 1155.75 2978.49C1156.55 2953.75 1157.96 2932.96 1158.88 2932.3C1159.8 2931.63 1171.36 2928.2 1184.56 2924.68C1215.44 2916.42 1230.56 2915.87 1230.56 2923ZM1095.8 2930.49C1121.72 2954.67 1132.61 3001.7 1120.74 3038.25C1103.03 3092.77 1063.37 3113.01 1031.5 3083.79C1016.56 3070.09 1016.56 3070.09 1016.69 3032.79C1016.8 3000.39 1018.33 2992.18 1028.28 2970.38C1041.01 2942.51 1061.74 2921.49 1076.49 2921.49C1081.8 2921.49 1090.49 2925.54 1095.8 2930.49ZM1770.62 2968.28C1765.85 2989.84 1760.97 3010.91 1759.79 3015.09C1758.06 3021.21 1759.1 3022.13 1765.1 3019.81C1769.2 3018.22 1781.56 3014.93 1792.56 3012.49C1803.56 3010.05 1812.96 3007.82 1813.46 3007.54C1816.19 3005.97 1787.72 2931.88 1783.89 2930.6C1781.01 2929.64 1776.09 2943.6 1770.62 2968.28ZM1070.41 2938.76C1050.26 2954.26 1034.56 2995.24 1034.56 3032.34C1034.56 3064.27 1042.05 3077.49 1060.13 3077.49C1108.9 3077.49 1128.25 2983.25 1087.45 2944.41C1078.65 2936.02 1075.38 2934.94 1070.41 2938.76ZM566.562 2942.8C566.562 2943.89 564.046 2957.99 560.966 2974.13C557.89 2990.28 554.05 3015.91 552.438 3031.09L549.502 3058.7L563.03 3055.64C570.474 3053.96 582.862 3051.37 590.562 3049.88C602.442 3047.59 604.41 3045.69 603.562 3037.33C601.766 3019.67 575.966 2943.96 571.202 2942.37C568.65 2941.52 566.562 2941.71 566.562 2942.8ZM1020.86 3165.6C1026.8 3167.86 1037.27 3174.38 1044.12 3180.08C1065.29 3197.72 1078.35 3229.49 1064.44 3229.49C1061.06 3229.49 1057.15 3226.34 1055.73 3222.49C1046.6 3197.71 1017.2 3177.57 998.728 3183.43C988.4 3186.71 974.56 3204.41 974.56 3214.33C974.56 3227.11 994.776 3243.37 1024.98 3254.9C1058.71 3267.77 1070.44 3278.95 1073.4 3301.02C1076.46 3323.79 1068.58 3340.29 1050.15 3349.7C1022.03 3364.04 998.104 3358.18 964.66 3328.74C948.444 3314.46 940.588 3297.49 950.2 3297.49C952.204 3297.49 962.592 3304.4 973.284 3312.85C999.58 3333.64 1009.09 3338.29 1025.36 3338.29C1043.17 3338.29 1058.56 3324.43 1058.56 3308.39C1058.56 3291.53 1040.12 3276.1 1009.82 3267.6C977.392 3258.5 954.56 3237.41 954.56 3216.55C954.56 3198.77 968.776 3177.47 986.64 3168.49C1002.84 3160.35 1006.29 3160.06 1020.86 3165.6ZM1247.32 3183.53C1248.9 3192.31 1250.01 3222.94 1249.77 3251.61C1249.25 3314.26 1252.13 3322.52 1273.82 3320.71C1287.03 3319.61 1289.13 3317.83 1294.09 3303.49C1299.29 3288.47 1302.23 3195.68 1298.15 3175.64C1297.13 3170.6 1299.01 3167.29 1303.41 3166.37C1313.17 3164.35 1316.19 3179.5 1316.39 3231.49C1316.61 3288.96 1312.9 3308.98 1298.93 3325.72C1289.39 3337.14 1284.96 3339.31 1271.07 3339.31C1258.37 3339.31 1252.02 3336.76 1243.56 3328.28C1232.56 3317.25 1232.56 3317.25 1232.56 3241.28C1232.56 3176.25 1233.41 3165.47 1238.5 3166.44C1241.93 3167.09 1245.65 3174.3 1247.32 3183.53ZM1765.26 3175.89C1768.79 3185.07 1763.12 3187.33 1717.4 3194.97C1654.67 3205.45 1659.58 3203.25 1660.57 3220.42C1661.05 3228.71 1661.69 3241.55 1662 3248.95C1662.52 3261.55 1663.27 3262.25 1673.56 3259.73C1730.78 3245.72 1752.03 3243.07 1749.64 3250.24C1747.83 3255.67 1715.08 3266.91 1682.12 3273.4L1659.69 3277.82L1657.28 3306.48C1655.96 3322.25 1655.56 3335.82 1656.39 3336.65C1657.22 3337.48 1668.39 3334.47 1681.22 3329.97C1756.84 3303.43 1770.9 3308.56 1700.53 3337.03C1644.7 3359.61 1644.46 3359.49 1644.84 3307.03C1645.74 3182.55 1645.4 3185.77 1657.56 3186.23C1669.41 3186.67 1711.82 3179.93 1734.56 3173.97C1755.72 3168.43 1762.56 3168.85 1765.26 3175.89ZM1457.43 3182.12C1472.68 3186.75 1490.57 3206.55 1490.54 3218.79C1490.52 3232.13 1476.38 3252.33 1461.73 3259.96C1454.49 3263.73 1438.75 3269.75 1426.77 3273.33L1404.99 3279.83L1426.77 3292.22C1460.84 3311.59 1494.03 3345.49 1478.94 3345.49C1476.95 3345.49 1467.72 3339.14 1458.44 3331.39C1449.16 3323.63 1426.49 3308.89 1408.06 3298.63C1389.63 3288.37 1374.56 3278.58 1374.56 3276.87C1374.56 3272.01 1389.03 3265.49 1399.83 3265.49C1416.99 3265.49 1450.85 3252.43 1462.91 3241.16C1493.44 3212.63 1457.87 3184.15 1400.63 3191.3C1365.87 3195.65 1366.54 3193.93 1370.91 3267.49C1373 3302.69 1373.74 3335.53 1372.56 3340.49C1369.67 3352.54 1358.56 3352.24 1358.56 3340.11C1358.56 3334.95 1356.61 3302.64 1354.24 3268.32C1348.77 3189.33 1350.09 3185.45 1384.6 3179.03C1409.61 3174.39 1435.56 3175.49 1457.43 3182.12ZM1172.14 3189.33C1194.81 3197.95 1207.32 3246.96 1196.46 3284.57C1189.24 3309.57 1182.32 3319.33 1165.77 3327.89C1117.9 3352.65 1075.21 3294.01 1096.72 3233.05C1109.98 3195.43 1140.97 3177.47 1172.14 3189.33ZM1586.24 3199.83C1602.16 3206.19 1610.97 3215.79 1616.25 3232.49C1620.24 3245.11 1609.41 3244.44 1600.96 3231.54C1597.38 3226.07 1590.27 3218.86 1585.17 3215.52C1555.91 3196.35 1518.43 3252.47 1530.52 3297.36C1537.35 3322.73 1555.24 3327.77 1588.23 3313.63C1608.56 3304.91 1612.21 3308.46 1596.02 3321.2C1558.89 3350.4 1521.51 3336.03 1513.07 3289.31C1507.71 3259.69 1529.52 3213.11 1554.64 3200.49C1571.31 3192.12 1567.19 3192.2 1586.24 3199.83ZM720.089 3242.49C730.149 3312.37 735.637 3341.68 739.049 3343.79C743.561 3346.57 749.517 3321.84 761.765 3249.49C764.165 3235.31 766.481 3231.49 772.649 3231.49C778.969 3231.49 783.001 3238.84 793.485 3269.49C818.025 3341.22 829.289 3357.26 825.089 3314.49C823.845 3301.83 821.681 3270.17 820.277 3244.11C817.869 3199.41 818.145 3196.82 825.145 3198.15C833.129 3199.67 833.965 3205.95 840.716 3315.53C843.305 3357.51 842.849 3364.27 837.121 3369.02C831.697 3373.52 829.465 3373.56 824.233 3369.21C816.369 3362.69 795.685 3322.16 786.605 3295.49C782.861 3284.49 778.285 3275.49 776.441 3275.49C774.593 3275.49 769.269 3294.39 764.605 3317.49C755.001 3365.08 749.617 3377.49 738.561 3377.49C725.609 3377.49 724.845 3374.81 708.361 3271.49C700.037 3219.32 700.741 3197.49 710.753 3197.49C712.321 3197.49 716.525 3217.74 720.089 3242.49ZM459.602 3248.52C509.01 3323.28 516.266 3333.49 519.986 3333.49C521.914 3333.49 522.454 3328.53 521.186 3322.49C514.422 3290.27 505.422 3213.29 508.106 3210.61C513.558 3205.16 521.814 3221.42 524.442 3242.79C525.842 3254.17 529.722 3281.81 533.07 3304.19C540.002 3350.6 539.33 3367.49 530.562 3367.49C524.43 3367.49 468.066 3294.67 447.806 3260.57C441.622 3250.16 434.946 3241.61 432.974 3241.57C428.242 3241.46 433.09 3315 440.646 3357.94C448.054 3400.02 448.018 3402.36 440.01 3400.78C427.334 3398.28 414.594 3319.99 414.574 3244.49C414.558 3186.51 418.87 3186.89 459.602 3248.52ZM1135.13 3207.88C1104.02 3229.87 1103.11 3300.46 1133.76 3313.16C1161.81 3324.77 1182.71 3302.24 1183.08 3259.99C1183.2 3246.51 1180.71 3228.29 1177.55 3219.49C1172.54 3205.52 1170.07 3203.34 1158.18 3202.35C1150.24 3201.68 1140.63 3203.99 1135.13 3207.88ZM662.561 3217.02C662.561 3220.92 628.569 3235.21 606.562 3240.56C592.622 3243.95 592.558 3244.07 591.37 3268.73C590.678 3283.17 591.826 3293.49 594.134 3293.49C596.306 3293.49 610.561 3288.99 625.805 3283.49C654.893 3272.99 666.561 3271.14 666.561 3277C666.561 3283.25 657.173 3288.22 623.154 3299.96L589.742 3311.49L591.726 3336.92C594.73 3375.44 598.733 3377.58 639.117 3362.23C657.265 3355.34 673.097 3350.69 674.309 3351.9C678.317 3355.91 649.509 3376.28 629.825 3383.36C606.589 3391.72 593.166 3389.17 583.614 3374.61C577.598 3365.44 576.562 3354.17 576.562 3297.98V3232.1L588.562 3228.66C630.581 3216.63 641.741 3213.99 651.561 3213.75C657.613 3213.61 662.561 3215.08 662.561 3217.02ZM1762.91 3410.61C1790.74 3429.36 1788.88 3456.54 1757.36 3491.88C1730.97 3521.47 1722.22 3534.77 1714.21 3557.48C1709.68 3570.34 1705.68 3575.48 1700.21 3575.48C1679.49 3575.48 1693.34 3538.15 1731.97 3489.92C1768.49 3444.31 1767.42 3423 1728.64 3423.85C1703.51 3424.4 1678.38 3438.87 1662.75 3461.78C1649.17 3481.68 1636.53 3487.28 1631.98 3475.41C1625.93 3459.66 1654.45 3426.88 1689.93 3408.79C1710.9 3398.09 1745.63 3398.96 1762.91 3410.61ZM1172.06 3431.64C1173.36 3435.02 1175.63 3472.77 1177.11 3515.52C1179.61 3587.75 1179.3 3593.45 1172.7 3595.98C1163.95 3599.34 1148.99 3582.79 1113.59 3530.56C1099.82 3510.25 1087.35 3493.6 1085.87 3493.56C1084.39 3493.52 1083.85 3506.53 1084.66 3522.48C1089.16 3610.46 1088.82 3623.24 1081.94 3624.61C1076.35 3625.72 1074.92 3620.72 1072.8 3592.7C1071.42 3574.43 1069.9 3532.66 1069.42 3499.88C1068.48 3434.91 1072.06 3424.42 1085.6 3452.44C1106.28 3495.24 1155.06 3566.32 1160.21 3561.16C1161.46 3559.92 1160.87 3530.23 1158.91 3495.19C1156.95 3460.15 1156.17 3430.14 1157.19 3428.48C1160.39 3423.28 1169.61 3425.23 1172.06 3431.64ZM1350.18 3433.38C1412.82 3451.34 1425.24 3520.89 1374.86 3571.58C1341.71 3604.94 1313.9 3614.8 1306.67 3595.78C1304.39 3589.79 1304.5 3571.8 1306.95 3548.78C1309.13 3528.27 1310.39 3495.99 1309.77 3477.06C1308.21 3430.31 1314.77 3423.22 1350.18 3433.38ZM917.648 3446.48C916.776 3449.24 904.9 3455.26 891.252 3459.88C877.604 3464.5 865.756 3469 864.92 3469.88C864.085 3470.76 865.1 3496.68 867.184 3527.48C870.924 3582.81 869.212 3617.48 862.745 3617.48C856.268 3617.48 854.264 3603.44 851.8 3540.81C850.064 3496.7 847.892 3477.48 844.644 3477.48C842.084 3477.48 831.425 3480.4 820.957 3483.97C806.273 3488.97 800.861 3489.37 797.245 3485.7C790.473 3478.83 801.069 3472.17 835.7 3461.53C851.572 3456.66 870.86 3450.24 878.56 3447.28C896.856 3440.24 919.768 3439.78 917.648 3446.48ZM794.561 3448.9C794.561 3452.22 741.625 3469.52 731.561 3469.5C725.133 3469.48 725.273 3476.1 732.561 3517.48C740.441 3562.22 740.673 3613.48 732.993 3613.48C725.705 3613.48 723.553 3603.67 720.265 3555.48C718.765 3533.48 716.369 3507.38 714.941 3497.48L712.341 3479.48L689.453 3480.83C676.497 3481.59 666.561 3480.5 666.561 3478.32C666.561 3474.42 695.833 3462.71 732.561 3451.92C754.573 3445.45 794.561 3443.5 794.561 3448.9ZM1323.73 3504.23C1323.28 3536.82 1322.38 3568.71 1321.73 3575.09C1320.08 3591.46 1326.84 3591.85 1346.93 3576.52C1373.43 3556.31 1387.59 3533.7 1389.44 3508.62C1391.93 3475.03 1374.66 3454.37 1338.42 3447.57L1324.56 3444.97L1323.73 3504.23ZM1502.69 3451.55C1525.92 3463.57 1538.33 3506.32 1530.54 3547.56C1523.33 3585.77 1500.35 3612.4 1471.23 3616.3C1424.26 3622.6 1406.4 3540.66 1440.45 3475.05C1446.75 3462.91 1472.21 3445.54 1483.76 3445.5C1487.71 3445.49 1496.23 3448.22 1502.69 3451.55ZM575.97 3478.48C577.358 3490.03 578.55 3517.48 578.622 3539.48C578.766 3584.03 582.89 3607.52 592.19 3616.82C597.81 3622.44 599.774 3622.39 612.734 3616.21C640.641 3602.9 651.157 3553.33 638.281 3495.79C634.333 3478.15 634.285 3472.16 638.061 3468.38C644.745 3461.7 648.545 3468.71 654.693 3499.06C666.453 3557.13 656.509 3606.44 628.773 3627.59C613.697 3639.09 590.442 3640.8 580.754 3631.1C565.566 3615.92 562.974 3603.2 560.146 3530.06C557.406 3459.06 557.518 3457.48 565.394 3457.48C572.122 3457.48 573.862 3460.94 575.97 3478.48ZM1015.19 3462.48C1025.61 3470.94 1035.84 3511.89 1033.42 3535.42C1027.59 3591.86 982.692 3625.05 944.288 3601.32C927.74 3591.09 920.772 3571.98 920.9 3537.17C921.02 3502.97 934.324 3478.4 959.452 3465.96C978.5 3456.53 1005.76 3454.83 1015.19 3462.48ZM499.49 3469.98C521.662 3481.85 521.318 3506.68 498.802 3519.98C485.398 3527.9 482.982 3533.48 492.962 3533.48C496.482 3533.48 505.63 3539.75 513.294 3547.42C525.406 3559.53 526.874 3563.06 524.522 3574.42C518.406 3603.97 477.622 3635.63 440.006 3640.03C416.026 3642.83 400.847 3632.92 396.903 3611.88C394.707 3600.19 406.939 3497.26 412.954 3476.76C414.162 3472.64 419.134 3469.98 425.746 3469.9C431.694 3469.84 442.862 3468.04 450.562 3465.92C465.39 3461.83 487.726 3463.68 499.49 3469.98ZM1463.39 3470.6C1435.34 3500.46 1433.65 3588.61 1460.94 3599.08C1472.6 3603.55 1495.87 3588.73 1505.86 3570.48C1522.13 3540.73 1519.4 3492.19 1500.28 3471.56C1488.67 3459.04 1474.6 3458.67 1463.39 3470.6ZM972.56 3476.16C965.96 3479.56 956.06 3487.92 950.56 3494.74C941.832 3505.58 940.56 3511.08 940.56 3538.02C940.56 3563.1 942.132 3570.98 948.956 3580.18C961.852 3597.55 978.288 3597.32 998.012 3579.5C1022.11 3557.73 1026.49 3522.61 1010.11 3482.48C1004.05 3467.64 992.828 3465.75 972.56 3476.16ZM441.814 3482.03C427.986 3485.9 426.842 3487.45 423.53 3506.82C421.582 3518.19 420.538 3528.61 421.202 3529.98C423.354 3534.42 460.058 3525.69 478.138 3516.44C487.806 3511.49 497.674 3504.34 500.07 3500.54C510.278 3484.36 474.314 3472.93 441.814 3482.03ZM433.874 3544.38C420.41 3545.8 418.998 3547.16 416.882 3560.71C407.242 3622.47 419.506 3635.96 464.95 3613.59C490.786 3600.87 510.61 3581.98 510.502 3570.18C510.406 3559.64 505.406 3554.26 489.55 3547.64C475.314 3541.69 465.038 3541.09 433.874 3544.38ZM1708.66 3621.66C1712.62 3628.05 1702.72 3637.48 1692.07 3637.48C1681.85 3637.48 1679.56 3630.08 1687.36 3622.28C1693.26 3616.38 1705.18 3616.02 1708.66 3621.66Z" fill="black"/>
<path fill-rule="evenodd" clip-rule="evenodd" d="M1414.76 10.1817C1517.37 24.5215 1552.66 31.6654 1613.31 50.3811C1697.62 76.4007 1754.99 110.252 1793.85 156.904C1819.57 187.783 1827.38 201.067 1841.68 238.33C1864.04 296.545 1872.68 343.061 1872.72 405.488C1872.78 477.067 1857.52 527.814 1826.6 558.941C1807.6 578.073 1804.41 580.357 1778.11 593.629C1721.62 622.149 1657.44 633.944 1541.48 637.116L1456.21 639.452L1437.48 670.988C1411.44 714.855 1412.42 713.167 1394.94 744.315C1364.34 798.826 1336.88 838.429 1326.34 843.233C1317.04 847.469 1314.95 846.949 1308.29 838.725C1296.02 823.569 1298.12 795.002 1319.48 686.316C1325.32 656.616 1330.18 629.164 1330.28 625.316C1330.49 617.725 1344.76 615.281 1344.76 622.837C1344.76 625.32 1340.4 647.368 1335.08 671.836C1324.12 722.211 1317.2 769.614 1315.92 803.13C1315.04 826.393 1317.17 833.005 1324.15 828.693C1331.71 824.021 1379.68 747.127 1405.48 698.315C1409.55 690.615 1421.23 671.54 1431.43 655.92L1449.99 627.524L1526.37 624.977C1612.59 622.097 1659.87 615.953 1725.2 599.129C1754.82 591.501 1799.94 566.537 1814.18 549.898C1848.93 509.302 1862.81 442.307 1853.04 362.32C1834.7 212.115 1776.07 131.36 1651.49 84.7005C1559.22 50.1451 1454.69 30.1894 1322.5 21.9015C1227.36 15.9376 1026.98 19.4295 960.766 28.2014C900.966 36.1293 817.436 52.689 794.96 61.0809C683.986 102.508 622.135 161.639 602.235 245.322C580.079 338.505 607.675 479.127 661.794 548.854C710.565 611.685 805.096 630.652 1008.76 618.469C1102.88 612.837 1304.37 612.329 1309.75 617.705C1314.24 622.196 1286.33 625.065 1184.76 630.544C1141.86 632.856 1083.36 636.324 1054.76 638.244C970.509 643.904 800.296 640.596 765.624 632.624C694.138 616.189 649.218 581.873 618.703 520.39C608.431 499.694 598.247 475.911 596.067 467.539C567.559 358.016 565.531 276.566 589.671 210.323C600.743 179.939 630.231 137.064 655.19 115.06C723.037 55.241 837.203 17.2696 981.617 6.49774C1013.05 4.14977 1045.96 1.54579 1054.76 0.701803C1063.56 -0.142185 1134.66 -0.238187 1212.76 0.485803C1329.99 1.56979 1365.23 3.26181 1414.76 10.1817ZM960.598 182.155C968.857 190.415 1008.76 269.806 1008.76 277.978C1008.76 280.61 1012.23 290.373 1016.47 299.681C1020.71 308.985 1025.41 321.505 1026.92 327.497C1031.34 345.145 1035.68 343.565 1038.52 323.281C1043.99 284.054 1061.44 196.543 1065.16 189.571C1067.3 185.587 1072.56 182.323 1076.85 182.323C1085.64 182.323 1093.9 198.887 1102.77 234.322C1105.8 246.422 1111.88 270.482 1116.29 287.79C1126.56 328.097 1137.85 401.236 1136.11 416.168C1135.37 422.512 1132.54 428.431 1129.82 429.323C1122.6 431.695 1118.13 416.992 1113.47 375.484C1108.68 332.877 1081.71 218.323 1076.46 218.323C1074.51 218.323 1072.08 222.37 1071.07 227.322C1062.8 267.618 1060.63 280.466 1057.06 310.321C1054.82 329.021 1052.68 357.82 1052.3 374.32C1051.48 410.072 1050.22 414.32 1040.41 414.32C1035.49 414.32 1032.08 410.544 1030.49 403.32C1021.63 363.144 994.205 285.266 975.197 246.322L952.746 200.323L954.514 248.322C955.49 274.722 960.15 331.965 964.873 375.524C973.165 451.979 973.237 466.319 965.318 466.319C959.074 466.319 956.814 455.455 948.77 386.692C936.706 283.554 931.454 198.227 936.374 185.323C941.31 172.375 949.718 171.275 960.598 182.155ZM866.203 189.323C867.343 195.371 870.219 218.323 872.595 240.322C874.967 262.322 879.511 303.721 882.683 332.321C893.727 431.795 894.635 454.319 887.599 454.319C880.243 454.319 875.615 433.795 868.387 369.124C864.243 332.053 862.651 326.325 857.163 328.725C853.643 330.265 830.688 337.077 806.14 343.861L761.517 356.196L763.765 417.8C765.617 468.487 765.057 479.083 760.609 477.599C752.749 474.979 749.489 458.943 744.941 400.448C741.189 352.213 738.653 324.425 729.241 228.406C725.521 190.431 726.481 182.323 734.709 182.323C740.325 182.323 745.129 209.859 753.381 289.322C757.605 329.985 759.517 338.029 764.62 336.609C768 335.665 788.768 330.085 810.768 324.201C832.767 318.321 853.263 312.753 856.311 311.833C862.031 310.101 862.051 311.165 854.051 209.323C851.971 182.831 852.527 178.323 857.875 178.323C861.531 178.323 864.991 182.895 866.203 189.323ZM1191.07 203.323C1204.41 219.067 1225.43 263.47 1237.72 301.885C1247.19 331.469 1252.75 337.913 1252.78 319.321C1252.8 303.817 1268.26 212.171 1272.92 199.919C1277.8 187.063 1288.85 188.563 1295.78 203.019C1317.49 248.322 1340.58 416.32 1325.09 416.32C1317.41 416.32 1314.5 404.316 1309.06 350.321C1304.72 307.233 1291.35 235.574 1286.8 231.026C1285.68 229.906 1283.94 229.81 1282.93 230.818C1280.66 233.09 1266.27 326.737 1262.53 363.636C1260.66 382.08 1257.85 391.692 1253.86 393.22C1245.75 396.332 1242.05 388.968 1236.91 359.5C1229.01 314.153 1190.63 218.323 1180.36 218.323C1175.09 218.323 1176.17 268.39 1182.83 332.321C1193.9 438.635 1194.13 442.319 1189.57 442.319C1187.19 442.319 1184.08 440.455 1182.67 438.175C1172.79 422.183 1155.43 200.991 1163.43 192.991C1169.5 186.919 1180.72 191.111 1191.07 203.323ZM1383.74 211.323C1397.62 232.082 1421.02 279.93 1433.14 312.321L1442.11 336.321L1449.39 294.321C1453.39 271.222 1459.86 240.622 1463.77 226.322C1470.01 203.499 1472.05 200.323 1480.5 200.323C1492.24 200.323 1495.28 211.815 1510.11 312.321C1524.3 408.56 1526.01 434.091 1518.45 436.991C1515.13 438.263 1511.36 438.255 1510.07 436.971C1508.79 435.683 1505.37 413.412 1502.47 387.476C1494.39 315.105 1483.32 243.55 1479.63 239.866C1476.05 236.282 1469.6 263.682 1462.64 312.025C1453.81 373.372 1451.49 383.472 1445.81 385.332C1440.27 387.148 1438.17 382.516 1422.72 334.321C1410.95 297.617 1382.87 234.322 1378.36 234.322C1375.78 234.322 1379.18 309.213 1382.99 336.321C1383.91 342.921 1385.86 367.668 1387.33 391.32C1389.61 428.335 1389.14 434.319 1383.89 434.319C1376.78 434.319 1375.56 426.627 1367.05 328.321C1358.23 226.414 1357.43 208.139 1361.47 200.919C1367.11 190.831 1371.37 192.823 1383.74 211.323ZM1588.04 403.32C1587.21 409.104 1583.54 412.776 1577.76 413.6C1567.86 415.004 1565.57 407.104 1573.56 399.12C1581.54 391.136 1589.44 393.428 1588.04 403.32ZM1648.76 398.584C1648.76 407.728 1640.1 418.32 1632.62 418.32C1623.73 418.32 1621.89 406.784 1629.56 399.12C1635.5 393.172 1648.76 392.804 1648.76 398.584ZM1706.91 402.572C1710.09 407.708 1697.67 422.319 1690.13 422.319C1682.31 422.319 1683.54 407.424 1691.75 402.64C1700.79 397.38 1703.69 397.364 1706.91 402.572Z" fill="black"/>
<defs>
<linearGradient id="paint0_linear_1102_225" x1="1062.02" y1="785" x2="1062.02" y2="2437" gradientUnits="userSpaceOnUse">
<stop stop-color="#BB89FF"/>
<stop offset="1" stop-color="#887AFF"/>
</linearGradient>
</defs>
</svg>
