<svg viewBox="0 0 72 24" fill="none" xmlns="http://www.w3.org/2000/svg"><path d="M36.12 3.677c0-1.128.95-2.045 2.069-2.045 1.118 0 2.069.921 2.069 2.045a2.075 2.075 0 01-2.07 2.068 2.057 2.057 0 01-2.068-2.068zM29.98 1.92h3.6v20.16h-3.6V1.92zM40.008 7.68H36.38v14.4h3.63V7.68zM66.096 14.39c2.731-1.68 4.589-4.18 5.323-6.715H67.79c-.945 2.42-3.115 4.239-5.5 5.011V1.916h-3.63v20.16h3.63V16.08c2.77.691 4.958 3.086 5.707 5.995h3.653c-.557-3.053-2.645-5.909-5.554-7.685zM46.44 9.293c.95-1.263 2.803-1.997 4.306-1.997 2.803 0 5.121 2.05 5.126 5.145v9.634h-3.629v-8.832c0-1.272-.566-2.74-2.405-2.74-2.16 0-3.403 1.914-3.403 4.156v7.426h-3.629V7.689h3.634v1.604z" fill="var(--color-inverse)"/><path d="M12 24c6.627 0 12-5.373 12-12S18.627 0 12 0 0 5.373 0 12s5.373 12 12 12z" fill="#00D66F"/><path d="M11.448 4.8h-3.7c.72 3.01 2.821 5.582 5.452 7.2-2.635 1.617-4.733 4.19-5.453 7.2h3.7c.918-2.784 3.457-5.203 6.577-5.698v-3.01c-3.125-.489-5.664-2.908-6.576-5.692z" fill="var(--color-black)"/></svg>