<svg xmlns="http://www.w3.org/2000/svg" width="250" height="250" fill="none"><g clip-path="url(#a)"><path fill="url(#b)" d="m146.55 125.051 74.282-79.226a14.574 14.574 0 0 0 3.992-7.925c.475-2.99.004-6.054-1.345-8.766a16.604 16.604 0 0 0-6.275-6.758A16.66 16.66 0 0 0 208.283 20h-70.201a47.791 47.791 0 0 0-18.941 3.754 47.698 47.698 0 0 0-15.896 10.938L30.016 112.46A18.174 18.174 0 0 0 25 124.993c0 4.664 1.796 9.151 5.017 12.533l73.229 77.781a47.697 47.697 0 0 0 15.863 10.925A47.8 47.8 0 0 0 138.009 230h70.274a16.647 16.647 0 0 0 8.925-2.38 16.594 16.594 0 0 0 6.271-6.768 14.565 14.565 0 0 0-2.647-16.677l-74.282-79.124ZM117.3 46.263a28.452 28.452 0 0 1 9.458-6.508 28.516 28.516 0 0 1 11.266-2.247h65.813l-69.718 74.251-8.585-9.148a58.042 58.042 0 0 0-30.933-17.07l-2.135-.439a57.166 57.166 0 0 0-10.735-1.138L117.3 46.263ZM55.464 137.86l-11.451-11.964a1.326 1.326 0 0 1-.38-.904c.018-.337.152-.656.38-.905l11.393-11.95a35.484 35.484 0 0 1 11.727-7.983 35.551 35.551 0 0 1 13.925-2.755 36.88 36.88 0 0 1 7.313.744l2.135.438a39.263 39.263 0 0 1 20.871 11.512l10.237 10.899-10.237 10.899a39.183 39.183 0 0 1-20.87 11.526l-2.136.438a35.966 35.966 0 0 1-17.732-.806 35.894 35.894 0 0 1-15.175-9.189Zm82.545 74.733a28.475 28.475 0 0 1-11.268-2.244 28.422 28.422 0 0 1-9.456-6.511l-35.568-37.818a57.17 57.17 0 0 0 10.75-1.138l2.134-.438a58.011 58.011 0 0 0 30.933-17.056l8.585-9.207 69.733 74.412h-65.843Z"/></g><defs><linearGradient id="b" x1="225" x2="25" y1="124.993" y2="124.993" gradientUnits="userSpaceOnUse"><stop stop-color="#FFA448"/><stop offset="1" stop-color="#FF4459"/></linearGradient><clipPath id="a"><path fill="#fff" d="M25 20h200v210H25z"/></clipPath></defs></svg>