<svg xmlns="http://www.w3.org/2000/svg" width="273.333" height="273.333" version="1.0" viewBox="10 5 174 205"><path d="M98.41 34.456c-6 3.6-11.1 6.7-11.3 6.9-.7.7 3.3 7.5 4.5 7.5.7 0 3.8-1.4 6.9-3.1 3-1.7 5.7-2.9 6-2.6.3.2-.2 3.8-1.1 7.8-.8 4.1-1.5 7.9-1.5 8.6 0 .6 1.9 1.4 4.1 1.8 5.1.9 5.4.4 7-9.3.6-3.9 1.5-7.2 1.9-7.2.4 0 2.7 2.4 5 5.4 4.7 5.9 5.4 6 9.7 1.4l2.2-2.4-8.7-10.4c-6.3-7.6-9.4-10.6-11.2-10.7-1.6-.2-6.4 2.1-13.5 6.3zM65.41 50.556c-12.6.6-12.4.3-14.9 17-.9 5.6-1.7 10.8-1.8 11.4-.3 1.1 8 3.4 8.9 2.5.2-.2.8-3.2 1.4-6.7.6-3.5 1.3-6.6 1.5-6.9.3-.3 3.2 2.4 6.4 6l5.8 6.5 3.1-2.9c1.7-1.7 3.1-3.4 3.1-3.9s-2.2-3.4-5-6.5c-2.7-3.1-5-6-5-6.4 0-.4 3.2-.8 7-.8h7v-10l-5.2.2c-2.9.1-8.4.3-12.3.5zM130.51 62.956c-.9 2.3-1.6 4.3-1.4 4.4.2.2 3 1.4 6.3 2.8 3.2 1.4 6.1 2.9 6.2 3.3.2.5-2.9 2.6-6.7 4.7-3.9 2.1-7 4.1-7 4.5 0 .4 1 2.4 2.3 4.4l2.2 3.6 6.5-3.8c3.6-2.2 7.1-3.9 7.8-4 1.3 0 1.1 3.4-.8 10.7-1 3.8-.7 4 4.7 4.9 4.7.7 4.2 1.8 6.9-15.2 1.8-11.7 1.6-14-1.3-15.1-1-.3-5.8-2.3-10.8-4.3-13.8-5.7-13-5.7-14.9-.9zM90.91 82.156c-5.8 3.4-11.1 6.6-11.8 7-1 .7-.8 1.7.9 4.5 1.3 2 2.4 3.9 2.5 4 .1.2 3-1.3 6.4-3.3 3.5-1.9 6.5-3.4 6.7-3.1.3.2-.1 3.8-.7 8-1.6 9.5-1.2 10.6 3.9 10.6h3.9l1.2-6.8c1.5-8.5 2-10.2 2.8-10.2.4.1 2.7 2.5 5.1 5.5l4.3 5.5 3-2.1c1.6-1.2 3.2-2.7 3.5-3.4.7-2.1-16.6-22.5-19.1-22.5-1.2.1-6.8 2.9-12.6 6.3zM36.01 94.056c-9.6 8.5-10.3 9.4-9.8 12.2.6 3.6 11.6 23.6 13 23.6.5 0 2.5-.9 4.4-2.1l3.4-2.1-3.5-6.3c-1.9-3.5-3.3-6.5-3-6.7.2-.3 3.5.1 7.2.8 10 2 9.9 2 10.5-2.8.3-2.5.1-4.5-.5-4.9-.6-.4-4.3-1.2-8.4-1.8-8.3-1.4-8.5-1.9-1.9-7.1 2.5-1.9 4.5-4 4.5-4.7 0-.7-1.2-2.6-2.7-4.3l-2.8-3zM150.41 106.556c-1.6.8-3.2 1.7-3.4 1.9-.2.2 1.1 3.1 2.8 6.5 1.8 3.3 3 6.3 2.7 6.6-.3.3-3.4 0-6.9-.6-9.4-1.6-9.4-1.6-10.2 3-.4 2.2-.5 4.3-.2 4.5.2.3 3.7 1 7.8 1.7 4 .7 7.4 1.7 7.5 2.2.1.6-1.9 2.8-4.6 5-2.7 2.2-4.9 4.4-4.9 5 0 1.3 4.5 6.5 5.7 6.5 1.5 0 21.2-18 21.2-19.5 0-2.1-12.4-24.5-13.5-24.5-.5.1-2.3.8-4 1.7zM82.21 127.456c-6.2 3.6-11.3 7.1-11.3 7.7 0 .7.9 2.7 2 4.5 2.2 3.6 2.1 3.6 10.3-1.5 2.2-1.4 4.1-2.2 4.4-1.9.3.3 0 4.1-.8 8.5-.7 4.5-1 8.3-.7 8.7.4.3 2.4.8 4.5 1.1l3.9.5 1.2-5.3c.6-3 1.4-6.9 1.7-8.7.4-1.7 1-3.2 1.3-3.2.4 0 2.7 2.5 5 5.5l4.3 5.5 3.5-2.6c1.9-1.5 3.4-3 3.4-3.5s-3.9-5.7-8.6-11.4c-6.1-7.3-9.3-10.5-10.8-10.5-1.1 0-7.2 3-13.3 6.6zM38.61 136.556c-.3.4-.8 6.7-1.2 13.9-.7 12.4-.6 13.3 1.2 14.2 3.1 1.7 25.3 8 25.7 7.3.2-.3.8-2.3 1.4-4.3l1-3.8-6.9-2.1c-3.8-1.1-6.9-2.4-6.9-2.7 0-.4 1.9-1.9 4.3-3.4 2.3-1.5 5.3-3.6 6.6-4.7l2.4-1.8-2.2-3.7c-1.3-2-2.5-3.6-2.7-3.6-.3 0-3.5 2.1-7.2 4.6l-6.7 4.6-.5-7.4-.5-7.3-3.7-.3c-2-.2-3.8.1-4.1.5zM118.31 155.056c-1.6 1.2-3.1 2.3-3.3 2.5-.2.1 1.5 3.1 3.8 6.5 2.3 3.5 4 6.7 3.9 7.3-.2.6-3.1.9-7 .6l-6.8-.3v8.9l7.7.7c4.2.3 10.4.6 13.9.6 7.3 0 7.2.1 10.4-11.1 5-17.2 5-16.3-1-17.4l-3.5-.6-1.9 6.5c-1 3.6-2.2 6.6-2.6 6.6-.4 0-2.7-2.9-5-6.5s-4.6-6.5-5-6.5c-.4 0-2 1-3.6 2.2zM79.81 171.756c-6 6-2.4 15.1 5.9 15.1 8.6 0 12.3-9 6.3-15.1-2-2-3.9-2.9-6.1-2.9-2.2 0-4.1.9-6.1 2.9z"/></svg>
