<svg xmlns="http://www.w3.org/2000/svg" width="250" height="250" fill="none"><g clip-path="url(#a)"><path fill="#2F2D32" d="M170.293 109.525c6.953 0 11.41 5.434 9.941 13.9-1.518 8.466-7.933 14.094-14.837 14.094-4.261 0-6.955-2.104-8.228-4.307l-1.954 11.172a5.574 5.574 0 0 1-5.496 4.616h-1.717a.419.419 0 0 1-.412-.49l6.729-38.198a.413.413 0 0 1 .411-.345h6.056a.403.403 0 0 1 .32.149.41.41 0 0 1 .09.341l-.599 3.424a13.044 13.044 0 0 1 9.696-4.356Zm-2.84 6.022c-3.673 0-7.68 2.837-8.566 7.969-.931 5.14 2.007 7.972 5.729 7.972 3.721 0 7.688-2.939 8.618-8.076.879-5.126-2.056-7.865-5.781-7.865ZM193.464 101h-6.066a.407.407 0 0 0-.399.334l-6.221 35.206a.427.427 0 0 0 .42.499h6.066a.407.407 0 0 0 .399-.335l6.22-35.203a.428.428 0 0 0-.419-.5V101Zm27.467 8.893h-6.001a.425.425 0 0 0-.419.351l-2.585 14.594c-.738 4.361-3.579 6.712-7.256 6.712s-5.638-2.351-4.903-6.712l2.56-14.443a.445.445 0 0 0-.009-.185.445.445 0 0 0-.232-.277.415.415 0 0 0-.18-.04h-6a.423.423 0 0 0-.416.35l-2.734 15.575c-.998 5.619.935 9.342 4.68 10.829l.029.014.079.028c.319.122.645.226.975.313 2.438.694 6.351 1.094 11.597-1.981l-.262 1.521a.422.422 0 0 0 .418.497h6.004a.428.428 0 0 0 .419-.35l4.654-26.297a.423.423 0 0 0-.418-.499Zm13.016-.442c-6.571 0-11.033 3.382-11.033 8.185 0 8.819 13.483 7.446 13.483 11.857 0 1.918-2.108 2.793-4.559 2.793-2.713 0-4.349-1.38-4.38-3.412a.417.417 0 0 0-.422-.41h-5.851a.418.418 0 0 0-.284.107.424.424 0 0 0-.142.268c-.507 5.092 4.223 8.64 10.588 8.64 6.668 0 11.668-3.037 11.668-8.182 0-8.428-13.386-7.3-13.386-11.857 0-1.715 1.668-2.794 4.021-2.794 2.713 0 4.261 1.328 4.283 3.36a.423.423 0 0 0 .424.414h5.537a.425.425 0 0 0 .428-.395c.294-5.034-3.922-8.574-10.375-8.574Zm-178.165 3.731h-3.728v-2.893h3.728V101h3.483v9.289h7.35v2.893h-7.35v16.615c0 3.284 1.126 4.313 4.216 4.313h3.134v2.941h-3.673c-4.66 0-7.16-1.911-7.16-7.254v-16.615Zm14.364-2.893h3.433v26.762h-3.433v-26.762Zm46.278 11.469c0-5.93-3.089-8.969-7.846-8.969-4.856 0-8.29 3.234-8.29 9.76v14.511h-3.384v-15.3c0-5.931-3.138-8.97-7.895-8.97-4.905 0-8.289 3.234-8.289 9.753v14.508h-3.433v-26.762h3.433v4.608c1.716-3.383 5.1-5.098 8.877-5.098 4.463 0 8.288 2.107 9.907 6.568 1.477-4.363 5.394-6.568 9.661-6.568 5.934 0 10.643 3.725 10.643 11.567v15.685h-3.384v-15.293Zm19.259 15.685c-7.601 0-13.144-5.294-13.144-13.773 0-8.529 5.443-13.773 13.144-13.773 7.848 0 12.654 5.587 12.654 12.399.019.9-.014 1.8-.097 2.696h-22.218c.296 6.274 4.659 9.557 9.661 9.557 4.562 0 7.652-2.4 8.632-5.978h3.629c-1.226 5.048-5.541 8.872-12.261 8.872Zm-9.661-15.243h18.833c.147-6.226-4.365-9.363-9.318-9.363-4.856 0-9.123 3.137-9.515 9.363Zm-56.29-17.639.607-3.561h3.397l-.607 3.561H69.731Z"/><path fill="#F2DBF3" d="M31.928 123.485a13.925 13.925 0 0 0-4.886-10.595l-.483-.147c-1.01.27-1.975.681-2.87 1.221a11.104 11.104 0 0 1 5.39 9.515 11.093 11.093 0 0 1-5.39 9.516c.895.54 1.86.95 2.87 1.218.163-.042.323-.09.483-.14a13.93 13.93 0 0 0 4.886-10.588Zm-25.084 0a11.128 11.128 0 0 1 7.773-10.597 13.929 13.929 0 0 1 6.214-3.065 13.964 13.964 0 0 0-11.673 2.824 13.949 13.949 0 0 0-3.807 16.839 13.962 13.962 0 0 0 9.324 7.566c2.02.488 4.123.52 6.156.094a13.931 13.931 0 0 1-6.203-3.065 11.127 11.127 0 0 1-7.784-10.598v.002Z"/><path fill="#EA9FCC" d="M37.668 123.485a13.92 13.92 0 0 0-4.891-10.597 11.128 11.128 0 0 0-6.21-.139 11.105 11.105 0 0 1 0 21.47c2.04.546 4.194.498 6.209-.138a13.93 13.93 0 0 0 4.892-10.596Zm-17.32 10.596a11.109 11.109 0 0 1 0-21.193 13.934 13.934 0 0 1 6.21-3.065 13.974 13.974 0 0 0-11.667 2.827 13.965 13.965 0 0 0-5.16 10.834 13.948 13.948 0 0 0 5.16 10.834 13.976 13.976 0 0 0 11.667 2.828 13.931 13.931 0 0 1-6.21-3.065Z"/><path fill="#FF244E" d="M29.425 109.525a13.972 13.972 0 0 0-12.904 8.617 13.952 13.952 0 0 0 3.028 15.212 13.973 13.973 0 0 0 21.49-2.115 13.956 13.956 0 0 0 2.353-7.755 13.969 13.969 0 0 0-4.096-9.865 13.986 13.986 0 0 0-9.87-4.094Zm11.117 13.959a11.107 11.107 0 0 1-6.862 10.268 11.125 11.125 0 0 1-12.118-2.408 11.109 11.109 0 0 1 1.685-17.098 11.125 11.125 0 0 1 6.178-1.872 11.135 11.135 0 0 1 7.857 3.258 11.119 11.119 0 0 1 3.26 7.852Z"/></g><defs><clipPath id="a"><path fill="#fff" d="M4 101h241v48H4z"/></clipPath></defs></svg>