<svg xmlns="http://www.w3.org/2000/svg" width="1196.5" height="1196.5" fill="none"><path fill="url(#a)" d="M1052.927 377.574c-.11 89.997-36 176.267-99.79 239.83v-.007l-226.29 225.49c-7.842 7.82-20.58 7.84-27.928-.44-55.015-61.996-85.588-142.176-85.49-225.479.105-89.997 36-176.267 99.787-239.83l.007.007 206.743-206.014c18.63-18.569 49.12-18.702 64.92 2.324 43.99 58.525 68.13 130.09 68.04 204.12z" style="fill:url(#a)"/><path fill="url(#b)" d="M243.36 618.778c-63.788-63.563-99.682-149.833-99.787-239.83-.087-74.03 24.048-145.594 68.035-204.119 15.803-21.026 46.293-20.893 64.928-2.324l206.74 206.016.007-.007c63.787 63.564 99.681 149.833 99.787 239.831.097 83.302-30.475 163.483-85.49 225.471-7.348 8.28-20.087 8.26-27.927.45L243.366 618.772z" style="fill:url(#b)"/><path fill="url(#c)" d="M944.626 1022.266c-16.63 20.39-47.03 20.21-65.63 1.59L751.3 896.016c-7.836-7.85-7.82-20.56.033-28.39l212.093-211.345c7.84-7.813 20.63-7.859 27.54.784 36.81 45.996 51.29 109.566 40.35 179.551-10.02 64.06-40.66 129.19-86.69 185.65z" style="fill:url(#c)"/><path fill="url(#d)" d="M317.504 1025.236c-18.594 18.61-49.002 18.79-65.626-1.6-46.036-56.46-76.672-121.58-86.688-185.64-10.942-69.992 3.532-133.562 40.342-179.558 6.917-8.642 19.704-8.597 27.545-.784l212.091 211.352c7.854 7.82 7.87 20.54.034 28.38z" style="fill:url(#d)"/><defs><linearGradient id="a" x1="795.443" x2="795.443" y1="356.357" y2="1056.76" gradientTransform="translate(-197.194 -198.924)" gradientUnits="userSpaceOnUse"><stop stop-color="#9F87FF"/><stop offset="1" stop-color="#8566FF"/></linearGradient><linearGradient id="b" x1="795.443" x2="795.443" y1="356.357" y2="1056.76" gradientTransform="translate(-197.194 -198.924)" gradientUnits="userSpaceOnUse"><stop stop-color="#9F87FF"/><stop offset="1" stop-color="#8566FF"/></linearGradient><linearGradient id="c" x1="795.443" x2="795.443" y1="841.123" y2="1237.29" gradientTransform="translate(-197.194 -198.924)" gradientUnits="userSpaceOnUse"><stop stop-color="#DE99F6"/><stop offset="1" stop-color="#D669FC"/></linearGradient><linearGradient id="d" x1="795.443" x2="795.443" y1="841.123" y2="1237.29" gradientTransform="translate(-197.194 -198.924)" gradientUnits="userSpaceOnUse"><stop stop-color="#DE99F6"/><stop offset="1" stop-color="#D669FC"/></linearGradient></defs></svg>