<svg height="37" viewBox="0 0 838 229" fill="none" xmlns="http://www.w3.org/2000/svg">
<path fill-rule="evenodd" clip-rule="evenodd" d="M62.1148 22.9477C82.2073 0.214697 115.482 -6.45416 142.838 6.66774C179.181 24.1039 192.441 68.5202 172.654 102.782L128.138 179.773C125.651 184.074 121.558 187.214 116.757 188.5C111.957 189.786 106.843 189.114 102.536 186.635L156.429 93.4061C170.785 68.5397 161.182 36.3075 134.833 23.6169C115.061 14.0952 90.8925 18.8519 76.2872 35.2268C68.2299 44.2164 63.7068 55.8225 63.5561 67.893C63.4052 79.9635 67.636 91.6791 75.4663 100.868C76.8735 102.515 78.3867 104.07 79.9981 105.521L48.5367 160.044C47.3064 162.175 45.6683 164.042 43.7158 165.542C41.7635 167.04 39.535 168.139 37.1579 168.776C34.7807 169.414 32.3014 169.576 29.8613 169.255C27.4213 168.933 25.0684 168.135 22.9368 166.906L57.0924 107.713C52.1864 100.639 48.6631 92.7016 46.7085 84.3184L25.7784 120.663C23.2905 124.966 19.1969 128.104 14.3968 129.39C9.59641 130.678 4.48172 130.007 0.175781 127.525L54.3011 33.7738C56.554 29.9239 59.1705 26.2985 62.1148 22.9477ZM124.586 52.7889C137.621 60.3172 142.123 77.059 134.58 90.0885L82.6782 179.762C80.191 184.063 76.0962 187.202 71.2958 188.488C66.4955 189.775 61.3816 189.103 57.0756 186.623L105.269 103.138C101.401 102.324 97.7583 100.681 94.5883 98.3202C91.4183 95.9616 88.7988 92.942 86.9093 89.4713C85.0198 86.0006 83.9057 82.1613 83.6447 78.2185C83.3837 74.2755 83.9814 70.3228 85.398 66.6335C86.8128 62.9442 89.0125 59.6061 91.8439 56.8495C94.6753 54.093 98.0703 51.9837 101.796 50.6673C105.522 49.3511 109.491 48.8592 113.425 49.2253C117.359 49.5917 121.168 50.8075 124.586 52.7889ZM105.708 69.6414C104.815 70.3261 104.066 71.18 103.504 72.1541C102.657 73.6211 102.262 75.3061 102.373 76.9962C102.485 78.6862 103.094 80.3056 104.125 81.6493C105.157 82.9927 106.563 84.0004 108.167 84.5448C109.771 85.0891 111.501 85.1457 113.137 84.7071C114.773 84.2686 116.241 83.3549 117.359 82.0814C118.475 80.808 119.19 79.2321 119.411 77.5527C119.63 75.8735 119.349 74.1663 118.6 72.6474C117.851 71.1282 116.668 69.8653 115.201 69.0184C114.229 68.456 113.152 68.091 112.038 67.9442C110.922 67.7975 109.789 67.8718 108.704 68.1631C107.618 68.4543 106.599 68.9565 105.708 69.6414Z" fill="#5F5CFF"/>
<path d="M793.093 179.151C783.487 179.151 774.948 176.957 767.476 172.569C760.123 168.063 754.371 162.014 750.221 154.424C746.07 146.716 743.994 138.117 743.994 128.63C743.994 118.905 746.07 110.307 750.221 102.835C754.49 95.3638 760.183 89.4933 767.298 85.2239C774.414 80.8359 782.479 78.6419 791.492 78.6419C798.726 78.6419 805.19 79.8871 810.882 82.3776C816.575 84.8681 821.378 88.3074 825.292 92.6954C829.205 96.9649 832.17 101.887 834.186 107.461C836.321 113.035 837.388 118.964 837.388 125.25C837.388 126.792 837.329 128.393 837.21 130.053C837.092 131.713 836.854 133.255 836.499 134.678H759.827V118.668H825.114L815.507 125.961C816.693 120.15 816.278 114.991 814.262 110.485C812.365 105.86 809.4 102.242 805.367 99.6333C801.454 96.9056 796.829 95.5417 791.492 95.5417C786.155 95.5417 781.411 96.9056 777.26 99.6333C773.109 102.242 769.907 106.037 767.654 111.018C765.401 115.881 764.511 121.811 764.986 128.808C764.393 135.33 765.282 141.023 767.654 145.885C770.145 150.748 773.584 154.543 777.972 157.271C782.479 159.998 787.578 161.362 793.271 161.362C799.082 161.362 804.004 160.058 808.036 157.449C812.187 154.839 815.448 151.459 817.82 147.309L834.186 155.314C832.289 159.82 829.324 163.912 825.292 167.588C821.378 171.146 816.634 173.993 811.06 176.127C805.605 178.143 799.616 179.151 793.093 179.151Z" fill="currentColor"/>
<path d="M728.75 178.083C718.67 178.083 710.843 175.237 705.269 169.544C699.695 163.852 696.908 155.846 696.908 145.529V98.9206H680.008V80.7755H682.676C687.183 80.7755 690.681 79.471 693.172 76.8619C695.662 74.2528 696.908 70.6949 696.908 66.1883V58.7168H717.01V80.7755H738.89V98.9206H717.01V144.639C717.01 147.96 717.543 150.806 718.611 153.178C719.678 155.431 721.398 157.21 723.77 158.515C726.141 159.701 729.225 160.294 733.02 160.294C733.969 160.294 735.036 160.234 736.222 160.116C737.408 159.997 738.535 159.879 739.602 159.76V177.016C737.942 177.253 736.103 177.49 734.087 177.727C732.071 177.964 730.292 178.083 728.75 178.083Z" fill="currentColor"/>
<path d="M526.032 179.151C518.561 179.151 511.741 177.609 505.574 174.526C499.526 171.442 494.842 166.995 491.521 161.184L493.834 157.448V177.016H474.621V42.3511H494.723V100.7L491.521 96.0748C495.079 90.6194 499.823 86.35 505.752 83.2665C511.682 80.183 518.442 78.6413 526.032 78.6413C535.164 78.6413 543.347 80.8353 550.581 85.2233C557.934 89.6113 563.686 95.6004 567.837 103.191C572.106 110.781 574.241 119.319 574.241 128.807C574.241 138.295 572.106 146.834 567.837 154.424C563.686 162.014 557.994 168.062 550.759 172.569C543.525 176.957 535.283 179.151 526.032 179.151ZM524.075 160.472C529.768 160.472 534.808 159.108 539.196 156.381C543.584 153.653 547.024 149.917 549.514 145.173C552.123 140.311 553.428 134.855 553.428 128.807C553.428 122.759 552.123 117.363 549.514 112.619C547.024 107.875 543.584 104.139 539.196 101.412C534.808 98.6839 529.768 97.32 524.075 97.32C518.501 97.32 513.461 98.6839 508.954 101.412C504.566 104.139 501.068 107.875 498.459 112.619C495.968 117.363 494.723 122.759 494.723 128.807C494.723 134.855 495.968 140.311 498.459 145.173C501.068 149.917 504.566 153.653 508.954 156.381C513.461 159.108 518.501 160.472 524.075 160.472Z" fill="currentColor"/>
<path d="M410.07 177.016V80.7755H429.283V100.166L427.504 97.3196C429.639 91.034 433.078 86.5274 437.822 83.7997C442.565 80.9534 448.258 79.5303 454.899 79.5303H460.77V97.8533H452.409C445.768 97.8533 440.371 99.9287 436.221 104.08C432.188 108.112 430.172 113.923 430.172 121.513V177.016H410.07Z" fill="currentColor"/>
<path d="M367.242 177.016V80.776H387.344V177.016H367.242ZM367.242 67.612V44.4858H387.344V67.612H367.242Z" fill="currentColor"/>
<path d="M234.178 177.016L280.786 44.4861H306.758L353.366 177.016H330.952L320.812 147.308H266.91L256.592 177.016H234.178ZM272.958 128.63H314.408L290.926 59.2513H296.796L272.958 128.63Z" fill="currentColor"/>
<path d="M622.518 150.511L634.136 122.004L649.853 80.7932H671.913L657.271 116.512L615.925 217.975C612.052 227.285 600.669 231.433 591.125 227.545L612.135 175.992L574.25 80.7932H595.775L622.518 150.511Z" fill="currentColor"/>
</svg>
