<svg width="37" height="37" viewBox="0 0 37 37" fill="none" xmlns="http://www.w3.org/2000/svg">
<path fill-rule="evenodd" clip-rule="evenodd" d="M11.9442 4.67844C15.811 0.291432 22.2149 -0.995522 27.4794 1.53674C34.4737 4.90156 37.0257 13.473 33.2175 20.0848L24.6504 34.9425C24.1717 35.7725 23.3841 36.3784 22.4602 36.6266C21.5364 36.8748 20.5521 36.7453 19.7233 36.2667L30.0951 18.2755C32.8579 13.4768 31.0099 7.25662 25.939 4.80758C22.1337 2.97009 17.4825 3.88803 14.6717 7.04806C13.1211 8.78287 12.2506 11.0226 12.2216 13.352C12.1925 15.6813 13.0068 17.9422 14.5137 19.7155C14.7845 20.0334 15.0758 20.3334 15.3859 20.6134L9.3311 31.1352C9.09432 31.5466 8.77906 31.9068 8.4033 32.1963C8.02758 32.4853 7.59872 32.6974 7.14124 32.8204C6.68373 32.9434 6.2066 32.9748 5.737 32.9128C5.26741 32.8507 4.81459 32.6967 4.40436 32.4594L10.9777 21.0364C10.0335 19.6713 9.35542 18.1395 8.97926 16.5217L4.95124 23.5355C4.47243 24.3659 3.68463 24.9715 2.76083 25.2197C1.837 25.4682 0.852669 25.3386 0.0239868 24.8598L10.4405 6.76766C10.874 6.0247 11.3776 5.32507 11.9442 4.67844ZM23.9668 10.4372C26.4755 11.89 27.3418 15.1208 25.8902 17.6352L15.9017 34.9403C15.423 35.7703 14.6349 36.3762 13.7111 36.6244C12.7873 36.8726 11.8031 36.7431 10.9744 36.2646L20.2493 20.1535C19.5049 19.9965 18.8038 19.6793 18.1938 19.2238C17.5837 18.7686 17.0796 18.1859 16.7159 17.5161C16.3523 16.8464 16.1379 16.1055 16.0877 15.3446C16.0374 14.5837 16.1525 13.8209 16.4251 13.1089C16.6974 12.3969 17.1207 11.7528 17.6656 11.2208C18.2105 10.6889 18.8639 10.2818 19.581 10.0278C20.2981 9.77377 21.0617 9.67883 21.8188 9.74949C22.576 9.8202 23.3091 10.0548 23.9668 10.4372ZM20.3337 13.6894C20.1619 13.8215 20.0178 13.9863 19.9097 14.1743C19.7466 14.4574 19.6705 14.7826 19.692 15.1087C19.7135 15.4348 19.8307 15.7474 20.0291 16.0067C20.2278 16.2659 20.4983 16.4604 20.8069 16.5654C21.1156 16.6705 21.4487 16.6814 21.7635 16.5967C22.0784 16.5121 22.3608 16.3358 22.576 16.0901C22.7907 15.8443 22.9283 15.5402 22.9709 15.2161C23.0131 14.8921 22.9589 14.5626 22.8148 14.2695C22.6706 13.9763 22.4431 13.7326 22.1606 13.5691C21.9736 13.4606 21.7664 13.3902 21.552 13.3619C21.3373 13.3335 21.1192 13.3479 20.9103 13.4041C20.7014 13.4603 20.5052 13.5572 20.3337 13.6894Z" fill="#615EFF"/>
</svg>