<svg viewBox="0 0 16 16" fill="none"
  xmlns="http://www.w3.org/2000/svg">
  <path d="M11.2707 8.34539L8.26367 7.88717L6.91764 5.16647C6.80308 4.93736 6.57397 4.79417 6.31622 4.79417C6.08711 4.79417 5.858 4.93736 5.74344 5.16647L4.39742 7.88717L1.39033 8.34539C0.846194 8.40267 0.645722 9.09 1.04667 9.4623L3.19458 11.5816L2.67908 14.5887C2.62181 14.9896 2.96547 15.3333 3.33778 15.3333C3.45233 15.3333 3.53825 15.3333 3.65281 15.276L6.34486 13.8441L9.00828 15.276C9.12283 15.3333 9.20875 15.3333 9.32331 15.3333C9.69561 15.3333 10.0393 15.0182 9.982 14.5887L9.4665 11.5816L11.6431 9.4623C12.0154 9.09 11.8149 8.40267 11.2707 8.34539ZM8.49278 10.6079L7.97728 11.0947L8.09183 11.8107L8.37822 13.3858L6.97492 12.6412L6.34486 12.2976L5.68617 12.6412L4.28286 13.3858L4.56925 11.8107L4.68381 11.0947L4.16831 10.6079L3.02275 9.49094L4.59789 9.26183L5.31386 9.14728L6.34486 7.08528L7.03219 8.51722L7.34722 9.14728L8.06319 9.26183L9.63833 9.49094L8.49278 10.6079ZM10.4689 5.25239L11.2135 3.73453L12.76 2.96128L11.2135 2.21667L10.4689 0.670166L9.69561 2.21667L8.17775 2.96128L9.69561 3.73453L10.4689 5.25239ZM14.5929 6.16883L14.1346 5.25239L13.6764 6.16883L12.76 6.62705L13.6764 7.08528L14.1346 8.00172L14.5929 7.08528L15.5093 6.62705L14.5929 6.16883Z" fill="url(#gradient_fill)"/>
  <defs>
    <linearGradient id="gradient_fill" x1="1.00244" y1="9.5" x2="13.0024" y2="10" gradientUnits="userSpaceOnUse">
      <stop stop-color="var(--start-color, currentColor)"/>
      <stop offset="1" stop-color="var(--stop-color, currentColor)"/>
    </linearGradient>
  </defs>
</svg>
