<svg viewBox="0 0 16 15" fill="none" xmlns="http://www.w3.org/2000/svg">
<path d="M11.1025 7.84539L8.09545 7.38717L6.74943 4.66647C6.63487 4.43736 6.40576 4.29417 6.14801 4.29417C5.9189 4.29417 5.68979 4.43736 5.57523 4.66647L4.2292 7.38717L1.22212 7.84539C0.677982 7.90267 0.477509 8.59 0.878454 8.9623L3.02637 11.0816L2.51087 14.0887C2.45359 14.4896 2.79726 14.8333 3.16956 14.8333C3.28412 14.8333 3.37004 14.8333 3.48459 14.776L6.17665 13.3441L8.84006 14.776C8.95462 14.8333 9.04054 14.8333 9.15509 14.8333C9.5274 14.8333 9.87106 14.5182 9.81379 14.0887L9.29829 11.0816L11.4748 8.9623C11.8471 8.59 11.6467 7.90267 11.1025 7.84539ZM8.32456 10.1079L7.80906 10.5947L7.92362 11.3107L8.21001 12.8858L6.8067 12.1412L6.17665 11.7976L5.51795 12.1412L4.11465 12.8858L4.40104 11.3107L4.51559 10.5947L4.00009 10.1079L2.85454 8.99094L4.42968 8.76183L5.14565 8.64728L6.17665 6.58528L6.86398 8.01722L7.17901 8.64728L7.89498 8.76183L9.47012 8.99094L8.32456 10.1079ZM10.3006 4.75239L11.0453 3.23453L12.5918 2.46128L11.0453 1.71667L10.3006 0.170166L9.5274 1.71667L8.00954 2.46128L9.5274 3.23453L10.3006 4.75239ZM14.4246 5.66883L13.9664 4.75239L13.5082 5.66883L12.5918 6.12705L13.5082 6.58528L13.9664 7.50172L14.4246 6.58528L15.3411 6.12705L14.4246 5.66883Z" fill="currentColor"/>
</svg>
