<svg width="24" height="24" fill="none" data-icon="arrowLeft" role="img" viewBox="5 5 14 14">
    <path fill="currentColor" d="M18.694 10.84h-7.546l2.816-2.816a.526.526 0 0 0 .132-.352.526.526 0 0 0-.132-.352l-1.188-1.166A.485.485 0 0 0 12.424 6a.485.485 0 0 0-.352.154l-5.918 5.918a.485.485 0 0 0-.154.352c0 .132.051.25.154.352l5.918 5.918c.103.103.22.154.352.154.132 0 .25-.051.352-.154l1.188-1.166a.526.526 0 0 0 .132-.352.526.526 0 0 0-.132-.352L10.95 13.81h7.744a.492.492 0 0 0 .506-.506v-1.98a.492.492 0 0 0-.506-.484Z"/>
</svg>
