<svg width="24" height="24" fill="none" data-icon="arrowRight" role="img" viewBox="5 5 14 14">
    <path fill="currentColor" d="M6.506 10.84h7.546l-2.816-2.816a.526.526 0 0 1-.132-.352c0-.132.044-.25.132-.352l1.188-1.166A.485.485 0 0 1 12.776 6c.132 0 .25.051.352.154l5.918 5.918c.103.103.154.22.154.352 0 .132-.051.25-.154.352l-5.918 5.918a.484.484 0 0 1-.352.154.484.484 0 0 1-.352-.154l-1.188-1.166a.526.526 0 0 1-.132-.352c0-.132.044-.25.132-.352l3.014-3.014H6.506A.492.492 0 0 1 6 13.304v-1.98a.492.492 0 0 1 .506-.484Z"/>
</svg>
