<svg fill="none" viewBox="0 0 24 24" data-icon="cactus" role="img">
    <path fill="currentColor" d="M19.119 2.295a4.162 4.162 0 1 0 0 8.324 4.162 4.162 0 0 0 0-8.324m0 6.243a2.08 2.08 0 1 1 0-4.162 2.08 2.08 0 0 1 0 4.162m-3.122 12.485h-2.08v-2.08a1.04 1.04 0 1 0-2.082 0v2.08h-2.08v-3.517l3.589-1.8a1.04 1.04 0 0 0 .572-.926V10.62a1.04 1.04 0 1 0-2.08 0v3.516l-2.082 1.04V8.539a1.04 1.04 0 0 0-2.08 0v8.719l-2.081-1.04V13.74a1.04 1.04 0 1 0-2.081 0v3.121a1.04 1.04 0 0 0 .572.926l3.59 1.8v1.436H3.512a1.04 1.04 0 1 0 0 2.081h12.485a1.04 1.04 0 1 0 0-2.08"/>
</svg>