<svg fill="none" viewBox="0 0 24 24" data-icon="certified" role="img">
    <path fill="currentColor" fill-rule="evenodd" d="M13.853 4.084 12 2l-1.853 2.084L7.55 2.99l-.743 2.661-2.826.114.515 2.712L2 9.775 3.671 12 2 14.225l2.496 1.298-.515 2.712 2.826.113.743 2.661 2.597-1.093L12 22l1.853-2.084 2.597 1.093.743-2.66 2.826-.114-.515-2.712L22 14.225 20.329 12 22 9.775l-2.496-1.298.515-2.712-2.826-.114-.743-2.66-2.597 1.093Zm1.397 4.989-4.469 4.479-1.718-1.719a1.042 1.042 0 1 0-1.47 1.469l2.449 2.458a1.044 1.044 0 0 0 1.469 0l5.208-5.208a1.042 1.042 0 1 0-1.469-1.48Z" clip-rule="evenodd"/>
</svg>
