<svg fill="none" viewBox="0 0 13 16" data-icon="collapseAllIcon" role="img">
    <g fill="currentColor">
        <path d="M7.636 9.358a.667.667 0 0 0-.22-.14.667.667 0 0 0-.506 0 .667.667 0 0 0-.22.14l-1.667 1.667a.67.67 0 0 0 .947.946l.526-.533v3.06a.667.667 0 1 0 1.334 0v-3.06l.526.533a.666.666 0 0 0 .947 0 .667.667 0 0 0 0-.946L7.636 9.358ZM6.69 6.305c.063.06.138.108.22.14a.627.627 0 0 0 .506 0 .667.667 0 0 0 .22-.14l1.667-1.667a.67.67 0 0 0-.947-.947l-.526.534v-3.06a.667.667 0 0 0-1.334 0v3.06L5.97 3.69a.67.67 0 1 0-.947.947L6.69 6.305Z"/>
        <path fill-rule="evenodd" d="M2.496 7.831c0-.368.299-.666.667-.666h8a.667.667 0 0 1 0 1.333h-8a.667.667 0 0 1-.667-.667Z" clip-rule="evenodd"/>
    </g>
</svg>
