<svg fill="none" viewBox="0 0 24 24" data-icon="connection" role="img">
    <path fill="currentColor" fill-rule="evenodd" d="M3 9a3 3 0 0 0 2.75-1.8c.448.26.75.745.75 1.3v7c0 .537.12 1.045.337 1.5H5.829a3.001 3.001 0 1 0 0 2h3.342a3.001 3.001 0 0 0 5.658 0h3.342a3.001 3.001 0 1 0 0-2h-1.008c.216-.455.337-.963.337-1.5v-7a1.5 1.5 0 0 1 .75-1.3 3 3 0 1 0-.115-2.092A3.501 3.501 0 0 0 15.5 8.5v7a1.5 1.5 0 0 1-.75 1.3 3 3 0 0 0-5.5 0 1.5 1.5 0 0 1-.75-1.3v-7a3.501 3.501 0 0 0-2.635-3.392A3.001 3.001 0 0 0 0 6a3 3 0 0 0 3 3Zm0-2a1 1 0 1 0 0-2 1 1 0 0 0 0 2Zm19-1a1 1 0 1 1-2 0 1 1 0 0 1 2 0Zm-1 13a1 1 0 1 0 0-2 1 1 0 0 0 0 2Zm-8-1a1 1 0 1 1-2 0 1 1 0 0 1 2 0Zm-9 0a1 1 0 1 1-2 0 1 1 0 0 1 2 0Z" clip-rule="evenodd"/>
    <path fill="currentColor" fill-rule="evenodd" d="M3 9a3 3 0 0 0 2.75-1.8c.448.26.75.745.75 1.3v7c0 .537.12 1.045.337 1.5H5.829a3.001 3.001 0 1 0 0 2h3.342a3.001 3.001 0 0 0 5.658 0h3.342a3.001 3.001 0 1 0 0-2h-1.008c.216-.455.337-.963.337-1.5v-7a1.5 1.5 0 0 1 .75-1.3 3 3 0 1 0-.115-2.092A3.501 3.501 0 0 0 15.5 8.5v7a1.5 1.5 0 0 1-.75 1.3 3 3 0 0 0-5.5 0 1.5 1.5 0 0 1-.75-1.3v-7a3.501 3.501 0 0 0-2.635-3.392A3.001 3.001 0 0 0 0 6a3 3 0 0 0 3 3Zm0-2a1 1 0 1 0 0-2 1 1 0 0 0 0 2Zm19-1a1 1 0 1 1-2 0 1 1 0 0 1 2 0Zm-1 13a1 1 0 1 0 0-2 1 1 0 0 0 0 2Zm-8-1a1 1 0 1 1-2 0 1 1 0 0 1 2 0Zm-9 0a1 1 0 1 1-2 0 1 1 0 0 1 2 0Z" clip-rule="evenodd"/>
</svg>
