<svg fill="none" viewBox="0 0 24 24" data-icon="copy" role="img">
    <path fill="currentColor" d="M21 8.94a1.307 1.307 0 0 0-.06-.27v-.09a1.07 1.07 0 0 0-.19-.28l-6-6a1.071 1.071 0 0 0-.28-.19.32.32 0 0 0-.09 0 .88.88 0 0 0-.33-.11H10a3 3 0 0 0-3 3v1H6a3 3 0 0 0-3 3v10a3 3 0 0 0 3 3h8a3 3 0 0 0 3-3v-1h1a3 3 0 0 0 3-3V8.94Zm-6-3.53L17.59 8H16a1 1 0 0 1-1-1V5.41ZM15 19a1 1 0 0 1-1 1H6a1 1 0 0 1-1-1V9a1 1 0 0 1 1-1h1v7a3 3 0 0 0 3 3h5v1Zm4-4a1 1 0 0 1-1 1h-8a1 1 0 0 1-1-1V5a1 1 0 0 1 1-1h3v3a3 3 0 0 0 3 3h3v5Z"/>
</svg>
