<svg fill="none" viewBox="0 0 24 24" data-icon="credits" role="img">
    <path fill="currentColor" d="M11.757 10.116a3.251 3.251 0 0 0-3.823.771c-.14.159-.264.33-.37.513L5 15.84a.889.889 0 0 0 1.213-.325l.991-1.721c.093.397.26.773.492 1.108l-1.618 2.804a.887.887 0 0 0 1.213-.325l1.49-2.583a2.362 2.362 0 0 1-.176-3.33c.692-.775 1.837-1 2.773-.55a2.36 2.36 0 0 1 1.023 3.306L9.848 18.64a.888.888 0 0 0 1.213-.325l2.109-3.647a3.249 3.249 0 0 0-1.413-4.552Z"/>
    <path fill="currentColor" fill-rule="evenodd" d="M11.366 14.067a1.294 1.294 0 1 0-1.388.618L7.695 18.64a.889.889 0 0 0 1.213-.325l2.458-4.248Zm-1.472-.85a.406.406 0 1 1 .703.406.406.406 0 0 1-.703-.405Z" clip-rule="evenodd"/>
    <path fill="currentColor" fill-rule="evenodd" d="M19.029 3.775A8.003 8.003 0 0 0 6.706 6.707a8 8 0 1 0 10.586 10.586 8 8 0 0 0 1.737-13.518ZM7.704 8.457a6 6 0 1 1 4.592 11.087A6 6 0 0 1 7.704 8.457Zm3.838-3.932a6 6 0 0 1 6.444 9.959 8.001 8.001 0 0 0-8.47-8.471 5.985 5.985 0 0 1 2.026-1.488Z" clip-rule="evenodd"/>
</svg>
