<svg fill="none" viewBox="0 0 24 24" data-icon="dbtCloud" role="img">
    <path fill="currentColor" d="M22.066 1.915c.516.498.855 1.155.934 1.87 0 .298-.079.496-.258.874-.18.378-2.388 4.197-3.045 5.25a4.011 4.011 0 0 0 0 4.14c.657 1.054 2.866 4.895 3.045 5.273.18.378.258.557.258.856a2.932 2.932 0 0 1-.915 1.85c-.498.516-1.155.855-1.85.915-.3 0-.497-.079-.856-.258-.359-.18-4.257-2.328-5.31-2.985-.08-.041-.16-.101-.259-.139l-5.212-3.083c.12.994.557 1.95 1.274 2.646.138.138.28.258.437.377-.12.06-.258.12-.378.198-1.053.658-4.894 2.866-5.272 3.046-.378.179-.557.258-.875.258a2.931 2.931 0 0 1-1.85-.916A3.071 3.071 0 0 1 1 20.218c.019-.298.1-.597.258-.855.18-.378 2.388-4.219 3.045-5.273a3.962 3.962 0 0 0 .576-2.07c0-.736-.198-1.453-.576-2.07-.657-1.094-2.885-4.932-3.045-5.31A1.839 1.839 0 0 1 1 3.784a3.026 3.026 0 0 1 .915-1.869A3.013 3.013 0 0 1 3.782 1c.298.019.597.1.874.258.318.139 3.124 1.771 4.615 2.646l.34.198c.12.079.22.139.299.18l.16.1 5.31 3.143A4.377 4.377 0 0 0 13.688 4.5c.12-.06.258-.12.378-.198 1.054-.657 4.895-2.885 5.272-3.045.258-.157.557-.239.875-.258a3.034 3.034 0 0 1 1.85.915h.003Zm-9.788 11.499 1.133-1.133a.382.382 0 0 0 0-.557l-1.133-1.133a.383.383 0 0 0-.556 0l-1.133 1.133a.382.382 0 0 0 0 .557l1.133 1.133c.138.138.396.138.556 0Zm9.787-11.499c.517.498.856 1.155.935 1.87 0 .298-.079.496-.258.874-.18.378-2.388 4.197-3.045 5.25a4.011 4.011 0 0 0 0 4.14c.657 1.054 2.866 4.895 3.045 5.273.18.378.258.557.258.856a2.932 2.932 0 0 1-.915 1.85c-.498.516-1.155.855-1.85.915-.3 0-.497-.079-.856-.258-.359-.18-4.257-2.328-5.31-2.985-.08-.041-.16-.101-.259-.139l-5.212-3.083c.12.994.557 1.95 1.274 2.646.138.138.28.258.437.377-.12.06-.258.12-.378.198-1.053.658-4.894 2.866-5.272 3.046-.378.179-.557.258-.875.258a2.931 2.931 0 0 1-1.85-.916A3.071 3.071 0 0 1 1 20.218c.019-.298.1-.597.258-.855.18-.378 2.388-4.219 3.045-5.273a3.962 3.962 0 0 0 .576-2.07c0-.736-.198-1.453-.576-2.07-.657-1.094-2.885-4.932-3.045-5.31A1.839 1.839 0 0 1 1 3.784a3.026 3.026 0 0 1 .915-1.869A3.013 3.013 0 0 1 3.782 1c.298.019.597.1.874.258.318.139 3.124 1.771 4.615 2.646l.34.198c.12.079.22.139.299.18l.16.1 5.31 3.143A4.377 4.377 0 0 0 13.688 4.5c.12-.06.258-.12.378-.198 1.054-.657 4.895-2.885 5.272-3.045.258-.157.557-.239.875-.258a3.034 3.034 0 0 1 1.85.915h.003Zm-9.787 11.499 1.133-1.133a.382.382 0 0 0 0-.557l-1.133-1.133a.383.383 0 0 0-.556 0l-1.133 1.133a.382.382 0 0 0 0 .557l1.133 1.133c.138.138.396.138.556 0Z"/>
</svg>
