<svg fill="none" viewBox="0 0 24 24" data-icon="destination" role="img">
    <path fill="currentColor" d="M12 2a10 10 0 0 0-8.811 5.27c-.261.487-.015 1.075.496 1.286.51.211 1.09-.035 1.363-.515a8 8 0 1 1 0 7.918c-.273-.48-.853-.726-1.363-.515-.51.211-.757.8-.496 1.286A10 10 0 1 0 11.999 2Z"/>
    <path fill="currentColor" d="M2.293 12.707A1 1 0 0 1 3 11h9.59l-2.3-2.29A1.005 1.005 0 0 1 11 6.996a1.004 1.004 0 0 1 .71.294l4 4c.091.095.162.207.21.33a1 1 0 0 1 0 .76 1 1 0 0 1-.21.33l-4 4a.999.999 0 0 1-1.42 0 1 1 0 0 1 0-1.42l2.3-2.29H3a1 1 0 0 1-.707-.293Z"/>
</svg>
