<svg fill="none" viewBox="0 0 24 24" data-icon="docker" role="img">
    <path fill="currentColor" d="M13.575 11.341H11.2V9.207h2.375v2.134Zm0-7.341H11.2v2.181h2.375V4Zm2.81 5.203H14.01v2.135h2.375V9.203Zm-5.616-2.59H8.393v2.16h2.376v-2.16Zm2.806 0H11.2v2.16h2.375v-2.16Zm9.947 3.593c-.517-.349-1.71-.474-2.627-.302-.118-.862-.6-1.613-1.477-2.289l-.503-.334-.334.503c-.661.999-.84 2.645-.133 3.73-.313.169-.927.399-1.74.384H1.089c-.313 1.826.208 4.198 1.581 5.825 1.333 1.578 3.331 2.38 5.944 2.38 5.656 0 9.842-2.606 11.8-7.339.77.015 2.43.004 3.282-1.624.053-.09.237-.474.305-.614l-.478-.32ZM5.156 9.203H2.784v2.135h2.375V9.203h-.003Zm2.806 0H5.587v2.135h2.375V9.203Zm2.807 0H8.393v2.135h2.376V9.203Zm-2.807-2.59H5.587v2.16h2.375v-2.16Z"/>
</svg>
