<svg fill="none" viewBox="0 0 13 16" data-icon="expandAll" role="img">
    <path fill="currentColor" d="M7.636 14.975a.666.666 0 0 1-.22.14.666.666 0 0 1-.506 0 .666.666 0 0 1-.22-.14l-1.667-1.667a.67.67 0 0 1 .947-.947l.526.534v-3.06a.667.667 0 1 1 1.334 0v3.06l.526-.534a.666.666 0 0 1 .947 0 .666.666 0 0 1 0 .947l-1.667 1.667ZM6.69.692a.667.667 0 0 1 .22-.14.627.627 0 0 1 .506 0c.082.031.157.079.22.14l1.667 1.666a.67.67 0 1 1-.947.947l-.526-.533v3.06a.667.667 0 0 1-1.334 0v-3.06l-.526.533a.67.67 0 0 1-.947-.947L6.69.692Z"/>
    <path fill="currentColor" fill-rule="evenodd" d="M2.496 7.831c0-.368.299-.666.667-.666h8a.667.667 0 0 1 0 1.333h-8a.667.667 0 0 1-.667-.667Z" clip-rule="evenodd"/>
</svg>
