<svg fill="none" data-icon="export" role="img" viewBox="-2 -1 18 18">
    <path fill="currentColor" d="M12 7.214a.666.666 0 0 0-.667.667v4.785a.666.666 0 0 1-.667.667H3.335a.666.666 0 0 1-.667-.667V5.335a.667.667 0 0 1 .667-.667H8.12a.667.667 0 0 0 0-1.333H3.335a2 2 0 0 0-2 2v7.331a2 2 0 0 0 2 2h7.331a2 2 0 0 0 2-2V7.881a.666.666 0 0 0-.667-.667m2.612-5.465a.67.67 0 0 0-.613-.413h-4a.667.667 0 1 0 0 1.333h2.393L5.529 9.527a.667.667 0 0 0 .216 1.092.665.665 0 0 0 .73-.146l6.858-6.865v2.393a.666.666 0 1 0 1.333 0V2.002a.7.7 0 0 0-.053-.253"/>
</svg>