<svg fill="none" viewBox="0 0 24 24" data-icon="files" role="img">
    <path fill="currentColor" d="M16 20H8a3 3 0 0 1-3-3V7a1 1 0 0 0-2 0v10a5 5 0 0 0 5 5h8a1 1 0 0 0 0-2Zm-6-7a1 1 0 0 0 1 1h5a1 1 0 0 0 0-2h-5a1 1 0 0 0-1 1Zm11-4.06a1.307 1.307 0 0 0-.06-.27v-.09a1.07 1.07 0 0 0-.19-.28l-6-6a1.071 1.071 0 0 0-.28-.19.32.32 0 0 0-.09 0 .88.88 0 0 0-.33-.11H10a3 3 0 0 0-3 3v10a3 3 0 0 0 3 3h8a3 3 0 0 0 3-3V8.94Zm-6-3.53L17.59 8H16a1 1 0 0 1-1-1V5.41ZM19 15a1 1 0 0 1-1 1h-8a1 1 0 0 1-1-1V5a1 1 0 0 1 1-1h3v3a3 3 0 0 0 .18 1H11a1 1 0 1 0 0 2h8v5Z"/>
</svg>
