<svg fill="none" viewBox="0 0 24 24" data-icon="file" role="img">
    <path fill="currentColor" d="M9 10h1a1 1 0 1 0 0-2H9a1 1 0 0 0 0 2Zm0 2a1 1 0 0 0 0 2h6a1 1 0 0 0 0-2H9Zm11-3.06a1.307 1.307 0 0 0-.06-.27v-.09a1.07 1.07 0 0 0-.19-.28l-6-6a1.071 1.071 0 0 0-.28-.19.32.32 0 0 0-.09 0 .88.88 0 0 0-.33-.11H7a3 3 0 0 0-3 3v14a3 3 0 0 0 3 3h10a3 3 0 0 0 3-3V8.94Zm-6-3.53L16.59 8H15a1 1 0 0 1-1-1V5.41ZM18 19a1 1 0 0 1-1 1H7a1 1 0 0 1-1-1V5a1 1 0 0 1 1-1h5v3a3 3 0 0 0 3 3h3v9Zm-3-3H9a1 1 0 0 0 0 2h6a1 1 0 0 0 0-2Z"/>
</svg>
