<svg fill="none" xmlns="http://www.w3.org/2000/svg" viewBox="0 0 25 24" data-icon="folderOpen" role="img">
    <path fill="currentColor" d="M23.78 10.37A1 1 0 0 0 23 10h-2V9a3 3 0 0 0-3-3h-6.28l-.32-1a3 3 0 0 0-2.84-2H5a3 3 0 0 0-3 3v12a3 3 0 0 0 3 3h14.4a3 3 0 0 0 2.92-2.35L24 11.22a1 1 0 0 0-.22-.85M6.37 18.22a1 1 0 0 1-1 .78H5a1 1 0 0 1-1-1V6a1 1 0 0 1 1-1h3.56a1 1 0 0 1 1 .68l.54 1.64A1 1 0 0 0 11 8h7a1 1 0 0 1 1 1v1H9a1 1 0 0 0-1 .78zm14 0a1 1 0 0 1-1 .78H8.21q.078-.167.11-.35L9.8 12h12z"/>
</svg>
