<svg width="24" height="24" fill="none" data-icon="gear" role="img" viewBox="0 0 24 24">
    <path fill="currentColor" d="M1.148 13.793a10.933 10.933 0 0 1 0-3.585c1.212.028 2.3-.553 2.724-1.574.423-1.023.064-2.204-.814-3.039.7-.98 1.557-1.836 2.536-2.537.836.878 2.017 1.237 3.04.814 1.022-.423 1.602-1.513 1.572-2.724 1.188-.197 2.4-.197 3.588 0-.03 1.212.55 2.3 1.572 2.724 1.023.423 2.204.064 3.039-.814.98.7 1.836 1.557 2.537 2.536-.878.836-1.238 2.017-.814 3.04.423 1.023 1.513 1.602 2.724 1.572.197 1.188.197 2.4 0 3.588-1.212-.03-2.3.55-2.724 1.572-.424 1.023-.064 2.204.814 3.039-.7.98-1.557 1.836-2.536 2.537-.836-.878-2.017-1.238-3.04-.814-1.023.423-1.602 1.513-1.572 2.724-1.188.197-2.4.197-3.588 0 .03-1.212-.55-2.3-1.572-2.724-1.023-.424-2.204-.064-3.039.814-.98-.7-1.837-1.557-2.537-2.536.878-.836 1.237-2.017.814-3.04-.423-1.022-1.513-1.602-2.724-1.572v-.002ZM12 15.299A3.3 3.3 0 1 0 12 8.7a3.3 3.3 0 0 0 0 6.6Z"/>
</svg>
