<svg fill="none" viewBox="0 0 24 24" data-icon="google" role="img">
    <path fill="currentColor" d="M22.402 10.004a1 1 0 0 0-.984-.822H12a1 1 0 0 0-1 1v3.868a1 1 0 0 0 1 1h3.962a3.65 3.65 0 0 1-1.131 1.188 5.06 5.06 0 0 1-2.831.785 4.935 4.935 0 0 1-4.646-3.438v-.002a4.904 4.904 0 0 1 0-3.167v-.001A4.936 4.936 0 0 1 12 6.978a4.378 4.378 0 0 1 3.131 1.218 1 1 0 0 0 1.399-.016l2.868-2.868a.999.999 0 0 0-.026-1.438A10.623 10.623 0 0 0 12 1a10.95 10.95 0 0 0-9.829 6.058l-.001.002A10.922 10.922 0 0 0 1 12.001a11.079 11.079 0 0 0 1.17 4.939l.001.002A10.95 10.95 0 0 0 12 23a10.525 10.525 0 0 0 7.295-2.686v-.001h.001v-.001a10.784 10.784 0 0 0 3.304-8.084c0-.745-.066-1.49-.198-2.224ZM12 3.001a8.682 8.682 0 0 1 5.209 1.672l-1.454 1.454A6.464 6.464 0 0 0 12 4.978a6.886 6.886 0 0 0-5.99 3.55L4.942 7.7l-.585-.454A8.953 8.953 0 0 1 12 3.001ZM3.48 14.904a9.03 9.03 0 0 1 0-5.807l1.782 1.382a6.854 6.854 0 0 0 0 3.042l-1.783 1.383ZM12 21a8.952 8.952 0 0 1-7.644-4.246l.379-.293 1.276-.99A6.885 6.885 0 0 0 12 19.023a7.277 7.277 0 0 0 3.306-.75l1.691 1.313A8.89 8.89 0 0 1 12 21Zm6.526-2.76-.183-.142-1.377-1.07a5.606 5.606 0 0 0 1.4-2.795 1 1 0 0 0-.984-1.183H13v-1.868h7.549c.034.346.051.695.051 1.046a9.052 9.052 0 0 1-2.074 6.012Z"/>
</svg>
