<svg fill="none" viewBox="0 0 24 24" data-icon="idCardIcon" role="img">
    <path fill="currentColor" fill-rule="evenodd" d="M5 4.5h14a3 3 0 0 1 3 3v9a3 3 0 0 1-3 3H5a3 3 0 0 1-3-3v-9a3 3 0 0 1 3-3Zm14.707 12.707A1 1 0 0 0 20 16.5v-9a1 1 0 0 0-1-1H5a1 1 0 0 0-1 1v9a1 1 0 0 0 1 1h14a1 1 0 0 0 .707-.293ZM15 10.5c0 .824-.332 1.571-.87 2.113A3.997 3.997 0 0 1 16 16a1 1 0 1 1-2 0 2 2 0 1 0-4 0 1 1 0 1 1-2 0c0-1.427.747-2.679 1.87-3.387A3 3 0 1 1 15 10.5Zm-3 1a1 1 0 1 0 0-2 1 1 0 0 0 0 2Z" clip-rule="evenodd"/>
</svg>
