<svg xmlns="http://www.w3.org/2000/svg" width="11.667" height="11.667" fill="none">
    <path fill="currentColor"
        d="M5.833 5.25a.583.583 0 0 0-.583.583v2.334a.583.583 0 1 0 1.167 0V5.833a.583.583 0 0 0-.584-.583Zm.222-2.287a.583.583 0 0 0-.443 0 .583.583 0 0 0-.193.123.67.67 0 0 0-.122.192.583.583 0 0 0 .123.636.67.67 0 0 0 .192.123.583.583 0 0 0 .636-.951.583.583 0 0 0-.193-.123zM5.833 0a5.833 5.833 0 1 0 0 11.667A5.833 5.833 0 0 0 5.833 0Zm0 10.5a4.667 4.667 0 1 1 0-9.333 4.667 4.667 0 0 1 0 9.333z" />
</svg>