<svg fill="none" viewBox="0 0 24 24" data-icon="integrations" role="img">
    <path fill="currentColor" d="M20 16.008a3 3 0 0 0-1.73.56l-2.45-1.45a3.74 3.74 0 0 0 .18-1.11 4 4 0 0 0-3-3.86v-2.32a3 3 0 1 0-2 0v2.32a4 4 0 0 0-3 3.86c.004.377.064.752.18 1.11l-2.45 1.45a3 3 0 0 0-1.73-.56 3 3 0 1 0 3 3 3 3 0 0 0-.12-.8l2.3-1.37a4 4 0 0 0 5.64 0l2.3 1.37a3 3 0 1 0 2.88-2.2Zm-16 4a1 1 0 1 1 0-2 1 1 0 0 1 0 2Zm8-16a1 1 0 1 1 0 2 1 1 0 0 1 0-2Zm0 12a2 2 0 1 1 0-4 2 2 0 0 1 0 4Zm8 4a1 1 0 1 1 0-2 1 1 0 0 1 0 2Z"/>
</svg>
