<svg fill="none" viewBox="0 0 24 24" data-icon="icon" role="img">
    <path fill="currentColor" d="M9.196 10.405a1 1 0 0 0 1.41 0 1 1 0 0 0 0-1.41l-6.27-6.3a1.004 1.004 0 1 0-1.42 1.42zm12.3 4a1 1 0 0 0-1 1v3.59l-4.56-4.59a1.018 1.018 0 1 0-1.44 1.44l4.59 4.56h-3.59a1 1 0 1 0 0 2h6c.13-.002.26-.029.38-.08a1 1 0 0 0 .54-.54 1 1 0 0 0 .08-.38v-6a1 1 0 0 0-1-1m.92-11.38a1 1 0 0 0-.54-.54 1 1 0 0 0-.38-.08h-6a1 1 0 0 0 0 2h3.59l-16.3 16.29a1 1 0 0 0 .325 1.639 1 1 0 0 0 1.095-.22l16.29-16.3v3.59a1 1 0 0 0 2 0v-6a1 1 0 0 0-.08-.38"/>
</svg>
