<svg viewBox="0 0 24 12" fill="none" xmlns="http://www.w3.org/2000/svg">
  <path
    d="M7.97608 6.15529C8.35271 5.82927 8.65479 5.42604 8.86183 4.97296C9.06887 4.51988 9.17603 4.02756 9.17602 3.52941C9.17602 2.59335 8.80419 1.69563 8.14233 1.03374C7.48047 0.371848 6.5828 0 5.64678 0C4.71077 0 3.8131 0.371848 3.15123 1.03374C2.48937 1.69563 2.11754 2.59335 2.11754 3.52941C2.11754 4.02756 2.22469 4.51988 2.43173 4.97296C2.63878 5.42604 2.94086 5.82927 3.31749 6.15529C2.3294 6.60274 1.49108 7.32531 0.902766 8.23662C0.314452 9.14792 0.00103891 10.2094 0 11.2941C0 11.4813 0.0743659 11.6609 0.206738 11.7933C0.33911 11.9256 0.518645 12 0.705848 12C0.893051 12 1.07259 11.9256 1.20496 11.7933C1.33733 11.6609 1.4117 11.4813 1.4117 11.2941C1.4117 10.1708 1.85789 9.09358 2.65212 8.29931C3.44636 7.50504 4.52357 7.05882 5.64678 7.05882C6.77 7.05882 7.84721 7.50504 8.64144 8.29931C9.43568 9.09358 9.88187 10.1708 9.88187 11.2941C9.88187 11.4813 9.95624 11.6609 10.0886 11.7933C10.221 11.9256 10.4005 12 10.5877 12C10.7749 12 10.9545 11.9256 11.0868 11.7933C11.2192 11.6609 11.2936 11.4813 11.2936 11.2941C11.2925 10.2094 10.9791 9.14792 10.3908 8.23662C9.80249 7.32531 8.96417 6.60274 7.97608 6.15529ZM5.64678 5.64706C5.22797 5.64706 4.81857 5.52286 4.47034 5.29017C4.12211 5.05748 3.8507 4.72675 3.69043 4.3398C3.53016 3.95285 3.48822 3.52706 3.56993 3.11628C3.65163 2.7055 3.85331 2.32817 4.14945 2.03201C4.4456 1.73585 4.82291 1.53416 5.23367 1.45245C5.64443 1.37074 6.0702 1.41268 6.45713 1.57296C6.84406 1.73324 7.17478 2.00466 7.40746 2.35291C7.64014 2.70116 7.76433 3.11058 7.76433 3.52941C7.76433 4.09105 7.54123 4.62968 7.14411 5.02681C6.747 5.42395 6.20839 5.64706 5.64678 5.64706Z"
    opacity="0.12"
    fill="currentColor"
  />
  <path
    d="M14.6393 5.87294C15.091 5.36423 15.3861 4.7358 15.489 4.0633C15.5919 3.39079 15.4983 2.70288 15.2193 2.08235C14.9404 1.46183 14.4881 0.93515 13.9168 0.56571C13.3456 0.196271 12.6797 -0.000181835 11.9994 1.2629e-07C11.8122 1.2629e-07 11.6327 0.0743696 11.5003 0.206748C11.3679 0.339127 11.2936 0.518671 11.2936 0.705882C11.2936 0.893094 11.3679 1.07264 11.5003 1.20502C11.6327 1.3374 11.8122 1.41176 11.9994 1.41176C12.561 1.41176 13.0996 1.63487 13.4968 2.03201C13.8939 2.42915 14.117 2.96778 14.117 3.52941C14.116 3.90017 14.0177 4.26417 13.8319 4.585C13.646 4.90584 13.3793 5.17227 13.0582 5.35765C12.9535 5.41801 12.8661 5.50423 12.8044 5.60805C12.7426 5.71187 12.7084 5.82981 12.7053 5.95059C12.7023 6.07042 12.7299 6.18903 12.7855 6.29524C12.8411 6.40145 12.9228 6.49176 13.0229 6.55765L13.2982 6.74118L13.3899 6.79059C14.2408 7.19415 14.9586 7.83246 15.4588 8.63034C15.959 9.42821 16.2208 10.3524 16.2133 11.2941C16.2133 11.4813 16.2877 11.6609 16.4201 11.7933C16.5525 11.9256 16.732 12 16.9192 12C17.1064 12 17.2859 11.9256 17.4183 11.7933C17.5507 11.6609 17.625 11.4813 17.625 11.2941C17.6308 10.2109 17.3595 9.14418 16.8369 8.19534C16.3144 7.2465 15.5579 6.44704 14.6393 5.87294Z"
    opacity="0.12"
    fill="currentColor"
  />
  <path
    d="M20.9708 5.87294C21.4226 5.36423 21.7176 4.7358 21.8205 4.0633C21.9235 3.39079 21.8298 2.70288 21.5509 2.08235C21.272 1.46183 20.8196 0.93515 20.2484 0.56571C19.6771 0.196271 19.0113 -0.000181835 18.331 1.2629e-07C18.1438 1.2629e-07 17.9642 0.0743696 17.8319 0.206748C17.6995 0.339127 17.6251 0.518671 17.6251 0.705882C17.6251 0.893094 17.6995 1.07264 17.8319 1.20502C17.9642 1.3374 18.1438 1.41176 18.331 1.41176C18.8926 1.41176 19.4312 1.63487 19.8283 2.03201C20.2254 2.42915 20.4485 2.96778 20.4485 3.52941C20.4475 3.90017 20.3492 4.26417 20.1634 4.585C19.9776 4.90584 19.7108 5.17227 19.3897 5.35765C19.2851 5.41801 19.1977 5.50423 19.1359 5.60805C19.0741 5.71187 19.04 5.82981 19.0368 5.95059C19.0339 6.07042 19.0615 6.18903 19.117 6.29524C19.1726 6.40145 19.2543 6.49176 19.3545 6.55765L19.6297 6.74118L19.7215 6.79059C20.5723 7.19415 21.2901 7.83246 21.7903 8.63034C22.2905 9.42821 22.5523 10.3524 22.5449 11.2941C22.5449 11.4813 22.6192 11.6609 22.7516 11.7933C22.884 11.9256 23.0635 12 23.2507 12C23.4379 12 23.6175 11.9256 23.7498 11.7933C23.8822 11.6609 23.9566 11.4813 23.9566 11.2941C23.9623 10.2109 23.6911 9.14418 23.1685 8.19534C22.6459 7.2465 21.8894 6.44704 20.9708 5.87294Z"
    opacity="0.12"
    fill="currentColor"
  />
</svg>