<svg fill="none" viewBox="0 0 24 24" data-icon="rocket" role="img">
    <path fill="currentColor" d="M22.568 2.074a1 1 0 0 0-.713-.713 11.252 11.252 0 0 0-11.42 3.623L9.322 6.308 6.716 5.68a2.777 2.777 0 0 0-3.387 1.357l-2.2 3.9a1 1 0 0 0 .662 1.47l3.072.658c-.26.792-.446 1.607-.555 2.434a1 1 0 0 0 .285.836l3.1 3.1a1.001 1.001 0 0 0 .794.29c.845-.076 1.68-.24 2.492-.49l.643 3.003a1 1 0 0 0 1.47.661l3.905-2.202a3.036 3.036 0 0 0 1.375-3.304l-.669-2.759 1.237-1.137a11.204 11.204 0 0 0 3.628-11.423Zm-19.03 8.661 1.557-2.76a.826.826 0 0 1 1.07-.375l1.717.416-.65.772a13.093 13.093 0 0 0-1.59 2.398l-2.103-.45Zm12.471 8.223-2.716 1.531-.43-2.004a11.34 11.34 0 0 0 2.414-1.62l.744-.684.403 1.665a1.042 1.042 0 0 1-.415 1.112Zm1.614-6.966-3.684 3.386a9.773 9.773 0 0 1-5.17 2.305l-2.405-2.405a10.932 10.932 0 0 1 2.4-5.206l1.68-1.992a.976.976 0 0 0 .077-.093l1.435-1.704a9.277 9.277 0 0 1 8.81-3.12 9.218 9.218 0 0 1-3.143 8.83ZM16.7 5.828a1.5 1.5 0 1 0 0 3 1.5 1.5 0 0 0 0-3Z"/>
</svg>
