<svg fill="none" viewBox="0 0 24 24" data-icon="shortVideo" role="img">
    <path fill="currentColor" d="M6.444 3.685a10 10 0 0 1 4.558-1.635c.55-.055.998.398.998.95 0 .552-.45.994-.997 1.062a8 8 0 0 0 0 15.876c.548.069.997.51.997 1.062s-.449 1.005-.998.95A10 10 0 0 1 6.445 3.685ZM13.879 4.224C13.382 4.104 13 3.68 13 3.169c0-.6.52-1.073 1.105-.947 1.2.257 2.322.73 3.32 1.376.503.325.536 1.027.112 1.45-.36.362-.93.391-1.367.125a8 8 0 0 0-2.291-.95ZM20.831 11c-.51 0-.935-.382-1.055-.879a7.999 7.999 0 0 0-.949-2.291c-.266-.436-.237-1.006.124-1.367.424-.424 1.126-.391 1.451.112a9.941 9.941 0 0 1 1.376 3.32c.126.586-.347 1.105-.947 1.105ZM18.951 17.537c-.36-.36-.39-.93-.124-1.367.434-.71.754-1.483.95-2.291.12-.497.543-.879 1.054-.879.6 0 1.073.52.947 1.105a9.941 9.941 0 0 1-1.376 3.32c-.325.503-1.027.536-1.45.112ZM13 20.831c0-.51.382-.935.879-1.055a8 8 0 0 0 2.291-.949c.436-.266 1.006-.237 1.367.124.424.424.391 1.126-.112 1.451a9.942 9.942 0 0 1-3.32 1.376c-.586.126-1.105-.347-1.105-.947Z"/>
    <path fill="currentColor" d="m16 10.27-5-2.89a2 2 0 0 0-3 1.73v5.78a2 2 0 0 0 3 1.73l5-2.89a1.999 1.999 0 0 0 0-3.46ZM15 12l-5 2.89V9.11L15 12Z"/>
</svg>
