<svg fill="none" viewBox="0 0 24 24" data-icon="signout" role="img">
    <path fill="currentColor" d="M4 19c0 .796.358 1.559.996 2.121.637.563 1.502.879 2.404.879h10.2c.902 0 1.766-.316 2.404-.879.638-.562.996-1.325.996-2.121V5c0-.796-.358-1.559-.996-2.121C19.366 2.316 18.502 2 17.6 2H7.4c-.902 0-1.767.316-2.404.879C4.358 3.44 4 4.204 4 5v1.867a1.133 1.133 0 0 0 2.267 0V5c0-.265.12-.52.332-.707.212-.188.5-.293.801-.293h10.2c.3 0 .589.105.801.293a.944.944 0 0 1 .332.707v14c0 .265-.12.52-.332.707-.212.188-.5.293-.801.293H7.4c-.3 0-.589-.105-.801-.293A.944.944 0 0 1 6.267 19v-2.367a1.133 1.133 0 0 0-2.267 0V19Z"/>
    <path fill="currentColor" d="M15.71 12.706a1 1 0 0 0 .21-.33.94.94 0 0 0 0-.76 1.001 1.001 0 0 0-.21-.33l-4-4a1.004 1.004 0 0 0-1.42 1.42l2.3 2.29H5a1 1 0 0 0 0 2h7.59l-2.3 2.29a1.004 1.004 0 0 0 1.42 1.42l4-4Z"/>
</svg>
