<svg fill="none" viewBox="0 0 24 24" data-icon="slack" role="img">
    <path fill="currentColor" d="M23.012 9.512a3.504 3.504 0 0 0-3.5-3.5 3.46 3.46 0 0 0-1.5.35v-1.85a3.494 3.494 0 0 0-6-2.442 3.486 3.486 0 0 0-5.65 3.942h-1.85a3.495 3.495 0 0 0-2.442 6 3.487 3.487 0 0 0 3.942 5.649v1.85a3.495 3.495 0 0 0 6 2.442 3.487 3.487 0 0 0 5.649-3.941h1.85a3.494 3.494 0 0 0 2.442-6 3.485 3.485 0 0 0 1.059-2.5Zm-10-5a1.5 1.5 0 0 1 3 0v5a1.5 1.5 0 1 1-3 0v-5Zm-7 10a1.5 1.5 0 1 1-1.5-1.5h1.5v1.5Zm5 5a1.5 1.5 0 1 1-3 0v-5a1.5 1.5 0 0 1 3 0v5Zm-1.5-8.5h-5a1.5 1.5 0 1 1 0-3h5a1.5 1.5 0 0 1 0 3Zm1.5-5h-1.5a1.5 1.5 0 1 1 1.5-1.5v1.5Zm1 6.058a3.56 3.56 0 0 0-.059-.058l.059-.059.058.059-.058.058Zm2.5 8.942a1.502 1.502 0 0 1-1.5-1.5v-1.5h1.5a1.5 1.5 0 0 1 0 3Zm5-5h-5a1.5 1.5 0 1 1 0-3h5a1.5 1.5 0 0 1 0 3Zm0-5h-1.5v-1.5a1.5 1.5 0 1 1 1.5 1.5Z"/>
</svg>
