<svg fill="none" viewBox="0 0 24 24" data-icon="source" role="img">
    <path fill="currentColor" d="M10.298 12.707A1 1 0 0 1 11.005 11h9.59l-2.3-2.29a1.004 1.004 0 1 1 1.42-1.42l4 4c.09.095.162.207.21.33a1 1 0 0 1 0 .76 1 1 0 0 1-.21.33l-4 4a.999.999 0 0 1-1.42 0 1 1 0 0 1 0-1.42l2.3-2.29h-9.59a1 1 0 0 1-.707-.293Z"/>
    <path fill="currentColor" fill-rule="evenodd" d="M12 4a8 8 0 1 0 4.735 14.449 1 1 0 1 1 1.185 1.611A9.96 9.96 0 0 1 12 22C6.477 22 2 17.523 2 12S6.477 2 12 2a9.96 9.96 0 0 1 5.92 1.94 1 1 0 0 1-1.185 1.611A7.96 7.96 0 0 0 12 4Z" clip-rule="evenodd"/>
</svg>
