<svg fill="none" viewBox="0 0 24 24" data-icon="stars" role="img">
    <path fill="currentColor" d="m16.657 12.516-4.512-.688-2.02-4.082a1.002 1.002 0 0 0-.902-.559c-.344 0-.687.215-.86.56l-2.019 4.081-4.511.688c-.817.086-1.118 1.117-.516 1.675l3.223 3.18-.774 4.512c-.086.601.43 1.117.988 1.117.172 0 .301 0 .473-.086l4.04-2.148 3.995 2.148c.172.086.301.086.473.086.559 0 1.074-.473.988-1.117l-.773-4.512 3.265-3.18c.559-.558.258-1.59-.558-1.675Zm-4.168 3.394-.774.73.172 1.075.43 2.363-2.106-1.117-.945-.516-.988.516-2.106 1.117.43-2.363.172-1.074L6 15.91l-1.718-1.677 2.363-.343 1.074-.172 1.547-3.094 1.031 2.148.473.946 1.074.172 2.364.343-1.72 1.676Zm2.965-8.035 1.117-2.277 2.32-1.16-2.32-1.118L15.454 1l-1.16 2.32-2.278 1.118 2.277 1.16 1.16 2.277ZM21.64 9.25l-.687-1.375-.688 1.375-1.375.688 1.375.687.688 1.375.687-1.375 1.375-.688-1.375-.687Z"/>
</svg>
