<svg fill="none" viewBox="0 0 24 24" data-icon="statusError" role="img">
    <path fill="currentColor" fill-rule="evenodd" d="M15.824 2.689a10 10 0 0 1 3.246 2.24A10 10 0 1 1 4.93 19.07 10 10 0 0 1 15.824 2.69Zm-.114 5.6a.999.999 0 0 0-1.42 0L12 10.59l-2.29-2.3a1.004 1.004 0 1 0-1.42 1.42l2.3 2.29-2.3 2.29a1 1 0 0 0 0 1.42.998.998 0 0 0 1.42 0l2.29-2.3 2.29 2.3a.998.998 0 0 0 1.42 0 .997.997 0 0 0 .219-1.094.998.998 0 0 0-.22-.325L13.41 12l2.3-2.29a.998.998 0 0 0 0-1.42Z" clip-rule="evenodd"/>
</svg>
