<svg fill="none" viewBox="0 0 24 24" data-icon="statusWarning" role="img">
    <path fill="currentColor" fill-rule="evenodd" d="M6.444 3.685a10 10 0 1 1 11.112 16.63A10 10 0 0 1 6.444 3.685ZM12 7a1 1 0 0 0-1 1v4a1 1 0 0 0 2 0V8a1 1 0 0 0-1-1Zm.92 8.62a.758.758 0 0 0-.09-.18l-.12-.15a.999.999 0 0 0-1.09-.21 1.15 1.15 0 0 0-.33.21A1 1 0 0 0 11 16c.002.13.029.26.08.38a.9.9 0 0 0 .54.54.94.94 0 0 0 .76 0 .9.9 0 0 0 .54-.54A1 1 0 0 0 13 16a1.362 1.362 0 0 0 0-.2.639.639 0 0 0-.08-.18Z" clip-rule="evenodd"/>
</svg>
