<svg width="24" height="24" fill="none" data-icon="sync" role="img" viewBox="2 2 20 20">
    <g clip-path="url(#a)">
        <path fill="currentColor" d="M5.463 4.433A9.961 9.961 0 0 1 12 2c5.523 0 10 4.477 10 10 0 2.136-.67 4.116-1.81 5.74L17 12h3A8 8 0 0 0 6.46 6.228l-.997-1.795Zm13.074 15.134A9.962 9.962 0 0 1 12 22C6.477 22 2 17.523 2 12c0-2.136.67-4.116 1.81-5.74L7 12H4a8 8 0 0 0 13.54 5.772l.997 1.795Z"/>
    </g>
    <defs>
        <clipPath id="a">
            <path fill="currentColor" d="M0 0h24v24H0z"/>
        </clipPath>
    </defs>
</svg>
