<svg width="24" height="24" fill="none" data-icon="target" role="img" viewBox="0 0 24 24">
    <g clip-path="url(#a)">
        <path fill="currentColor" d="m13 1 .001 3.062A8.004 8.004 0 0 1 19.938 11H23v2l-3.062.001a8.004 8.004 0 0 1-6.937 6.937L13 23h-2v-3.062a8.004 8.004 0 0 1-6.938-6.937L1 13v-2h3.062A8.004 8.004 0 0 1 11 4.062V1h2Zm-1 5a6 6 0 1 0 0 12 6 6 0 0 0 0-12Zm0 4a2 2 0 1 1 0 4 2 2 0 0 1 0-4Z"/>
    </g>
    <defs>
        <clipPath id="a">
            <path fill="currentColor" d="M0 0h24v24H0z"/>
        </clipPath>
    </defs>
</svg>
