<svg fill="none" viewBox="0 0 24 24" data-icon="warningOutline" role="img">
    <path fill="currentColor" d="M12 7a1 1 0 0 0-1 1v4a1 1 0 0 0 2 0V8a1 1 0 0 0-1-1Zm.92 8.62a.758.758 0 0 0-.09-.18l-.12-.15a.999.999 0 0 0-1.09-.21 1.15 1.15 0 0 0-.33.21A1 1 0 0 0 11 16c.002.13.029.26.08.38a.9.9 0 0 0 .54.54.94.94 0 0 0 .76 0 .9.9 0 0 0 .54-.54c.051-.12.078-.25.08-.38a1.362 1.362 0 0 0 0-.2.639.639 0 0 0-.08-.18ZM12 2a10 10 0 1 0 0 20 10 10 0 0 0 0-20Zm0 18a8 8 0 1 1 0-16.001A8 8 0 0 1 12 20Z"/>
</svg>
