<svg fill="none" viewBox="0 0 24 24" data-icon="wrench" role="img">
    <path fill="currentColor" d="m21.708 15.578-4.52-4.51c.095-.46.142-.93.14-1.4a7.669 7.669 0 0 0-10.91-6.95 1 1 0 0 0-.29 1.62l4.35 4.34-1.8 1.8-4.34-4.35a1 1 0 0 0-.88-.27 1 1 0 0 0-.74.56 7.67 7.67 0 0 0 7 10.91c.47.001.94-.046 1.4-.14l4.51 4.52a.999.999 0 0 0 1.42 0 1 1 0 0 0 0-1.42l-4.9-4.9a1 1 0 0 0-.95-.26 5.88 5.88 0 0 1-1.48.2 5.67 5.67 0 0 1-5.72-5.66 6 6 0 0 1 .08-1l3.92 3.93a.998.998 0 0 0 1.42 0l3.18-3.21a1 1 0 0 0 0-1.39l-3.89-3.92a6.12 6.12 0 0 1 1-.08 5.67 5.67 0 0 1 5.66 5.67c-.004.5-.07.997-.2 1.48a1.001 1.001 0 0 0 .26.95l4.9 4.9a1.004 1.004 0 1 0 1.42-1.42h-.04Z"/>
</svg>
